<?xml version="1.0" encoding="UTF-8" standalone="no"?>
<svg
   width="114.59766pt"
   height="111.83984pt"
   viewBox="0 0 114.59766 111.83984"
   version="1.1"
   id="svg5986"
   sodipodi:docname="gbased_vs_gfree.svg"
   inkscape:version="1.2.1 (9c6d41e410, 2022-07-14)"
   xmlns:inkscape="http://www.inkscape.org/namespaces/inkscape"
   xmlns:sodipodi="http://sodipodi.sourceforge.net/DTD/sodipodi-0.dtd"
   xmlns="http://www.w3.org/2000/svg"
   xmlns:svg="http://www.w3.org/2000/svg">
  <sodipodi:namedview
     id="namedview5988"
     pagecolor="#ffffff"
     bordercolor="#666666"
     borderopacity="1.0"
     inkscape:showpageshadow="2"
     inkscape:pageopacity="0.0"
     inkscape:pagecheckerboard="0"
     inkscape:deskcolor="#d1d1d1"
     inkscape:document-units="pt"
     showgrid="false"
     inkscape:zoom="31.121212"
     inkscape:cx="109.12171"
     inkscape:cy="114.48783"
     inkscape:window-width="3840"
     inkscape:window-height="2066"
     inkscape:window-x="3829"
     inkscape:window-y="-11"
     inkscape:window-maximized="1"
     inkscape:current-layer="svg5986" />
  <defs
     id="defs724">
    <clipPath
       id="clip-0">
      <path
         clip-rule="nonzero"
         d="m 425.64062,371.51953 h 93.96094 v 76.44141 h -93.96094 z m 0,0"
         id="path718" />
    </clipPath>
    <clipPath
       id="clip-1">
      <path
         clip-rule="nonzero"
         d="m 425.64062,439 h 93.96094 v 8.96094 h -93.96094 z m 0,0"
         id="path721" />
    </clipPath>
  </defs>
  <g
     clip-path="url(#clip-0)"
     id="g758"
     transform="translate(-407.76172,-357.23828)">
    <path
       fill="none"
       stroke-width="5"
       stroke-linecap="butt"
       stroke-linejoin="miter"
       stroke="#4e79a7"
       stroke-opacity="1"
       stroke-miterlimit="10"
       d="m 3547.0052,3731.9987 55.9896,-4.0039 55.9896,-8.0078 56.0221,-7.9753 55.9896,-12.0117 55.9896,-15.0065 56.0221,-18.9779 55.9896,-16.0156 55.9896,-40.0065 56.0221,-43.0013 55.9896,-66.9922 55.013,-43.0013 55.9896,-76.9857 55.9896,-145.0195 56.0221,-138.9974"
       transform="scale(0.12)"
       id="path756" />
  </g>
  <path
     fill-rule="nonzero"
     fill="#4e79a7"
     fill-opacity="1"
     d="m 64.558591,24.839839 -0.12109,-0.23828 c -0.23828,0 -0.59766,0 -0.83985,0 -0.35937,0 -0.59765,0 -0.96093,0 v 0.23828 h 0.60156 c 0.23828,0 0.23828,0.1211 0.23828,0.36329 v 0.71875 c 0,0.12109 0,0.23828 0,0.35937 -0.11719,0.12109 -0.47656,0.24219 -0.95703,0.24219 -1.5625,0 -2.51953,-1.08203 -2.51953,-2.64063 0,-1.4414 0.83984,-2.28125 2.27734,-2.28125 0.35938,0 0.72266,0.1211 0.96094,0.23828 0.48047,0.1211 0.60156,0.24219 0.60156,0.48047 v 0.48047 h 0.23828 c 0,-0.35937 0.1211,-0.71875 0.1211,-1.19922 -0.72266,-0.23828 -1.19922,-0.23828 -1.80078,-0.23828 -1.92188,0 -3.1211,1.07813 -3.1211,2.75781 0,0.71875 0.24219,1.44141 0.72266,1.80079 0.47656,0.60156 1.3164,0.83984 2.16015,0.83984 0.47657,0 1.07813,-0.12109 2.03907,-0.35938 v -1.19921 c 0,-0.24219 0,-0.36329 0.11718,-0.36329 z m 0,0"
     id="path760" />
  <path
     fill-rule="nonzero"
     fill="#4e79a7"
     fill-opacity="1"
     d="m 67.558591,23.160159 c -0.12109,0 -0.24219,0 -0.35937,0 -0.24219,0 -0.48047,0.12109 -0.60157,0.24218 l -0.35937,0.48047 v -0.72265 h -0.12109 c -0.35938,0.12109 -0.71875,0.24218 -1.19922,0.24218 v 0.23829 h 0.35937 c 0.24219,0 0.24219,0 0.24219,0.60156 v 1.67969 c 0,0.35937 0,0.48046 -0.24219,0.48046 h -0.35937 v 0.23829 c 0.35937,0 0.60156,0 0.96093,0 0.35938,0 0.71875,0 1.07813,0 v -0.23829 h -0.35938 c -0.35937,0 -0.35937,0 -0.35937,-0.48046 v -1.32032 c 0,-0.48047 0.23828,-0.83984 0.60156,-0.83984 0.23828,0 0.35938,0.12109 0.47656,0.35937 h 0.24219 z m 0,0"
     id="path762" />
  <path
     fill-rule="nonzero"
     fill="#4e79a7"
     fill-opacity="1"
     d="m 71.160151,26.640629 v -0.23829 h -0.36328 c -0.11718,0 -0.11718,0 -0.11718,-0.35937 v -1.44141 c 0,-1.07812 -0.36329,-1.4414 -1.20313,-1.4414 -0.35937,0 -0.59766,0 -0.95703,0.24218 l -0.35938,0.23829 v 0.48046 h 0.23829 v -0.23828 c 0.23828,-0.35937 0.23828,-0.35937 0.60156,-0.35937 0.71875,0 1.07812,0.23828 1.07812,0.95703 l -0.71875,0.12109 c -1.08203,0.23828 -1.4414,0.60157 -1.4414,1.19922 0,0.60156 0.24218,0.96094 0.83984,0.96094 0.24219,0 0.35938,-0.12109 0.35938,-0.12109 l 0.96093,-0.59766 -0.12109,0.59766 c 0.24219,0 0.48047,0 0.60156,0 0.23828,0 0.35938,0 0.60156,0 z m -1.08203,-0.95704 c -0.23828,0.35938 -0.71875,0.59766 -0.96093,0.59766 -0.35938,0 -0.59766,-0.23828 -0.59766,-0.59766 0,-0.24218 0.11719,-0.48046 0.35937,-0.72265 0.23829,0 0.59766,-0.1211 1.19922,-0.23828 z m 0,0"
     id="path764" />
  <path
     fill-rule="nonzero"
     fill="#4e79a7"
     fill-opacity="1"
     d="m 75.718751,26.640629 v -0.23829 h -0.35938 c -0.24218,0 -0.24218,-0.12109 -0.24218,-0.48046 v -4.67969 h -0.11719 c -0.36328,0.12109 -0.60156,0.12109 -1.20313,0.23828 v 0.24219 h 0.48047 c 0.1211,0 0.1211,0 0.1211,0.23828 v 1.4414 c -0.35938,-0.24218 -0.60157,-0.24218 -0.83985,-0.24218 -0.24219,0 -0.35937,0 -0.60156,0.12109 l -0.59766,0.35938 c -0.48047,0.24218 -0.72265,0.72265 -0.72265,1.32031 0,0.60156 0.24218,1.19922 0.60156,1.4414 0.23828,0.23829 0.60156,0.35938 1.07812,0.35938 0.1211,0 0.24219,-0.12109 0.36329,-0.12109 l 0.83984,-0.71875 -0.12109,0.71875 c 0.23828,0 0.35937,0 0.60156,0 0.23828,0 0.47656,0 0.71875,0 z m -1.32031,-1.67969 c 0,0.48047 0,0.60156 -0.1211,0.72265 -0.11719,0.35938 -0.48047,0.59766 -0.83984,0.59766 -0.71875,0 -1.19922,-0.59766 -1.19922,-1.55859 0,-0.72266 0.48047,-1.19922 1.07812,-1.19922 0.36329,0 0.60157,0 0.84375,0.23828 0.23829,0.12109 0.23829,0.23828 0.23829,0.23828 z m 0,0"
     id="path766" />
  <path
     fill-rule="nonzero"
     fill="#4e79a7"
     fill-opacity="1"
     d="m 78.000001,26.640629 v -0.23829 h -0.36328 c -0.23828,0 -0.35938,-0.12109 -0.35938,-0.48046 v -2.76172 c -0.35937,0.12109 -0.83984,0.24218 -1.19922,0.24218 v 0.23829 h 0.23828 c 0.36329,0 0.36329,0 0.36329,0.60156 v 1.67969 c 0,0.35937 0,0.48046 -0.24219,0.48046 h -0.35938 v 0.23829 c 0.35938,0 0.60157,0 0.96094,0 0.23828,0 0.59766,0 0.96094,0 z m -0.60156,-4.80079 c 0,-0.23828 -0.1211,-0.35937 -0.35938,-0.35937 -0.24219,0 -0.35937,0.12109 -0.35937,0.35937 0,0.24219 0.11718,0.36329 0.35937,0.36329 0.23828,0 0.35938,-0.1211 0.35938,-0.36329 z m 0,0"
     id="path768" />
  <path
     fill-rule="nonzero"
     fill="#4e79a7"
     fill-opacity="1"
     d="m 81.476561,24.601559 c 0,-0.96093 -0.59766,-1.4414 -1.4375,-1.4414 -0.24219,0 -0.60156,0.12109 -0.83984,0.24218 -0.60157,0.35938 -0.96094,0.83985 -0.96094,1.5586 0,0.48047 0.12109,0.96094 0.35937,1.19922 0.24219,0.36328 0.83985,0.60156 1.32032,0.60156 0.35937,0 0.60156,0 0.96093,-0.12109 0.1211,-0.11719 0.35938,-0.23829 0.35938,-0.23829 l 0.12109,-0.24218 -0.12109,-0.11719 c -0.48047,0.23828 -0.60156,0.35937 -0.96094,0.35937 -0.48047,0 -0.83984,-0.24218 -1.07812,-0.60156 -0.1211,-0.23828 -0.24219,-0.48047 -0.24219,-0.83984 h 1.08203 c 0.59766,0 0.83984,-0.1211 1.4375,-0.1211 0,-0.11718 0,-0.23828 0,-0.23828 z m -0.71875,0 h -0.83984 c -0.35938,0 -0.48047,0 -0.96094,0 0,-0.35937 0.12109,-0.48047 0.12109,-0.71875 0.23828,-0.35937 0.48047,-0.48047 0.83985,-0.48047 0.24218,0 0.48047,0.1211 0.60156,0.23829 0.23828,0.24218 0.23828,0.48046 0.23828,0.96093 z m 0,0"
     id="path770" />
  <path
     fill-rule="nonzero"
     fill="#4e79a7"
     fill-opacity="1"
     d="m 85.917971,26.640629 v -0.23829 h -0.23828 c -0.24219,0 -0.36329,0 -0.36329,-0.48046 v -1.44141 c 0,-0.95703 -0.35937,-1.32031 -1.19921,-1.32031 -0.23829,0 -0.48047,0 -0.59766,0.12109 l -0.60156,0.48047 v -0.60156 c -0.35938,0.12109 -0.83985,0.24218 -1.19922,0.24218 v 0.23829 h 0.23828 c 0.35937,0 0.35937,0 0.35937,0.60156 v 1.67969 c 0,0.35937 0,0.48046 -0.23828,0.48046 h -0.35937 v 0.23829 c 0.35937,0 0.59765,0 0.96094,0 0.23828,0 0.59765,0 0.83984,0 v -0.23829 h -0.24219 c -0.23828,0 -0.35937,-0.12109 -0.35937,-0.48046 v -1.67969 c 0,-0.24219 0.48047,-0.60156 0.96093,-0.60156 0.48047,0 0.83985,0.35937 0.83985,0.83984 v 2.16016 c 0.23828,0 0.35937,0 0.59765,0 0.24219,0 0.48047,0 0.60157,0 z m 0,0"
     id="path772" />
  <path
     fill-rule="nonzero"
     fill="#4e79a7"
     fill-opacity="1"
     d="m 88.437501,23.402339 h -1.07813 v -0.24218 c 0,-0.35938 0,-0.59766 0.11719,-1.07813 l -0.11719,-0.12109 c -0.12109,0.12109 -0.35937,0.24219 -0.60156,0.35937 0,0.1211 0,0.36328 0,0.60157 v 0.48046 l -0.59766,0.23829 v 0.12109 h 0.59766 v 2.16016 c 0,0.60156 0.24219,0.83984 0.83984,0.83984 0.1211,0 0.35938,-0.12109 0.35938,-0.12109 l 0.35937,-0.35938 -0.11718,-0.12109 c -0.1211,0 -0.24219,0.12109 -0.35938,0.12109 -0.36328,0 -0.48047,-0.23828 -0.48047,-0.59766 v -1.92187 h 0.95703 z m 0,0"
     id="path774" />
  <path
     fill-rule="nonzero"
     fill="#4e79a7"
     fill-opacity="1"
     d="m 92.878901,21.839839 v -0.59765 c -0.12109,0 -0.24218,0 -0.35937,0 -0.24219,0 -0.48047,0.12109 -0.60156,0.23828 l -0.48047,0.48047 c -0.23828,0.24219 -0.35938,0.60156 -0.35938,1.08203 v 0.35937 l -0.48047,0.23829 v 0.12109 h 0.48047 v 2.16016 c 0,0.35937 0,0.48046 -0.23828,0.48046 h -0.36328 v 0.23829 c 0.36328,0 0.60156,0 0.96094,0 0.35937,0 0.60156,0 0.96094,0 v -0.23829 h -0.35938 c -0.24219,0 -0.24219,-0.12109 -0.24219,-0.48046 v -2.16016 h 0.83985 l 0.12109,-0.35938 c -0.35937,0 -0.71875,0 -0.96094,0 v -0.60156 c 0,-0.96094 0,-1.07812 0.48047,-1.07812 0.24219,0 0.35938,0 0.48047,0.11718 z m 0,0"
     id="path776" />
  <path
     fill-rule="nonzero"
     fill="#4e79a7"
     fill-opacity="1"
     d="m 95.636721,23.160159 c -0.11719,0 -0.23828,0 -0.35938,0 -0.23828,0 -0.48047,0.12109 -0.59765,0.24218 l -0.48047,0.48047 v -0.72265 c -0.48047,0.12109 -0.83985,0.24218 -1.19922,0.24218 v 0.23829 h 0.23828 c 0.35937,0 0.35937,0 0.35937,0.60156 v 1.67969 c 0,0.35937 0,0.48046 -0.23828,0.48046 h -0.35937 v 0.23829 c 0.23828,0 0.59765,0 0.83984,0 0.35938,0 0.71875,0 1.07813,0 v -0.23829 h -0.35938 c -0.35937,0 -0.35937,0 -0.35937,-0.48046 v -1.32032 c 0,-0.48047 0.35937,-0.83984 0.71875,-0.83984 0.24218,0 0.35937,0.12109 0.48047,0.35937 h 0.12109 z m 0,0"
     id="path778" />
  <path
     fill-rule="nonzero"
     fill="#4e79a7"
     fill-opacity="1"
     d="m 99.117191,24.601559 c 0,-0.96093 -0.59766,-1.4414 -1.4375,-1.4414 -0.24219,0 -0.60157,0.12109 -0.83985,0.24218 -0.60156,0.35938 -0.83984,0.83985 -0.83984,1.5586 0,0.48047 0.11719,0.96094 0.23828,1.19922 0.35937,0.36328 0.83984,0.60156 1.44141,0.60156 0.23828,0 0.48046,0 0.83984,-0.12109 0.11719,-0.11719 0.35937,-0.23829 0.35937,-0.23829 l 0.1211,-0.24218 -0.1211,-0.11719 c -0.48046,0.23828 -0.60156,0.35937 -0.96093,0.35937 -0.48047,0 -0.83985,-0.24218 -1.07813,-0.60156 -0.12109,-0.23828 -0.12109,-0.48047 -0.24219,-0.83984 h 1.19922 c 0.48047,0 0.83985,-0.1211 1.32032,-0.1211 0,-0.11718 0,-0.23828 0,-0.23828 z m -0.71875,0 h -0.83985 c -0.24219,0 -0.48047,0 -0.83984,0 0,-0.35937 0,-0.48047 0.12109,-0.71875 0.11719,-0.35937 0.47656,-0.48047 0.83985,-0.48047 0.23828,0 0.35937,0.1211 0.48046,0.23829 0.23829,0.24218 0.23829,0.48046 0.23829,0.96093 z m 0,0"
     id="path780" />
  <path
     fill-rule="nonzero"
     fill="#4e79a7"
     fill-opacity="1"
     d="m 102.71875,24.601559 c 0,-0.96093 -0.60156,-1.4414 -1.44141,-1.4414 -0.23828,0 -0.59765,0.12109 -0.83984,0.24218 -0.597659,0.35938 -0.839849,0.83985 -0.839849,1.5586 0,0.48047 0,0.96094 0.24219,1.19922 0.359379,0.36328 0.839849,0.60156 1.320309,0.60156 0.35938,0 0.59766,0 0.95704,-0.12109 0.12109,-0.11719 0.35937,-0.23829 0.35937,-0.23829 l 0.12109,-0.24218 -0.12109,-0.11719 c -0.47656,0.23828 -0.59766,0.35937 -0.95703,0.35937 -0.48047,0 -0.83984,-0.24218 -1.08203,-0.60156 -0.1211,-0.23828 -0.23828,-0.48047 -0.23828,-0.83984 h 1.07812 c 0.60156,0 0.83985,-0.1211 1.44141,-0.1211 0,-0.11718 0,-0.23828 0,-0.23828 z m -0.71875,0 h -0.83985 c -0.36328,0 -0.48046,0 -0.96093,0 0,-0.35937 0.11718,-0.48047 0.11718,-0.71875 0.24219,-0.35937 0.48047,-0.48047 0.84375,-0.48047 0.35938,0 0.47657,0.1211 0.59766,0.23829 C 102,23.882809 102,24.121089 102,24.601559 Z m 0,0"
     id="path782" />
  <g
     clip-path="url(#clip-1)"
     id="g786"
     transform="translate(-407.76172,-357.23828)">
    <path
       fill="none"
       stroke-width="5"
       stroke-linecap="butt"
       stroke-linejoin="miter"
       stroke="#e15759"
       stroke-opacity="1"
       stroke-miterlimit="10"
       d="m 3547.0052,3733.0078 h 55.9896 l 55.9896,-1.0091 h 168.0013 l 56.0221,-1.0091 h 334.9935 l 55.9896,-0.9766 h 56.0221"
       transform="scale(0.12)"
       id="path784" />
  </g>
  <path
     fill-rule="nonzero"
     fill="#e15759"
     fill-opacity="1"
     d="m 65.636721,85.562499 -0.11719,-0.12109 c -0.24219,0 -0.60156,0 -0.83984,0 -0.36329,0 -0.60157,0 -0.96094,0 v 0.24218 h 0.59765 c 0.24219,0 0.24219,0.11719 0.24219,0.23829 v 0.71875 c 0,0.24218 0,0.35937 0,0.35937 -0.12109,0.12109 -0.48047,0.24219 -1.08203,0.24219 -1.4375,0 -2.39844,-0.96094 -2.39844,-2.51953 0,-1.44141 0.83985,-2.28125 2.28125,-2.28125 0.35938,0 0.71875,0 0.95703,0.12109 0.48047,0.12109 0.60157,0.35938 0.60157,0.59766 v 0.36328 h 0.24218 c 0,-0.36328 0,-0.72266 0.11719,-1.08203 -0.83984,-0.23828 -1.19922,-0.35938 -1.80078,-0.35938 -1.91797,0 -3.11719,1.19922 -3.11719,2.75781 0,0.84375 0.23828,1.44141 0.71875,1.92188 0.48047,0.48047 1.32032,0.83984 2.16016,0.83984 0.48047,0 1.07812,-0.12109 2.03906,-0.35937 v -1.32031 c 0,-0.23829 0,-0.23829 0.1211,-0.23829 z m 0,0"
     id="path788" />
  <path
     fill-rule="nonzero"
     fill="#e15759"
     fill-opacity="1"
     d="m 68.636721,83.999999 c -0.11719,0 -0.23828,-0.11719 -0.35938,-0.11719 -0.23828,0 -0.48047,0.11719 -0.59765,0.35938 l -0.48047,0.48047 v -0.83985 c -0.35938,0.23828 -0.83985,0.35938 -1.19922,0.35938 v 0.23828 h 0.23828 c 0.35937,0 0.35937,0 0.35937,0.48047 v 1.67969 c 0,0.48046 0,0.60156 -0.23828,0.60156 h -0.35937 v 0.23828 c 0.35937,0 0.59765,0 0.95703,0 0.35937,0 0.72266,0 1.08203,0 v -0.23828 h -0.48047 c -0.24219,0 -0.35937,-0.1211 -0.35937,-0.60156 v -1.19922 c 0,-0.48047 0.35937,-0.83985 0.71875,-0.83985 0.24218,0 0.35937,0.1211 0.48047,0.35938 h 0.12109 z m 0,0"
     id="path790" />
  <path
     fill-rule="nonzero"
     fill="#e15759"
     fill-opacity="1"
     d="m 72.238281,87.480469 v -0.23828 h -0.35938 c -0.12109,0 -0.12109,-0.1211 -0.12109,-0.48047 v -1.32031 c 0,-1.07813 -0.35937,-1.5586 -1.19922,-1.5586 -0.35937,0 -0.60156,0.11719 -0.96094,0.23828 l -0.35937,0.24219 v 0.59766 h 0.12109 l 0.11719,-0.23828 c 0.24219,-0.35938 0.24219,-0.35938 0.60156,-0.35938 0.71875,0 0.96094,0.23828 1.08203,0.95703 l -0.84375,0.1211 c -0.95703,0.12109 -1.4375,0.48047 -1.4375,1.19922 0,0.60156 0.35938,0.83984 0.96094,0.83984 0.11719,0 0.23828,0 0.35938,0 l 0.96093,-0.71875 -0.12109,0.71875 c 0.23828,0 0.35938,0 0.59766,0 0.24218,0 0.36328,0 0.60156,0 z m -1.07813,-0.95703 c -0.24218,0.23828 -0.72265,0.59765 -1.08203,0.59765 -0.23828,0 -0.48047,-0.35937 -0.48047,-0.59765 0,-0.36328 0.1211,-0.60156 0.35938,-0.72266 0.12109,-0.11719 0.60156,-0.23828 1.20312,-0.23828 z m 0,0"
     id="path792" />
  <path
     fill-rule="nonzero"
     fill="#e15759"
     fill-opacity="1"
     d="m 76.796871,87.480469 v -0.23828 h -0.35937 c -0.23828,0 -0.35938,-0.1211 -0.35938,-0.60156 v -4.67969 c -0.35937,0.12109 -0.60156,0.24219 -1.19922,0.35937 v 0.1211 h 0.48047 c 0.11719,0 0.11719,0.12109 0.11719,0.35937 v 1.32031 c -0.35937,-0.12109 -0.59766,-0.23828 -0.83984,-0.23828 -0.23828,0 -0.35938,0.11719 -0.59766,0.23828 l -0.60156,0.24219 c -0.48047,0.23828 -0.71875,0.83985 -0.71875,1.4375 0,0.60156 0.12109,1.08203 0.48047,1.44141 0.35937,0.23828 0.59765,0.23828 1.19922,0.23828 0.12109,0 0.23828,0 0.23828,0 l 0.83984,-0.71875 v 0.71875 c 0.24219,0 0.36328,0 0.60156,0 0.23828,0 0.48047,0 0.71875,0 z m -1.32031,-1.67969 c 0,0.48047 0,0.48047 -0.11719,0.72266 -0.24218,0.35937 -0.60156,0.59765 -0.83984,0.59765 -0.72266,0 -1.20313,-0.71875 -1.20313,-1.55859 0,-0.83984 0.36329,-1.32031 1.08204,-1.32031 0.23828,0 0.60156,0.12109 0.83984,0.35937 0.12109,0 0.23828,0.1211 0.23828,0.23828 z m 0,0"
     id="path794" />
  <path
     fill-rule="nonzero"
     fill="#e15759"
     fill-opacity="1"
     d="m 78.957031,87.480469 v -0.23828 h -0.23828 c -0.35938,0 -0.35938,-0.1211 -0.35938,-0.60156 v -2.75782 c -0.35937,0.23828 -0.83984,0.35938 -1.19922,0.35938 v 0.23828 h 0.23829 c 0.35937,0 0.35937,0 0.35937,0.48047 v 1.67969 c 0,0.48046 0,0.60156 -0.23828,0.60156 h -0.35938 v 0.23828 c 0.23829,0 0.59766,0 0.95704,0 0.24218,0 0.60156,0 0.83984,0 z m -0.48047,-4.79688 c 0,-0.24218 -0.11719,-0.36328 -0.35937,-0.36328 -0.23829,0 -0.35938,0.1211 -0.35938,0.36328 0,0.23829 0.12109,0.35938 0.35938,0.35938 0.24218,0 0.35937,-0.12109 0.35937,-0.35938 z m 0,0"
     id="path796" />
  <path
     fill-rule="nonzero"
     fill="#e15759"
     fill-opacity="1"
     d="m 82.558591,85.320309 c 0,-0.83984 -0.60156,-1.4375 -1.4414,-1.4375 -0.23829,0 -0.59766,0.11719 -0.95704,0.35938 -0.60156,0.35937 -0.84375,0.71875 -0.84375,1.55859 0,0.48047 0.1211,0.83985 0.36329,1.19922 0.23828,0.36328 0.83984,0.60156 1.32031,0.60156 0.35937,0 0.59765,-0.12109 0.83984,-0.23828 0.23828,0 0.35938,-0.12109 0.47656,-0.24219 l 0.1211,-0.23828 h -0.1211 c -0.47656,0.23828 -0.59765,0.35938 -0.95703,0.35938 -0.48047,0 -0.83984,-0.24219 -1.08203,-0.60156 -0.11719,-0.23829 -0.23828,-0.48047 -0.23828,-0.95704 h 1.07813 c 0.48046,0 0.83984,0 1.32031,-0.12109 0,0 0.12109,-0.12109 0.12109,-0.24219 z m -0.71875,0.1211 h -0.83984 c -0.36328,0 -0.48047,0 -0.96094,0 0,-0.35938 0,-0.60157 0.12109,-0.71875 0.23829,-0.35938 0.47657,-0.60157 0.83985,-0.60157 0.23828,0 0.47656,0.1211 0.59765,0.35938 0.1211,0.24219 0.24219,0.48047 0.24219,0.96094 z m 0,0"
     id="path798" />
  <path
     fill-rule="nonzero"
     fill="#e15759"
     fill-opacity="1"
     d="m 87.000001,87.480469 v -0.23828 h -0.24219 c -0.35937,0 -0.35937,-0.1211 -0.35937,-0.60156 v -1.4375 c 0,-0.83985 -0.35938,-1.32032 -1.19922,-1.32032 -0.24219,0 -0.48047,0.11719 -0.60157,0.23828 l -0.59765,0.48047 v -0.71875 c -0.48047,0.23828 -0.83985,0.35938 -1.20313,0.35938 v 0.23828 h 0.24219 c 0.35938,0 0.35938,0 0.35938,0.48047 v 1.67969 c 0,0.48046 0,0.60156 -0.23829,0.60156 h -0.36328 v 0.23828 c 0.24219,0 0.60157,0 0.96094,0 0.24219,0 0.60156,0 0.83984,0 v -0.23828 h -0.35937 c -0.23828,0 -0.23828,-0.1211 -0.23828,-0.60156 v -1.5586 c 0,-0.35937 0.47656,-0.71875 0.95703,-0.71875 0.48047,0 0.83984,0.35938 0.83984,0.95703 v 2.16016 c 0.24219,0 0.36328,0 0.60157,0 0.23828,0 0.35937,0 0.60156,0 z m 0,0"
     id="path800" />
  <path
     fill-rule="nonzero"
     fill="#e15759"
     fill-opacity="1"
     d="m 89.519531,84.121089 -1.08203,0.1211 v -0.35938 c 0,-0.24218 0,-0.48047 0.12109,-0.96093 l -0.12109,-0.1211 c -0.23828,0.1211 -0.35938,0.24219 -0.59766,0.24219 0,0.23828 0,0.35937 0,0.59766 v 0.60156 l -0.60156,0.23828 v 0.12109 h 0.60156 v 2.16016 c 0,0.48047 0.23828,0.71875 0.83985,0.71875 0.11718,0 0.35937,0 0.35937,0 l 0.35938,-0.48047 -0.1211,-0.11719 c -0.11719,0.11719 -0.23828,0.11719 -0.48047,0.11719 -0.23828,0 -0.35937,-0.11719 -0.35937,-0.47656 v -1.92188 h 0.96094 z m 0,0"
     id="path802" />
  <path
     fill-rule="nonzero"
     fill="#e15759"
     fill-opacity="1"
     d="m 95.160151,85.441409 c 0,-0.83985 -0.48046,-1.5586 -1.32031,-1.5586 -0.36328,0 -0.72265,0.23828 -0.96094,0.35938 l -0.35937,0.48047 v -2.64063 l -0.12109,-0.12109 c -0.23829,0.12109 -0.48047,0.24219 -1.08204,0.35937 v 0.1211 h 0.36329 c 0.11718,0 0.23828,0.12109 0.23828,0.35937 v 3.48047 c 0,0.48047 0,0.71875 -0.1211,1.19922 h 0.1211 l 0.35937,-0.23828 c 0.24219,0.23828 0.48047,0.23828 0.96094,0.23828 0.23828,0 0.48047,0 0.60156,-0.11719 l 0.71875,-0.60156 c 0.35938,-0.23828 0.60156,-0.83984 0.60156,-1.32031 z m -0.60156,0.24218 c 0,0.83985 -0.48047,1.4375 -1.08203,1.4375 -0.35937,0 -0.95703,-0.23828 -0.95703,-0.35937 v -1.67969 c 0,0 0.11719,-0.24219 0.23828,-0.35937 0.12109,-0.24219 0.48047,-0.35938 0.71875,-0.35938 0.60156,0 1.08203,0.59766 1.08203,1.32031 z m 0,0"
     id="path804" />
  <path
     fill-rule="nonzero"
     fill="#e15759"
     fill-opacity="1"
     d="m 99.000001,87.480469 v -0.23828 h -0.24219 c -0.23828,0 -0.23828,-0.1211 -0.23828,-0.48047 v -1.32031 c 0,-1.07813 -0.24219,-1.5586 -1.20313,-1.5586 -0.23828,0 -0.59765,0.11719 -0.83984,0.23828 l -0.47656,0.24219 v 0.59766 h 0.23828 l 0.12109,-0.23828 c 0.11719,-0.35938 0.23828,-0.35938 0.59766,-0.35938 0.72266,0 0.96094,0.23828 0.96094,0.95703 l -0.71875,0.1211 c -0.96094,0.12109 -1.44141,0.48047 -1.44141,1.19922 0,0.60156 0.35938,0.83984 0.96094,0.83984 0.12109,0 0.23828,0 0.23828,0 l 0.96094,-0.71875 v 0.71875 c 0.12109,0 0.35937,0 0.60156,0 0.11719,0 0.35937,0 0.48047,0 z m -1.08203,-0.95703 c -0.23828,0.23828 -0.71875,0.59765 -0.96094,0.59765 -0.23828,0 -0.59766,-0.35937 -0.59766,-0.59765 0,-0.36328 0.23828,-0.60156 0.35938,-0.72266 0.23828,-0.11719 0.59765,-0.23828 1.19922,-0.23828 z m 0,0"
     id="path806" />
  <path
     fill-rule="nonzero"
     fill="#e15759"
     fill-opacity="1"
     d="m 102.11719,86.281249 c 0,-0.23828 0,-0.35937 -0.11719,-0.48047 -0.24219,-0.23828 -0.48047,-0.35937 -1.08203,-0.48047 -0.71875,-0.11718 -0.83985,-0.23828 -0.83985,-0.59765 0,-0.35938 0.23828,-0.60157 0.71875,-0.60157 0.48047,0 0.83985,0.35938 0.83985,0.71875 v 0.1211 h 0.24218 c 0,-0.48047 0,-0.59766 0,-0.83985 -0.35937,-0.12109 -0.60156,-0.23828 -0.96093,-0.23828 -0.83985,0 -1.441409,0.48047 -1.441409,1.07813 0,0.35937 0.24219,0.72265 0.601559,0.83984 0.1211,0.1211 0.60157,0.24219 1.08203,0.35938 0.35938,0 0.47657,0.12109 0.47657,0.48047 0,0.35937 -0.35938,0.72265 -0.95703,0.72265 -0.48047,0 -0.839849,-0.36328 -0.839849,-0.72265 v -0.23829 h -0.24219 c 0,0.48047 0,0.71875 -0.12109,0.96094 0.36328,0.11719 0.722659,0.23828 1.082029,0.23828 0.96094,0 1.5586,-0.60156 1.5586,-1.32031 z m 0,0"
     id="path808" />
  <path
     fill-rule="nonzero"
     fill="#e15759"
     fill-opacity="1"
     d="m 105.71875,85.320309 c 0,-0.83984 -0.48047,-1.4375 -1.32031,-1.4375 -0.23829,0 -0.60157,0.11719 -0.96094,0.35938 -0.59766,0.35937 -0.83985,0.71875 -0.83985,1.55859 0,0.48047 0.1211,0.83985 0.35938,1.19922 0.24219,0.36328 0.72266,0.60156 1.32031,0.60156 0.24219,0 0.60156,-0.12109 0.83985,-0.23828 0.24218,0 0.35937,-0.12109 0.35937,-0.24219 l 0.24219,-0.23828 h -0.1211 c -0.48046,0.23828 -0.59765,0.35938 -0.96093,0.35938 -0.47657,0 -0.95703,-0.24219 -1.07813,-0.60156 -0.12109,-0.23829 -0.24219,-0.48047 -0.24219,-0.95704 h 1.08204 c 0.48046,0 0.83984,0 1.32031,-0.12109 0,0 0,-0.12109 0,-0.24219 z m -0.60156,0.1211 h -0.83985 c -0.35937,0 -0.59765,0 -0.96094,0 0,-0.35938 0,-0.60157 0.1211,-0.71875 0.12109,-0.35938 0.48047,-0.60157 0.83984,-0.60157 0.24219,0 0.48047,0.1211 0.60156,0.35938 0.1211,0.24219 0.23829,0.48047 0.23829,0.96094 z m 0,0"
     id="path810" />
  <path
     fill-rule="nonzero"
     fill="#e15759"
     fill-opacity="1"
     d="m 110.27734,87.480469 v -0.23828 h -0.23828 c -0.35937,0 -0.35937,-0.1211 -0.35937,-0.60156 v -4.67969 c -0.36329,0.12109 -0.60157,0.24219 -1.20313,0.35937 v 0.1211 h 0.36328 c 0.23828,0 0.23828,0.12109 0.23828,0.35937 v 1.32031 c -0.35937,-0.12109 -0.60156,-0.23828 -0.83984,-0.23828 -0.23828,0 -0.48047,0.11719 -0.60156,0.23828 l -0.71875,0.24219 c -0.35938,0.23828 -0.60157,0.83985 -0.60157,1.4375 0,0.60156 0.1211,1.08203 0.48047,1.44141 0.24219,0.23828 0.60157,0.23828 1.08203,0.23828 0.23829,0 0.35938,0 0.35938,0 l 0.83984,-0.71875 v 0.71875 c 0.23828,0 0.35938,0 0.60157,0 0.23828,0 0.48046,0 0.59765,0 z m -1.19922,-1.67969 c 0,0.48047 0,0.48047 -0.12109,0.72266 -0.23828,0.35937 -0.59766,0.59765 -0.95703,0.59765 -0.60156,0 -1.08203,-0.71875 -1.08203,-1.55859 0,-0.83984 0.35937,-1.32031 1.08203,-1.32031 0.23828,0 0.59765,0.12109 0.83984,0.35937 0.11719,0 0.23828,0.1211 0.23828,0.23828 z m 0,0"
     id="path812" />
  <path
     fill="none"
     stroke-width="0.12"
     stroke-linecap="round"
     stroke-linejoin="round"
     stroke="#808080"
     stroke-opacity="1"
     stroke-miterlimit="10"
     d="m 44.757811,92.281249 v -3.12109"
     id="path814"
     style="fill:#ffffff;fill-opacity:1;stroke:#ffffff;stroke-opacity:1" />
  <path
     fill="none"
     stroke-width="0.12"
     stroke-linecap="round"
     stroke-linejoin="round"
     stroke="#808080"
     stroke-opacity="1"
     stroke-miterlimit="10"
     d="m 78.359371,92.281249 v -3.12109"
     id="path816"
     style="fill:#ffffff;fill-opacity:1;stroke:#ffffff;stroke-opacity:1" />
  <path
     fill="none"
     stroke-width="0.12"
     stroke-linecap="round"
     stroke-linejoin="round"
     stroke="#808080"
     stroke-opacity="1"
     stroke-miterlimit="10"
     d="m 111.83984,92.281249 v -3.12109"
     id="path818"
     style="fill:#ffffff;fill-opacity:1;stroke:#ffffff;stroke-opacity:1" />
  <path
     fill="none"
     stroke-width="0.12"
     stroke-linecap="round"
     stroke-linejoin="round"
     stroke="#808080"
     stroke-opacity="1"
     stroke-miterlimit="10"
     d="m 16.316401,67.203129 h 3.24219"
     id="path820"
     style="fill:#ffffff;fill-opacity:1;stroke:#ffffff;stroke-opacity:1" />
  <path
     fill="none"
     stroke-width="0.12"
     stroke-linecap="round"
     stroke-linejoin="round"
     stroke="#808080"
     stroke-opacity="1"
     stroke-miterlimit="10"
     d="m 16.316401,43.683599 h 3.24219"
     id="path822"
     style="fill:#ffffff;fill-opacity:1;stroke:#ffffff;stroke-opacity:1" />
  <path
     fill="none"
     stroke-width="0.12"
     stroke-linecap="round"
     stroke-linejoin="round"
     stroke="#808080"
     stroke-opacity="1"
     stroke-miterlimit="10"
     d="m 16.316401,20.042969 h 3.24219"
     id="path824"
     style="fill:#ffffff;fill-opacity:1;stroke:#ffffff;stroke-opacity:1" />
  <path
     fill="none"
     stroke-width="0.24"
     stroke-linecap="butt"
     stroke-linejoin="miter"
     stroke="#79706e"
     stroke-opacity="1"
     stroke-miterlimit="10"
     d="M 17.878905,90.722655 H 108.83984"
     id="path826"
     style="fill:#ffffff;fill-opacity:1;stroke:#ffffff;stroke-opacity:1" />
  <path
     fill-rule="nonzero"
     fill="#79706e"
     fill-opacity="1"
     stroke-width="0.24"
     stroke-linecap="butt"
     stroke-linejoin="miter"
     stroke="#79706e"
     stroke-opacity="1"
     stroke-miterlimit="10"
     d="m 111.47656,90.722655 -3.83984,-1.441404 1.32031,1.441404 -1.32031,1.437504 z m 0,0"
     id="path828"
     style="fill:#ffffff;fill-opacity:1;stroke:#ffffff;stroke-opacity:1" />
  <path
     fill="none"
     stroke-width="0.24"
     stroke-linecap="butt"
     stroke-linejoin="miter"
     stroke="#79706e"
     stroke-opacity="1"
     stroke-miterlimit="10"
     d="M 17.878905,90.722655 V 17.402343"
     id="path830"
     style="fill:#ffffff;fill-opacity:1;stroke:#ffffff;stroke-opacity:1" />
  <path
     fill-rule="nonzero"
     fill="#79706e"
     fill-opacity="1"
     stroke-width="0.24"
     stroke-linecap="butt"
     stroke-linejoin="miter"
     stroke="#79706e"
     stroke-opacity="1"
     stroke-miterlimit="10"
     d="m 17.878905,14.761719 -1.320312,3.718752 1.320312,-1.19922 1.437504,1.19922 z m 0,0"
     id="path832"
     style="fill:#ffffff;fill-opacity:1;stroke:#ffffff;stroke-opacity:1" />
  <path
     fill-rule="nonzero"
     fill="#79706e"
     fill-opacity="1"
     d="m 44.277341,99.121089 v -0.23828 h -0.35937 c -0.23828,0 -0.35938,-0.12109 -0.35938,-0.35937 v -3.60156 h -0.12109 c -0.35938,0.23828 -0.71875,0.35937 -1.32031,0.60156 v 0.23828 h 0.12109 l 0.71875,-0.35938 h 0.12109 c 0,0 0,0 0,0.23829 v 2.88281 c 0,0.23828 -0.12109,0.35937 -0.35937,0.35937 h -0.35938 v 0.23828 c 0.35938,0 0.59766,0 0.95703,0 0.36329,0 0.60157,0 0.96094,0 z m 0,0"
     id="path834"
     style="fill:#ffffff;fill-opacity:1" />
  <path
     fill-rule="nonzero"
     fill="#79706e"
     fill-opacity="1"
     d="m 47.519531,96.839839 c 0,-1.3164 -0.35938,-1.91796 -1.20313,-1.91796 -0.95703,0 -1.3164,0.71875 -1.3164,2.16015 0,0.71875 0.11719,1.32031 0.23828,1.67969 0.23828,0.23828 0.60156,0.48047 0.96094,0.48047 0.83984,0 1.32031,-0.83985 1.32031,-2.40235 z m -0.48047,0.36329 c 0,1.19921 -0.24219,1.79687 -0.72266,1.79687 -0.59765,0 -0.83984,-0.59766 -0.83984,-2.03906 0,-1.32031 0.24219,-1.80078 0.72266,-1.80078 0.59765,0 0.83984,0.60156 0.83984,2.04297 z m 0,0"
     id="path836"
     style="fill:#ffffff;fill-opacity:1" />
  <path
     fill-rule="nonzero"
     fill="#79706e"
     fill-opacity="1"
     d="m 78.117191,99.121089 c 0,-0.12109 0,-0.23828 0,-0.35937 0,0 0,-0.12109 0,-0.23828 l -2.03907,0.11719 1.08203,-1.19922 c 0.59766,-0.60157 0.71875,-0.96094 0.71875,-1.44141 0,-0.59766 -0.48046,-1.07812 -1.19921,-1.07812 -0.48047,0 -0.72266,0.12109 -1.08204,0.48046 v 0.71875 h 0.1211 l 0.12109,-0.23828 c 0.11719,-0.35937 0.23828,-0.48047 0.71875,-0.48047 0.48047,0 0.83985,0.35938 0.83985,0.83985 0,0.48047 -0.23829,0.83984 -0.96094,1.55859 l -1.07813,1.08203 v 0.23828 c 0.48047,0 0.95703,0 1.4375,0 0.36328,0 0.83985,0 1.32032,0 z m 0,0"
     id="path838"
     style="fill:#ffffff;fill-opacity:1" />
  <path
     fill-rule="nonzero"
     fill="#79706e"
     fill-opacity="1"
     d="m 81.117191,96.839839 c 0,-1.3164 -0.35938,-1.91796 -1.19922,-1.91796 -0.96094,0 -1.44141,0.71875 -1.44141,2.16015 0,0.71875 0.12109,1.32031 0.36328,1.67969 0.23828,0.23828 0.47656,0.48047 0.83985,0.48047 0.95703,0 1.4375,-0.83985 1.4375,-2.40235 z m -0.48047,0.36329 c 0,1.19921 -0.23828,1.79687 -0.83985,1.79687 -0.59765,0 -0.83984,-0.59766 -0.83984,-2.03906 0,-1.32031 0.24219,-1.80078 0.83984,-1.80078 0.60157,0 0.83985,0.60156 0.83985,2.04297 z m 0,0"
     id="path840"
     style="fill:#ffffff;fill-opacity:1" />
  <path
     fill-rule="nonzero"
     fill="#79706e"
     fill-opacity="1"
     d="m 111.59765,97.683589 c 0,-0.24218 -0.12109,-0.48046 -0.35937,-0.60156 -0.12109,-0.12109 -0.23828,-0.24219 -0.48047,-0.24219 0.48047,-0.35937 0.60156,-0.59765 0.60156,-0.95703 0,-0.60156 -0.48047,-0.96093 -1.08203,-0.96093 -0.48047,0 -0.71875,0.12109 -0.96094,0.48046 l -0.23828,0.71875 h 0.23828 l 0.1211,-0.35937 c 0,-0.23828 0.35937,-0.35938 0.72265,-0.35938 0.35938,0 0.71875,0.23829 0.71875,0.59766 0,0.48047 -0.35937,0.83984 -0.83984,0.83984 0,0 -0.24219,0 -0.24219,0 v 0.36329 c 0.24219,-0.1211 0.36328,-0.1211 0.48047,-0.1211 0.48047,0 0.83985,0.35938 0.83985,0.83985 0,0.60156 -0.35938,0.96093 -0.95704,0.96093 -0.24218,0 -0.48046,0 -0.72265,-0.24218 -0.1211,-0.11719 -0.23828,-0.23829 -0.35938,-0.59766 l -0.12109,0.11719 c 0.12109,0.36328 0.12109,0.60156 0.24219,0.83984 0.23828,0.12109 0.59765,0.24219 0.71875,0.24219 0.48047,0 1.08203,-0.35938 1.4414,-0.71875 0.11719,-0.24219 0.23828,-0.48047 0.23828,-0.83985 z m 0,0"
     id="path842"
     style="fill:#ffffff;fill-opacity:1" />
  <path
     fill-rule="nonzero"
     fill="#79706e"
     fill-opacity="1"
     d="m 114.59765,96.839839 c 0,-1.3164 -0.35937,-1.91796 -1.19921,-1.91796 -0.96094,0 -1.32032,0.71875 -1.32032,2.16015 0,0.71875 0.1211,1.32031 0.23828,1.67969 0.24219,0.23828 0.60157,0.48047 0.96094,0.48047 0.83985,0 1.32031,-0.83985 1.32031,-2.40235 z m -0.48046,0.36329 c 0,1.19921 -0.23829,1.79687 -0.71875,1.79687 -0.60157,0 -0.83985,-0.59766 -0.83985,-2.03906 0,-1.32031 0.23828,-1.80078 0.71875,-1.80078 0.60156,0 0.83985,0.60156 0.83985,2.04297 z m 0,0"
     id="path844"
     style="fill:#ffffff;fill-opacity:1" />
  <path
     fill-rule="nonzero"
     fill="#79706e"
     fill-opacity="1"
     d="m 13.199221,69.363279 v -0.24219 h -0.35938 c -0.24219,0 -0.36328,-0.12109 -0.36328,-0.35937 v -3.60156 c -0.47656,0.24218 -0.83984,0.36328 -1.4375,0.60156 l 0.12109,0.23828 0.83985,-0.35937 c 0,0 0,0 0,0.24218 v 2.87891 c 0,0.23828 0,0.35937 -0.36328,0.35937 h -0.35938 v 0.24219 c 0.35938,0 0.72266,-0.12109 0.96094,-0.12109 0.35937,0 0.60156,0.12109 0.96094,0.12109 z m 0,0"
     id="path846"
     style="fill:#ffffff;fill-opacity:1" />
  <path
     fill-rule="nonzero"
     fill="#79706e"
     fill-opacity="1"
     d="m 13.558591,45.722659 c -0.12109,-0.1211 -0.12109,-0.24219 -0.12109,-0.24219 0,-0.11719 0,-0.23828 0.12109,-0.35938 l -2.16015,0.1211 1.07812,-1.19922 c 0.60156,-0.60156 0.83984,-0.96094 0.83984,-1.32031 0,-0.72266 -0.47656,-1.19922 -1.19921,-1.19922 -0.48047,0 -0.83985,0.11719 -1.07813,0.47656 l -0.12109,0.83984 h 0.24218 v -0.35937 c 0.11719,-0.35938 0.35938,-0.48047 0.71875,-0.48047 0.59766,0 0.83985,0.36328 0.83985,0.83984 0,0.48047 -0.24219,0.84375 -0.83985,1.5625 l -1.08203,1.07813 v 0.24219 c 0.48047,0 0.83985,0 1.32032,0 0.48046,0 0.96093,0 1.4414,0 z m 0,0"
     id="path848"
     style="fill:#ffffff;fill-opacity:1" />
  <path
     fill-rule="nonzero"
     fill="#79706e"
     fill-opacity="1"
     d="m 13.437501,20.640629 c 0,-0.23829 -0.1211,-0.48047 -0.35938,-0.71875 -0.12109,0 -0.23828,-0.1211 -0.48047,-0.1211 0.48047,-0.35937 0.60157,-0.71875 0.60157,-1.07812 0,-0.48047 -0.48047,-0.83985 -1.08203,-0.83985 -0.48047,0 -0.71875,0.11719 -0.95704,0.35938 l -0.24218,0.83984 h 0.24218 l 0.11719,-0.35937 c 0,-0.24219 0.48047,-0.48047 0.72266,-0.48047 0.35937,0 0.71875,0.35937 0.71875,0.71875 0,0.48047 -0.35938,0.83984 -0.71875,0.83984 -0.1211,0 -0.36328,0 -0.36328,0 v 0.35938 c 0.24218,-0.11719 0.36328,-0.11719 0.48047,-0.11719 0.48046,0 0.83984,0.23828 0.83984,0.83984 0,0.59766 -0.35938,0.95703 -0.95703,0.95703 -0.24219,0 -0.48047,0 -0.72266,-0.23828 -0.11719,-0.12109 -0.23828,-0.23828 -0.35937,-0.60156 l -0.1211,0.12109 c 0.1211,0.35938 0.1211,0.60157 0.24219,0.83985 0.23828,0.12109 0.59766,0.12109 0.71875,0.12109 0.48047,0 1.08203,-0.24219 1.44141,-0.60156 0.11718,-0.23828 0.23828,-0.59766 0.23828,-0.83984 z m 0,0"
     id="path850"
     style="fill:#ffffff;fill-opacity:1" />
  <path
     fill-rule="nonzero"
     fill="#79706e"
     fill-opacity="1"
     d="m 21.476561,10.082029 c 0,-0.12109 -0.11719,-0.24219 -0.35937,-0.24219 -0.11719,0 -0.35938,0.1211 -0.35938,0.24219 0,0.23828 0.12109,0.35938 0.35938,0.35938 0.24218,0 0.35937,-0.1211 0.35937,-0.35938 z m 0,0"
     id="path852"
     style="fill:#ffffff;fill-opacity:1" />
  <path
     fill-rule="nonzero"
     fill="#79706e"
     fill-opacity="1"
     d="m 24.476561,11.761719 v -0.12109 l -0.35937,-0.11719 c -0.35938,0 -0.35938,0 -0.35938,-0.36328 v -3.47657 l -0.12109,-0.12109 c -0.35938,0.23828 -0.83985,0.48047 -1.32032,0.59766 v 0.24218 h 0.1211 l 0.72265,-0.35937 c 0.11719,0 0.11719,0.11719 0.11719,0.23828 v 2.87891 c 0,0.36328 -0.11719,0.36328 -0.48047,0.36328 l -0.23828,0.11719 v 0.12109 c 0.23828,0 0.60156,0 0.96094,0 0.23828,0 0.59766,0 0.95703,0 z m 0,0"
     id="path854"
     style="fill:#ffffff;fill-opacity:1" />
  <path
     fill-rule="nonzero"
     fill="#79706e"
     fill-opacity="1"
     d="m 27.718751,9.601559 c 0,-1.32031 -0.35938,-1.91797 -1.19922,-1.91797 -0.96094,0 -1.44141,0.71875 -1.44141,2.15625 0,0.72266 0.1211,1.32032 0.35938,1.5625 0.24219,0.23829 0.48047,0.48047 0.96094,0.48047 0.83984,0 1.32031,-0.83984 1.32031,-2.28125 z m -0.48047,0.23828 c 0,1.32032 -0.23828,1.80079 -0.83984,1.80079 -0.60157,0 -0.83985,-0.59766 -0.83985,-2.03907 0,-1.32031 0.23828,-1.80078 0.83985,-1.80078 0.60156,0 0.83984,0.60156 0.83984,2.03906 z m 0,0"
     id="path856"
     style="fill:#ffffff;fill-opacity:1" />
  <path
     fill-rule="nonzero"
     fill="#79706e"
     fill-opacity="1"
     d="m 30.117191,9.601559 v -0.12109 h -0.23829 c -0.24218,0 -0.24218,-0.11719 -0.24218,-0.35938 v -0.35937 c 0.24218,0 0.36328,0 0.48047,0 v -0.35938 c 0,0 -0.23829,0 -0.35938,0 h -0.12109 v -0.60156 c 0,-0.83984 0,-1.19922 0,-1.4375 h -0.11719 l -0.24219,0.11719 -1.32031,2.16016 v 0.12109 h 1.20312 v 0.35937 c 0,0.24219 0,0.35938 -0.24218,0.35938 h -0.23828 v 0.12109 c 0.23828,0 0.48046,0 0.71875,0 0.23828,0 0.48046,0 0.71875,0 z m -0.95704,-1.19922 h -0.96093 l 0.96093,-1.5625 z m 0,0"
     id="path858"
     style="fill:#ffffff;fill-opacity:1" />
  <path
     fill-rule="nonzero"
     fill="#79706e"
     fill-opacity="1"
     d="m 25.199221,104.88281 v -0.24218 c -0.24219,0 -0.60157,0 -0.83985,0 -0.35937,0 -0.60156,0 -0.83984,0 v 0.24218 h 0.23828 c 0.35938,0 0.35938,0 0.35938,0.59766 v 3.60156 l -3.48047,-4.4414 c 0,0 -0.35938,0 -0.47657,0 -0.36328,0 -0.84375,0 -0.84375,0 v 0.24218 h 0.24219 c 0.35938,0 0.48047,0 0.48047,0.59766 v 3.35937 c 0,0.60157 -0.12109,0.72266 -0.48047,0.72266 h -0.24219 v 0.23828 c 0.24219,0 0.48047,0 0.84375,0 0.23829,0 0.59766,0 0.83985,0 v -0.23828 h -0.24219 c -0.35937,0 -0.48047,-0.12109 -0.48047,-0.72266 v -3.47656 l 3.60156,4.4375 0.71875,0.1211 c 0,-0.1211 -0.12109,-0.23829 -0.12109,-0.23829 v -4.20312 c 0,-0.59766 0.12109,-0.59766 0.48047,-0.59766 z m 0,0"
     id="path860"
     style="fill:#ffffff;fill-opacity:1" />
  <path
     fill-rule="nonzero"
     fill="#79706e"
     fill-opacity="1"
     d="m 29.398441,109.80078 v -0.23828 h -0.23829 c -0.36328,0 -0.36328,-0.12109 -0.36328,-0.60156 v -2.64063 c -0.48047,0.1211 -0.83984,0.24219 -1.19922,0.24219 v 0.23828 h 0.24219 c 0.35938,0 0.35938,0 0.35938,0.48047 v 1.32031 c 0,0.1211 -0.1211,0.35938 -0.24219,0.48047 -0.23828,0.23828 -0.48047,0.35938 -0.83984,0.35938 -0.23829,0 -0.35938,-0.1211 -0.48047,-0.23828 -0.11719,-0.1211 -0.23828,-0.36329 -0.23828,-0.72266 v -2.16016 c -0.35938,0.1211 -0.83985,0.24219 -1.19922,0.24219 v 0.23828 h 0.23828 c 0.35937,0 0.35937,0 0.35937,0.48047 v 1.32031 c 0,0.48047 0,0.71875 0.24219,0.96094 0.12109,0.23828 0.35938,0.23828 0.83984,0.23828 0.35938,0 0.59766,0 0.83985,-0.23828 l 0.48047,-0.48047 c 0,0.23828 0,0.35938 0,0.71875 0.11718,0 0.35937,0 0.59765,0 0.24219,0 0.36328,0 0.60157,0 z m 0,0"
     id="path862"
     style="fill:#ffffff;fill-opacity:1" />
  <path
     fill-rule="nonzero"
     fill="#79706e"
     fill-opacity="1"
     d="m 36.117191,109.80078 v -0.23828 h -0.35938 c -0.35937,0 -0.35937,-0.12109 -0.35937,-0.60156 v -1.4375 c 0,-0.83985 -0.35938,-1.20313 -1.08204,-1.20313 -0.23828,0 -0.47656,0 -0.59765,0.1211 l -0.60156,0.48047 c -0.23829,-0.48047 -0.48047,-0.60157 -1.07813,-0.60157 -0.24219,0 -0.48047,0 -0.60156,0.1211 l -0.48047,0.48047 v -0.60157 h -0.11719 c -0.36328,0.1211 -0.72265,0.24219 -1.08203,0.24219 v 0.23828 h 0.24219 c 0.23828,0 0.35937,0 0.35937,0.48047 v 1.67969 c 0,0.48047 -0.12109,0.60156 -0.35937,0.60156 h -0.36328 v 0.23828 c 0.36328,0 0.72265,0 0.96093,0 0.35938,0 0.60157,0 0.96094,0 v -0.23828 h -0.35937 c -0.24219,0 -0.24219,-0.12109 -0.24219,-0.60156 v -1.5586 c 0,-0.35937 0.48047,-0.71875 0.96094,-0.71875 0.35937,0 0.60156,0.47657 0.60156,0.95704 v 1.32031 c 0,0.48047 0,0.60156 -0.24219,0.60156 h -0.35937 v 0.23828 c 0.35937,0 0.60156,0 0.96093,0 0.35938,0 0.59766,0 0.96094,0 v -0.23828 h -0.36328 c -0.23828,0 -0.23828,-0.12109 -0.23828,-0.60156 v -1.5586 c 0,-0.35937 0.48047,-0.71875 0.83984,-0.71875 0.48047,0 0.71875,0.47657 0.71875,0.95704 v 2.16015 c 0.24219,0 0.36328,0 0.60157,0 0.23828,0 0.48046,0 0.71875,0 z m 0,0"
     id="path864"
     style="fill:#ffffff;fill-opacity:1" />
  <path
     fill-rule="nonzero"
     fill="#79706e"
     fill-opacity="1"
     d="m 39.957031,107.76172 c 0,-0.83984 -0.59766,-1.44141 -1.32031,-1.44141 -0.35938,0 -0.71875,0.1211 -0.95703,0.24219 l -0.36329,0.48047 v -2.64063 h -0.11718 c -0.35938,0.1211 -0.60157,0.1211 -1.19922,0.23829 v 0.24218 h 0.47656 c 0.12109,0 0.24219,0 0.24219,0.23828 v 3.48047 c 0,0.48047 -0.1211,0.71875 -0.1211,1.19922 h 0.1211 l 0.23828,-0.23828 c 0.35937,0.23828 0.60156,0.23828 1.08203,0.23828 0.23828,0 0.48047,0 0.59766,-0.11719 l 0.72265,-0.48046 c 0.35938,-0.24219 0.59766,-0.96094 0.59766,-1.44141 z M 39.359371,108 c 0,0.83984 -0.48047,1.44141 -1.08203,1.44141 -0.48047,0 -0.96094,-0.23828 -0.96094,-0.35938 v -1.55859 c 0,-0.1211 0,-0.24219 0.1211,-0.48047 0.24219,-0.12109 0.60156,-0.24219 0.83984,-0.24219 0.60156,0 1.08203,0.48047 1.08203,1.19922 z m 0,0"
     id="path866"
     style="fill:#ffffff;fill-opacity:1" />
  <path
     fill-rule="nonzero"
     fill="#79706e"
     fill-opacity="1"
     d="m 43.679691,107.64063 c 0,-0.83985 -0.60157,-1.32032 -1.44141,-1.32032 -0.23828,0 -0.60156,0 -0.83984,0.24219 -0.60157,0.35938 -0.96094,0.83984 -0.96094,1.55859 0,0.48047 0.12109,0.83985 0.35937,1.19922 0.24219,0.36328 0.83985,0.60157 1.32032,0.60157 0.35937,0 0.60156,-0.1211 0.96093,-0.23829 0.1211,0 0.35938,-0.12109 0.35938,-0.24218 l 0.12109,-0.23828 h -0.12109 c -0.48047,0.23828 -0.59766,0.35937 -0.96094,0.35937 -0.47656,0 -0.83984,-0.24219 -1.07812,-0.60156 -0.1211,-0.23828 -0.23829,-0.48047 -0.23829,-0.96094 h 1.07813 c 0.60156,0 0.83984,0 1.44141,0 0,-0.11719 0,-0.23828 0,-0.35937 z m -0.72266,0.12109 h -0.83984 c -0.35938,0 -0.48047,0 -0.95704,0 0,-0.35938 0.11719,-0.48047 0.11719,-0.71875 0.24219,-0.35938 0.48047,-0.48047 0.83985,-0.48047 0.24218,0 0.48046,0 0.60156,0.23828 0.23828,0.24219 0.23828,0.48047 0.23828,0.96094 z m 0,0"
     id="path868"
     style="fill:#ffffff;fill-opacity:1" />
  <path
     fill-rule="nonzero"
     fill="#79706e"
     fill-opacity="1"
     d="m 46.679691,106.32031 c -0.1211,0 -0.24219,0 -0.36329,0 -0.23828,0 -0.47656,0.1211 -0.59765,0.24219 l -0.48047,0.48047 v -0.72266 c -0.35938,0.1211 -0.83984,0.24219 -1.19922,0.24219 v 0.23828 h 0.23828 c 0.35938,0 0.35938,0 0.35938,0.48047 v 1.67969 c 0,0.48047 0,0.60156 -0.23828,0.60156 h -0.35938 v 0.23828 c 0.35938,0 0.59766,0 0.96094,0 0.35937,0 0.71875,0 1.07812,0 v -0.23828 h -0.48047 c -0.35937,0 -0.35937,-0.12109 -0.35937,-0.60156 v -1.19922 c 0,-0.48047 0.35937,-0.83984 0.71875,-0.83984 0.24219,0 0.35937,0.12109 0.48047,0.35937 h 0.12109 z m 0,0"
     id="path870"
     style="fill:#ffffff;fill-opacity:1" />
  <path
     fill-rule="nonzero"
     fill="#79706e"
     fill-opacity="1"
     d="m 52.558591,108 c 0,-0.95703 -0.71875,-1.67969 -1.80078,-1.67969 -1.07812,0 -1.80078,0.72266 -1.80078,1.80078 0,1.08204 0.60156,1.80079 1.5625,1.80079 1.19922,0 2.03906,-0.83985 2.03906,-1.92188 z m -0.71875,0.24219 c 0,0.83984 -0.36328,1.4414 -0.96094,1.4414 -0.71875,0 -1.19921,-0.72265 -1.19921,-1.80078 0,-0.83984 0.35937,-1.32031 0.95703,-1.32031 0.72265,0 1.20312,0.71875 1.20312,1.67969 z m 0,0"
     id="path872"
     style="fill:#ffffff;fill-opacity:1" />
  <path
     fill-rule="nonzero"
     fill="#79706e"
     fill-opacity="1"
     d="m 55.316401,105 v -0.59766 c -0.11718,0 -0.23828,-0.12109 -0.35937,-0.12109 -0.23828,0 -0.48047,0.12109 -0.59766,0.35938 l -0.48047,0.48046 c -0.24218,0.24219 -0.35937,0.60157 -0.35937,1.08204 v 0.35937 l -0.48047,0.23828 v 0.1211 h 0.48047 v 2.03906 c 0,0.48047 0,0.60156 -0.24219,0.60156 h -0.35937 v 0.23828 c 0.35937,0 0.60156,0 0.96093,0 0.35938,0 0.59766,0 0.96094,0 v -0.23828 h -0.36328 c -0.23828,0 -0.23828,-0.12109 -0.23828,-0.60156 v -2.03906 h 0.83984 l 0.1211,-0.48047 c -0.35938,0.12109 -0.72266,0.12109 -0.96094,0.12109 v -0.72266 c 0,-0.83984 0,-0.95703 0.48047,-0.95703 0.23828,0 0.35937,0 0.48047,0.11719 z m 0,0"
     id="path874"
     style="fill:#ffffff;fill-opacity:1" />
  <path
     fill-rule="nonzero"
     fill="#79706e"
     fill-opacity="1"
     d="m 61.437501,109.80078 v -0.23828 h -0.35938 c -0.23828,0 -0.23828,-0.12109 -0.23828,-0.60156 v -4.5586 h -0.12109 c -0.24219,0.1211 -0.48047,0.1211 -1.08203,0.23829 v 0.24218 h 0.36328 c 0.11719,0 0.23828,0 0.23828,0.23828 v 1.44141 c -0.48047,-0.24219 -0.60156,-0.24219 -0.96094,-0.24219 -0.11719,0 -0.35937,0 -0.48047,0.1211 l -0.71875,0.35937 c -0.35937,0.1211 -0.71875,0.72266 -0.71875,1.32031 0,0.60157 0.23828,1.08204 0.59766,1.44141 0.24219,0.23828 0.60156,0.23828 1.08203,0.23828 0.12109,0 0.35938,0 0.35938,0 l 0.83984,-0.71875 v 0.71875 c 0.12109,0 0.35937,0 0.48047,0 0.23828,0 0.48047,0 0.71875,0 z m -1.19922,-1.67969 c 0,0.48047 0,0.60157 -0.12109,0.71875 -0.23829,0.36329 -0.59766,0.60157 -0.95704,0.60157 -0.60156,0 -1.08203,-0.60157 -1.08203,-1.5586 0,-0.83984 0.35938,-1.32031 1.08203,-1.32031 0.23829,0 0.59766,0.12109 0.83985,0.35938 0.11719,0.12109 0.23828,0.12109 0.23828,0.23828 z m 0,0"
     id="path876"
     style="fill:#ffffff;fill-opacity:1" />
  <path
     fill-rule="nonzero"
     fill="#79706e"
     fill-opacity="1"
     d="m 65.039061,107.64063 c 0,-0.83985 -0.60156,-1.32032 -1.44141,-1.32032 -0.23828,0 -0.59765,0 -0.83984,0.24219 -0.59766,0.35938 -0.83984,0.83984 -0.83984,1.55859 0,0.48047 0.12109,0.83985 0.24218,1.19922 0.35938,0.36328 0.83985,0.60157 1.4375,0.60157 0.24219,0 0.48047,-0.1211 0.83985,-0.23829 0.24219,0 0.35937,-0.12109 0.35937,-0.24218 l 0.1211,-0.23828 c -0.48047,0.23828 -0.71875,0.35937 -1.07813,0.35937 -0.48047,0 -0.83984,-0.24219 -1.08203,-0.60156 -0.12109,-0.23828 -0.12109,-0.48047 -0.12109,-0.96094 h 1.08203 c 0.48047,0 0.83984,0 1.32031,0 0,-0.11719 0,-0.23828 0,-0.35937 z m -0.72266,0.12109 h -0.71875 c -0.35937,0 -0.59765,0 -0.96093,0 0,-0.35938 0,-0.48047 0.12109,-0.71875 0.12109,-0.35938 0.48047,-0.48047 0.83984,-0.48047 0.24219,0 0.35938,0 0.48047,0.23828 0.23828,0.24219 0.23828,0.48047 0.23828,0.96094 z m 0,0"
     id="path878"
     style="fill:#ffffff;fill-opacity:1" />
  <path
     fill-rule="nonzero"
     fill="#79706e"
     fill-opacity="1"
     d="m 68.160151,108.72266 c 0,-0.24219 0,-0.48047 -0.12109,-0.60157 -0.24219,-0.23828 -0.48047,-0.23828 -1.19922,-0.35937 -0.60156,-0.12109 -0.72265,-0.35938 -0.72265,-0.71875 0,-0.35938 0.24218,-0.48047 0.72265,-0.48047 0.47656,0 0.83985,0.23828 0.83985,0.59766 v 0.12109 h 0.23828 c 0,-0.35937 0,-0.59766 0,-0.83984 -0.35938,-0.1211 -0.71875,-0.1211 -0.96094,-0.1211 -0.83984,0 -1.4375,0.36328 -1.4375,1.08203 0,0.35938 0.23828,0.59766 0.48047,0.71875 0.23828,0.1211 0.59765,0.24219 1.19922,0.35938 0.35937,0 0.48047,0.24219 0.48047,0.48047 0,0.35937 -0.36329,0.72265 -0.96094,0.72265 -0.48047,0 -0.96094,-0.36328 -0.96094,-0.72265 v -0.23828 h -0.12109 c 0,0.48047 -0.11719,0.71875 -0.11719,0.96093 0.35937,0.23829 0.59766,0.23829 0.95703,0.23829 1.08203,0 1.68359,-0.48047 1.68359,-1.19922 z m 0,0"
     id="path880"
     style="fill:#ffffff;fill-opacity:1" />
  <path
     fill-rule="nonzero"
     fill="#79706e"
     fill-opacity="1"
     d="m 70.437501,109.80078 v -0.23828 h -0.35938 c -0.23828,0 -0.23828,-0.12109 -0.23828,-0.60156 v -2.64063 h -0.12109 c -0.35938,0.1211 -0.71875,0.24219 -1.08203,0.24219 v 0.23828 h 0.24218 c 0.35938,0 0.35938,0 0.35938,0.48047 v 1.67969 c 0,0.48047 0,0.60156 -0.23828,0.60156 h -0.36328 v 0.23828 c 0.24218,0 0.60156,0 0.83984,0 0.36328,0 0.72266,0 0.96094,0 z M 69.957031,105 c 0,-0.23828 -0.23828,-0.35937 -0.35938,-0.35937 -0.23828,0 -0.48046,0.12109 -0.48046,0.35937 0,0.24219 0.24218,0.36328 0.35937,0.36328 0.24219,0 0.48047,-0.12109 0.48047,-0.36328 z m 0,0"
     id="path882"
     style="fill:#ffffff;fill-opacity:1" />
  <path
     fill-rule="nonzero"
     fill="#79706e"
     fill-opacity="1"
     d="m 74.636721,106.68359 v -0.12109 h -1.07813 c -0.24219,-0.24219 -0.48047,-0.24219 -0.83984,-0.24219 -0.35938,0 -0.71875,0 -1.08203,0.24219 -0.35938,0.23828 -0.59766,0.59766 -0.59766,1.07813 0,0.48046 0.35938,0.96093 0.83984,0.96093 l -0.60156,0.48047 c 0,0.1211 0,0.23828 0,0.23828 0,0.24219 0.1211,0.36328 0.48047,0.48047 l -0.71875,0.35938 c -0.12109,0.12109 -0.24219,0.36328 -0.24219,0.60156 0,0.60156 0.72266,1.07812 1.67969,1.07812 1.08203,0 2.04297,-0.71875 2.04297,-1.55859 0,-0.59766 -0.35938,-0.96094 -0.96094,-0.96094 h -1.19922 c -0.35937,0 -0.48047,-0.11718 -0.48047,-0.23828 0,-0.12109 0,-0.24219 0.23829,-0.35937 0,0 0,0 0.12109,-0.1211 0,0 0.12109,0 0.12109,0 0.35938,0 0.71875,-0.12109 1.07813,-0.35937 0.24219,-0.24219 0.48047,-0.48047 0.48047,-0.83985 0,-0.24218 0,-0.24218 -0.1211,-0.48046 h 0.72266 z m -1.32032,0.83985 c 0,0.47656 -0.35937,0.83984 -0.83984,0.83984 -0.47656,0 -0.83984,-0.36328 -0.83984,-0.96094 0,-0.60156 0.24218,-0.83984 0.72265,-0.83984 0.59766,0 0.95703,0.35938 0.95703,0.96094 z m 0.60157,3 c 0,0.59765 -0.60157,1.07812 -1.44141,1.07812 -0.59766,0 -1.07812,-0.35937 -1.07812,-0.83984 0,-0.35938 0.23828,-0.71875 0.48046,-0.83984 0.1211,0 0.35938,0 0.83985,0 0.83984,0 1.19922,0.12109 1.19922,0.60156 z m 0,0"
     id="path884"
     style="fill:#ffffff;fill-opacity:1" />
  <path
     fill-rule="nonzero"
     fill="#79706e"
     fill-opacity="1"
     d="m 79.078121,109.80078 v -0.23828 h -0.35937 c -0.24219,0 -0.24219,-0.12109 -0.24219,-0.60156 v -1.4375 c 0,-0.83985 -0.47656,-1.20313 -1.31641,-1.20313 -0.24218,0 -0.36328,0 -0.48046,0.1211 l -0.60157,0.48047 v -0.60157 h -0.12109 c -0.35938,0.1211 -0.71875,0.24219 -1.07813,0.24219 v 0.23828 h 0.23829 c 0.24218,0 0.35937,0 0.35937,0.48047 v 1.67969 c 0,0.48047 -0.11719,0.60156 -0.35937,0.60156 h -0.35938 v 0.23828 c 0.35938,0 0.71875,0 0.96094,0 0.35937,0 0.59765,0 0.96094,0 v -0.23828 h -0.36329 c -0.23828,0 -0.23828,-0.12109 -0.23828,-0.60156 v -1.5586 c 0,-0.35937 0.48047,-0.71875 0.96094,-0.71875 0.48047,0 0.83984,0.35938 0.83984,0.95704 v 2.16015 c 0.1211,0 0.35938,0 0.59766,0 0.12109,0 0.36328,0 0.60156,0 z m 0,0"
     id="path886"
     style="fill:#ffffff;fill-opacity:1" />
  <path
     fill-rule="nonzero"
     fill="#79706e"
     fill-opacity="1"
     d="m 84.957031,106.5625 v -0.24219 c -0.11719,0 -0.35938,0 -0.59766,0 -0.24218,0 -0.48047,0 -0.72265,0 v 0.24219 h 0.24218 c 0.23829,0 0.23829,0.23828 0.1211,0.71875 l -0.36328,0.83984 -0.47657,1.08204 -0.84375,-2.16016 c -0.11718,-0.24219 -0.11718,-0.48047 0.1211,-0.48047 h 0.35937 v -0.24219 c -0.35937,0 -0.59765,0 -0.95703,0 -0.24219,0 -0.48047,0 -0.83984,0 v 0.24219 h 0.23828 c 0.23828,0 0.23828,0.12109 0.23828,0.23828 l 1.32031,3 h 0.36328 c 0.11719,-0.23828 0.11719,-0.48047 0.35938,-0.83984 l 0.83984,-1.91797 c 0.11719,-0.35938 0.23828,-0.48047 0.48047,-0.48047 z m 0,0"
     id="path888"
     style="fill:#ffffff;fill-opacity:1" />
  <path
     fill-rule="nonzero"
     fill="#79706e"
     fill-opacity="1"
     d="m 88.558591,109.80078 v -0.23828 h -0.35937 c -0.1211,0 -0.24219,-0.12109 -0.24219,-0.48047 v -1.32031 c 0,-1.07813 -0.23828,-1.44141 -1.07813,-1.44141 -0.35937,0 -0.71875,0 -0.96093,0.24219 l -0.35938,0.23828 v 0.48047 h 0.1211 l 0.11718,-0.23828 c 0.1211,-0.35938 0.24219,-0.35938 0.60157,-0.35938 0.71875,0 0.96093,0.23829 0.96093,0.95704 l -0.72265,0.12109 c -0.95703,0.12109 -1.4375,0.48047 -1.4375,1.19922 0,0.60156 0.35937,0.83984 0.96093,0.83984 0.11719,0 0.23829,0 0.35938,0 l 0.83984,-0.59765 v 0.59765 c 0.23828,0 0.35938,0 0.59766,0 0.12109,0 0.35937,0 0.60156,0 z m -1.19922,-0.96094 c -0.12109,0.36329 -0.60156,0.60157 -0.96093,0.60157 -0.23829,0 -0.48047,-0.23828 -0.48047,-0.60157 0,-0.23828 0.12109,-0.59765 0.35937,-0.71875 0.1211,-0.12109 0.60156,-0.23828 1.08203,-0.23828 z m 0,0"
     id="path890"
     style="fill:#ffffff;fill-opacity:1" />
  <path
     fill-rule="nonzero"
     fill="#79706e"
     fill-opacity="1"
     d="m 91.558591,106.32031 c -0.12109,0 -0.24219,0 -0.35937,0 -0.24219,0 -0.48047,0.1211 -0.60157,0.24219 l -0.48046,0.48047 v -0.72266 h -0.11719 c -0.36328,0.1211 -0.72266,0.24219 -1.08203,0.24219 v 0.23828 h 0.24218 c 0.35938,0 0.35938,0 0.35938,0.48047 v 1.67969 c 0,0.48047 0,0.60156 -0.35938,0.60156 h -0.24218 v 0.23828 c 0.24218,0 0.60156,0 0.83984,0 0.35938,0 0.71875,0 1.08203,0 v -0.23828 h -0.36328 c -0.35937,0 -0.35937,-0.12109 -0.35937,-0.60156 v -1.19922 c 0,-0.48047 0.35937,-0.83984 0.72265,-0.83984 0.11719,0 0.35938,0.12109 0.47656,0.35937 h 0.1211 z m 0,0"
     id="path892"
     style="fill:#ffffff;fill-opacity:1" />
  <path
     fill-rule="nonzero"
     fill="#79706e"
     fill-opacity="1"
     d="m 93.718751,109.80078 v -0.23828 h -0.35938 c -0.24218,0 -0.24218,-0.12109 -0.24218,-0.60156 v -2.64063 h -0.11719 c -0.36328,0.1211 -0.72266,0.24219 -1.20313,0.24219 v 0.23828 h 0.36328 c 0.23829,0 0.23829,0 0.23829,0.48047 v 1.67969 c 0,0.48047 0,0.60156 -0.23829,0.60156 h -0.36328 v 0.23828 c 0.36328,0 0.60157,0 0.96094,0 0.35938,0 0.60156,0 0.96094,0 z M 93.117191,105 c 0,-0.23828 -0.11719,-0.35937 -0.35938,-0.35937 -0.23828,0 -0.35937,0.12109 -0.35937,0.35937 0,0.24219 0.12109,0.36328 0.35937,0.36328 0.24219,0 0.35938,-0.12109 0.35938,-0.36328 z m 0,0"
     id="path894"
     style="fill:#ffffff;fill-opacity:1" />
  <path
     fill-rule="nonzero"
     fill="#79706e"
     fill-opacity="1"
     d="m 97.316401,109.80078 v -0.23828 h -0.23828 c -0.23828,0 -0.23828,-0.12109 -0.23828,-0.48047 v -1.32031 c 0,-1.07813 -0.24219,-1.44141 -1.20312,-1.44141 -0.23828,0 -0.59766,0 -0.83985,0.24219 l -0.35937,0.23828 v 0.48047 h 0.12109 l 0.1211,-0.23828 c 0.11718,-0.35938 0.23828,-0.35938 0.59765,-0.35938 0.72266,0 0.96094,0.23829 0.96094,0.95704 l -0.71875,0.12109 c -0.96094,0.12109 -1.44141,0.48047 -1.44141,1.19922 0,0.60156 0.35938,0.83984 0.96094,0.83984 0.12109,0 0.23828,0 0.23828,0 l 0.96094,-0.59765 v 0.59765 c 0.23828,0 0.35937,0 0.60156,0 0.11719,0 0.35938,0 0.47656,0 z m -1.07812,-0.96094 c -0.23828,0.36329 -0.71875,0.60157 -0.96094,0.60157 -0.23828,0 -0.59765,-0.23828 -0.59765,-0.60157 0,-0.23828 0.23828,-0.59765 0.35937,-0.71875 0.23828,-0.12109 0.59766,-0.23828 1.19922,-0.23828 z m 0,0"
     id="path896"
     style="fill:#ffffff;fill-opacity:1" />
  <path
     fill-rule="nonzero"
     fill="#79706e"
     fill-opacity="1"
     d="m 101.39844,107.76172 c 0,-0.83984 -0.60157,-1.44141 -1.32032,-1.44141 -0.359369,0 -0.718749,0.1211 -0.960929,0.24219 l -0.48047,0.48047 v -2.64063 c -0.35938,0.1211 -0.59766,0.1211 -1.19922,0.23829 v 0.24218 h 0.48047 c 0.12109,0 0.12109,0 0.12109,0.23828 v 3.48047 c 0,0.48047 0,0.71875 0,1.19922 h 0.12109 l 0.23829,-0.23828 c 0.35937,0.23828 0.60156,0.23828 0.96093,0.23828 0.35938,0 0.48047,0 0.718749,-0.11719 l 0.71875,-0.48046 c 0.36328,-0.24219 0.60157,-0.96094 0.60157,-1.44141 z M 100.67969,108 c 0,0.83984 -0.36329,1.44141 -1.082039,1.44141 -0.35937,0 -0.96093,-0.23828 -0.96093,-0.35938 v -1.55859 c 0,-0.1211 0.12109,-0.24219 0.24218,-0.48047 0.23829,-0.12109 0.48047,-0.24219 0.83985,-0.24219 0.597649,0 0.960939,0.48047 0.960939,1.19922 z m 0,0"
     id="path898"
     style="fill:#ffffff;fill-opacity:1" />
  <path
     fill-rule="nonzero"
     fill="#79706e"
     fill-opacity="1"
     d="m 103.67969,109.80078 v -0.23828 h -0.24219 c -0.35938,0 -0.35938,-0.12109 -0.35938,-0.60156 v -4.5586 c -0.35937,0.1211 -0.60156,0.1211 -1.19922,0.23829 v 0.24218 h 0.48047 c 0.11719,0 0.11719,0 0.11719,0.23828 v 3.83985 c 0,0.48047 0,0.60156 -0.23828,0.60156 h -0.35938 v 0.23828 c 0.35938,0 0.59766,0 0.96094,0 0.23828,0 0.59766,0 0.83985,0 z m 0,0"
     id="path900"
     style="fill:#ffffff;fill-opacity:1" />
  <path
     fill-rule="nonzero"
     fill="#79706e"
     fill-opacity="1"
     d="m 107.27734,107.64063 c 0,-0.83985 -0.59765,-1.32032 -1.4375,-1.32032 -0.24219,0 -0.60156,0 -0.96094,0.24219 -0.60156,0.35938 -0.83984,0.83984 -0.83984,1.55859 0,0.48047 0.12109,0.83985 0.35938,1.19922 0.23828,0.36328 0.83984,0.60157 1.32031,0.60157 0.35937,0 0.59765,-0.1211 0.83984,-0.23829 0.23828,0 0.35938,-0.12109 0.48047,-0.24218 l 0.12109,-0.23828 h -0.12109 c -0.48047,0.23828 -0.60156,0.35937 -0.96094,0.35937 -0.48047,0 -0.83984,-0.24219 -1.07812,-0.60156 -0.1211,-0.23828 -0.24219,-0.48047 -0.24219,-0.96094 h 1.08203 c 0.59766,0 0.83985,0 1.32031,0 0.11719,-0.11719 0.11719,-0.23828 0.11719,-0.35937 z m -0.71875,0.12109 h -0.83984 c -0.35938,0 -0.48047,0 -0.96094,0 0,-0.35938 0,-0.48047 0.12109,-0.71875 0.23829,-0.35938 0.48047,-0.48047 0.83985,-0.48047 0.23828,0 0.48047,0 0.59765,0.23828 0.1211,0.24219 0.24219,0.48047 0.24219,0.96094 z m 0,0"
     id="path902"
     style="fill:#ffffff;fill-opacity:1" />
  <path
     fill-rule="nonzero"
     fill="#79706e"
     fill-opacity="1"
     d="m 110.39844,108.72266 c 0,-0.24219 -0.1211,-0.48047 -0.23829,-0.60157 -0.12109,-0.23828 -0.48046,-0.23828 -1.08203,-0.35937 -0.60156,-0.12109 -0.83984,-0.35938 -0.83984,-0.71875 0,-0.35938 0.23828,-0.48047 0.71875,-0.48047 0.48047,0 0.96094,0.23828 0.96094,0.59766 v 0.12109 h 0.12109 c 0,-0.35937 0,-0.59766 0.12109,-0.83984 -0.48046,-0.1211 -0.72265,-0.1211 -1.08203,-0.1211 -0.83984,0 -1.32031,0.36328 -1.32031,1.08203 0,0.35938 0.12109,0.59766 0.48047,0.71875 0.23828,0.1211 0.60156,0.24219 1.07812,0.35938 0.36329,0 0.48047,0.24219 0.48047,0.48047 0,0.35937 -0.35937,0.72265 -0.83984,0.72265 -0.59766,0 -0.95703,-0.36328 -0.95703,-0.72265 v -0.23828 h -0.24219 c 0,0.48047 0,0.71875 -0.12109,0.96093 0.48047,0.23829 0.72265,0.23829 1.08203,0.23829 0.96094,0 1.67969,-0.48047 1.67969,-1.19922 z m 0,0"
     id="path904"
     style="fill:#ffffff;fill-opacity:1" />
  <path
     fill-rule="nonzero"
     fill="#79706e"
     fill-opacity="1"
     d="m 0.476561,99.121089 h -0.23828 c 0,0.35938 0,0.60157 0,0.960941 0,0.23828 0,0.48047 0,0.83985 h 0.23828 v -0.35938 c 0,-0.35937 0.12109,-0.35937 0.72266,-0.35937 h 3.48047 l -4.44141,3.59765 c 0,0 0,0.24219 0,0.35938 0,0.36328 0,0.96093 0,0.96093 h 0.23828 v -0.35937 c 0,-0.35938 0.12109,-0.35938 0.72266,-0.35938 h 3.35937 c 0.60156,0 0.60156,0 0.60156,0.35938 v 0.35937 h 0.23829 c 0,-0.35937 0,-0.59765 0,-0.83984 0,-0.35937 0,-0.59766 0,-0.96094 h -0.23829 v 0.36328 c 0,0.35938 0,0.35938 -0.60156,0.35938 h -3.48047 l 4.32032,-3.48047 0.12109,-0.722661 c 0,0 -0.12109,0 -0.24219,0 h -4.07812 c -0.60157,0 -0.72266,0 -0.72266,-0.35937 z m 0,0"
     id="path906"
     style="fill:#ffffff;fill-opacity:1" />
  <path
     fill-rule="nonzero"
     fill="#79706e"
     fill-opacity="1"
     d="m 5.398441,94.921879 h -0.23829 v 0.35937 c 0,0.24219 0,0.24219 -0.48046,0.24219 h -2.76172 v 0.11719 c 0.12109,0.35937 0.24218,0.72265 0.35937,1.19921 h 0.1211 v -0.35937 c 0,-0.23828 0.12109,-0.35938 0.60156,-0.35938 h 1.19922 c 0.11718,0 0.35937,0.1211 0.59765,0.35938 0.1211,0.24219 0.24219,0.48047 0.24219,0.72266 0,0.23828 -0.12109,0.48046 -0.24219,0.59765 -0.11718,0.1211 -0.35937,0.1211 -0.59765,0.1211 h -2.28125 v 0.12109 c 0.12109,0.35937 0.24218,0.71875 0.35937,1.07812 h 0.1211 v -0.23828 c 0,-0.24218 0.12109,-0.35937 0.60156,-0.35937 h 1.19922 c 0.59765,0 0.83984,0 0.96093,-0.1211 0.23829,-0.12109 0.35938,-0.48046 0.35938,-0.83984 0,-0.35937 -0.12109,-0.72266 -0.35938,-0.83984 l -0.36328,-0.60157 c 0.1211,0 0.24219,0.1211 0.60157,0.1211 0,-0.24219 0,-0.48047 0,-0.60156 0,-0.23829 0,-0.48047 0,-0.71875 z m 0,0"
     id="path908"
     style="fill:#ffffff;fill-opacity:1" />
  <path
     fill-rule="nonzero"
     fill="#79706e"
     fill-opacity="1"
     d="m 5.398441,88.320309 h -0.23829 v 0.36328 c 0,0.23829 0,0.23829 -0.48046,0.23829 h -1.5625 c -0.71875,0 -1.19922,0.48046 -1.19922,1.07812 0,0.36328 0.12109,0.48047 0.24218,0.72266 l 0.47657,0.48047 c -0.47657,0.23828 -0.71875,0.59765 -0.71875,1.07812 0,0.24219 0.12109,0.48047 0.24218,0.60156 l 0.47657,0.59766 h -0.71875 c 0.12109,0.35937 0.24218,0.83984 0.35937,1.20312 h 0.1211 v -0.24218 c 0,-0.35938 0.12109,-0.35938 0.60156,-0.35938 h 1.67969 c 0.48046,0 0.48046,0 0.48046,0.23828 v 0.36328 h 0.23829 c 0,-0.36328 0,-0.60156 0,-0.96093 0,-0.24219 0,-0.60157 0,-0.83985 h -0.23829 v 0.23828 c 0,0.24219 0,0.35938 -0.48046,0.35938 h -1.5625 c -0.35938,0 -0.71875,-0.48047 -0.71875,-0.95703 0,-0.48047 0.35937,-0.72266 0.96093,-0.72266 h 1.32032 c 0.48046,0 0.48046,0 0.48046,0.24219 v 0.35937 h 0.23829 c 0,-0.24218 0,-0.60156 0,-0.83984 0,-0.35937 0,-0.72266 0,-0.96094 h -0.23829 v 0.35938 c 0,0.24219 0,0.24219 -0.48046,0.24219 h -1.5625 c -0.35938,0 -0.71875,-0.48047 -0.71875,-0.96094 0,-0.35938 0.35937,-0.71875 0.96093,-0.71875 h 2.03907 c 0,-0.1211 0,-0.36328 0,-0.60156 0,-0.1211 0,-0.35938 0,-0.60157 z m 0,0"
     id="path910"
     style="fill:#ffffff;fill-opacity:1" />
  <path
     fill-rule="nonzero"
     fill="#79706e"
     fill-opacity="1"
     d="m 3.359371,84.363279 c -0.83984,0 -1.4414,0.59766 -1.4414,1.4375 0,0.35938 0.12109,0.72266 0.35937,0.83985 l 0.35938,0.48046 H 9.9999988e-7 C 0.117191,87.480469 0.238281,87.722659 0.238281,88.320309 h 0.23828 v -0.48047 c 0,-0.11718 0.12109,-0.11718 0.36328,-0.11718 h 3.47656 c 0.48047,0 0.60157,0 1.20313,0 v -0.1211 l -0.24219,-0.23828 c 0.1211,-0.36328 0.24219,-0.60156 0.24219,-0.96094 0,-0.35937 -0.12109,-0.48046 -0.12109,-0.60156 l -0.60157,-0.83984 c -0.23828,-0.23828 -0.83984,-0.59766 -1.4375,-0.59766 z m 0.35938,0.71875 c 0.83984,0 1.4414,0.48047 1.4414,1.07813 0,0.36328 -0.24218,0.96093 -0.48046,0.96093 h -1.5625 c -0.11719,0 -0.23829,-0.12109 -0.35938,-0.23828 -0.23828,-0.24218 -0.35937,-0.48047 -0.35937,-0.83984 0,-0.60156 0.48046,-0.96094 1.32031,-0.96094 z m 0,0"
     id="path912"
     style="fill:#ffffff;fill-opacity:1" />
  <path
     fill-rule="nonzero"
     fill="#79706e"
     fill-opacity="1"
     d="m 3.359371,80.761719 c -0.83984,0 -1.4414,0.48047 -1.4414,1.32031 0,0.35938 0.12109,0.60156 0.24218,0.96094 0.35938,0.59766 0.83985,0.83984 1.67969,0.83984 0.35938,0 0.83985,-0.12109 1.07813,-0.35937 0.35937,-0.24219 0.60156,-0.72266 0.60156,-1.32031 0,-0.24219 0,-0.60157 -0.12109,-0.83985 -0.1211,-0.24219 -0.23829,-0.36328 -0.23829,-0.36328 l -0.24218,-0.23828 -0.1211,0.12109 c 0.36328,0.48047 0.36328,0.71875 0.36328,0.95703 0,0.48047 -0.24218,0.96094 -0.60156,1.08204 -0.24219,0.23828 -0.48047,0.23828 -0.83984,0.23828 v -1.07813 c 0,-0.48047 0,-0.83984 -0.1211,-1.32031 -0.12109,0 -0.12109,0 -0.23828,0 z m 0.11719,0.60156 v 0.83985 c 0,0.35937 0,0.59765 -0.11719,0.95703 -0.35937,0 -0.48047,0 -0.72265,-0.11719 -0.23828,-0.12109 -0.47657,-0.48047 -0.47657,-0.83984 0,-0.24219 0.11719,-0.48047 0.35938,-0.60157 0.23828,-0.12109 0.35937,-0.23828 0.95703,-0.23828 z m 0,0"
     id="path914"
     style="fill:#ffffff;fill-opacity:1" />
  <path
     fill-rule="nonzero"
     fill="#79706e"
     fill-opacity="1"
     d="m 2.039061,77.761719 c -0.12109,0 -0.12109,0.12109 -0.12109,0.23828 0,0.24219 0.12109,0.48047 0.35937,0.72266 l 0.48047,0.35937 h -0.83984 v 0.1211 c 0.12109,0.35937 0.24218,0.71875 0.35937,1.07812 h 0.1211 v -0.23828 c 0,-0.24219 0.12109,-0.35938 0.60156,-0.35938 h 1.67969 c 0.48046,0 0.48046,0.11719 0.48046,0.35938 v 0.23828 h 0.23829 c 0,-0.23828 0,-0.59766 0,-0.83984 0,-0.35938 0,-0.71875 0,-1.07813 h -0.23829 v 0.35938 c 0,0.35937 0,0.35937 -0.48046,0.35937 h -1.32032 c -0.48047,0 -0.83984,-0.24219 -0.83984,-0.60156 0,-0.23828 0.11719,-0.48047 0.35937,-0.59766 v -0.12109 z m 0,0"
     id="path916"
     style="fill:#ffffff;fill-opacity:1" />
  <path
     fill-rule="nonzero"
     fill="#79706e"
     fill-opacity="1"
     d="m 3.597651,71.882809 c -0.96093,0 -1.67968,0.71875 -1.67968,1.67969 0,1.07813 0.71875,1.91797 1.92187,1.91797 0.95703,0 1.67969,-0.71875 1.67969,-1.67969 0,-1.19922 -0.72266,-1.91797 -1.92188,-1.91797 z m 0.35938,0.59766 c 0.83984,0 1.32031,0.48047 1.32031,1.08203 0,0.71875 -0.71875,1.19922 -1.67969,1.19922 -0.96093,0 -1.4375,-0.35938 -1.4375,-1.07813 0,-0.60156 0.71875,-1.20312 1.79688,-1.20312 z m 0,0"
     id="path918"
     style="fill:#ffffff;fill-opacity:1" />
  <path
     fill-rule="nonzero"
     fill="#79706e"
     fill-opacity="1"
     d="M 0.597651,68.999999 H 0.117191 C 9.9999994e-7,69.242189 9.9999994e-7,69.242189 9.9999994e-7,69.363279 9.9999994e-7,69.601559 0.117191,69.839839 0.238281,70.082029 l 0.60156,0.35938 c 0.23828,0.24218 0.47656,0.35937 1.07813,0.35937 h 0.24218 l 0.23829,0.48047 h 0.12109 v -0.48047 h 2.16016 c 0.48046,0 0.48046,0 0.48046,0.24219 v 0.35937 h 0.23829 c 0,-0.24218 0,-0.60156 0,-0.96093 0,-0.23828 0,-0.60157 0,-0.83985 h -0.23829 v 0.23828 c 0,0.36329 0,0.36329 -0.48046,0.36329 h -2.16016 v -0.96094 h -0.35938 c 0,0.23828 0,0.59765 0,0.96094 h -0.60156 c -0.83984,0 -1.08203,-0.1211 -1.08203,-0.60157 0,-0.12109 0,-0.23828 0.24219,-0.48047 z m 0,0"
     id="path920"
     style="fill:#ffffff;fill-opacity:1" />
  <path
     fill-rule="nonzero"
     fill="#79706e"
     fill-opacity="1"
     d="M 0.597651,64.683589 H 0.117191 C 9.9999994e-7,64.800779 9.9999994e-7,64.921879 9.9999994e-7,65.042969 9.9999994e-7,65.281249 0.117191,65.523439 0.238281,65.761719 l 0.60156,0.35937 c 0.23828,0.24219 0.47656,0.35938 1.07813,0.35938 h 0.24218 l 0.23829,0.48047 h 0.12109 v -0.48047 h 2.16016 c 0.48046,0 0.48046,0 0.48046,0.24219 v 0.35937 h 0.23829 c 0,-0.35937 0,-0.60156 0,-0.96094 0,-0.23828 0,-0.59765 0,-0.96093 h -0.23829 v 0.36328 c 0,0.23828 0,0.35937 -0.48046,0.35937 h -2.16016 v -0.96093 l -0.35938,-0.1211 c 0,0.35938 0,0.72266 0,1.08203 h -0.60156 c -0.83984,0 -1.08203,-0.12109 -1.08203,-0.60156 0,-0.23828 0,-0.35937 0.24219,-0.48047 z m 0,0"
     id="path922"
     style="fill:#ffffff;fill-opacity:1" />
  <path
     fill-rule="nonzero"
     fill="#79706e"
     fill-opacity="1"
     d="m 5.398441,60.363279 h -0.23829 v 0.35938 c 0,0.23828 0,0.23828 -0.48046,0.23828 h -2.76172 v 0.12109 c 0.12109,0.35938 0.24218,0.71875 0.35937,1.19922 h 0.1211 v -0.35937 c 0,-0.23829 0.12109,-0.23829 0.60156,-0.23829 h 1.19922 c 0.11718,0 0.35937,0 0.59765,0.23829 0.1211,0.23828 0.24219,0.48046 0.24219,0.71875 0,0.24218 -0.12109,0.48046 -0.24219,0.60156 -0.11718,0.12109 -0.35937,0.12109 -0.59765,0.12109 h -2.28125 v 0.11719 c 0.12109,0.35937 0.24218,0.72266 0.35937,1.08203 h 0.1211 v -0.24219 c 0,-0.23828 0.12109,-0.35937 0.60156,-0.35937 h 1.19922 c 0.59765,0 0.83984,0 0.96093,-0.1211 0.23829,-0.11718 0.35938,-0.47656 0.35938,-0.83984 0,-0.35937 -0.12109,-0.71875 -0.35938,-0.83984 l -0.36328,-0.47657 c 0.1211,0 0.24219,0 0.60157,0 0,-0.24218 0,-0.48046 0,-0.60156 0,-0.24219 0,-0.48047 0,-0.71875 z m 0,0"
     id="path924"
     style="fill:#ffffff;fill-opacity:1" />
  <path
     fill-rule="nonzero"
     fill="#79706e"
     fill-opacity="1"
     d="m 5.398441,55.921879 h -0.23829 v 0.35937 c 0,0.24219 0,0.24219 -0.48046,0.24219 h -1.44141 c -0.83984,0 -1.32031,0.47656 -1.32031,1.3164 0,0.24219 0,0.36329 0.24218,0.60157 l 0.47657,0.48047 h -0.71875 v 0.12109 c 0.12109,0.35937 0.24218,0.71875 0.35937,1.19922 h 0.1211 v -0.35938 c 0,-0.24218 0.12109,-0.24218 0.60156,-0.24218 h 1.67969 c 0.48046,0 0.48046,0 0.48046,0.24218 v 0.35938 h 0.23829 c 0,-0.35938 0,-0.60156 0,-0.96094 0,-0.35937 0,-0.59766 0,-0.96094 h -0.23829 v 0.36328 c 0,0.23829 0,0.23829 -0.48046,0.23829 h -1.5625 c -0.35938,0 -0.71875,-0.48047 -0.71875,-0.96094 0,-0.48047 0.35937,-0.71875 0.96093,-0.71875 h 2.03907 c 0,-0.24219 0,-0.48047 0,-0.60156 0,-0.23829 0,-0.48047 0,-0.71875 z m 0,0"
     id="path926"
     style="fill:#ffffff;fill-opacity:1" />
  <path
     fill-rule="nonzero"
     fill="#79706e"
     fill-opacity="1"
     d="m 5.039061,52.800779 -0.12109,0.1211 c 0.24218,0.23828 0.24218,0.48046 0.24218,0.71875 0,0.83984 -0.60156,1.4414 -1.5625,1.4414 -0.83984,0 -1.32031,-0.35937 -1.32031,-1.08203 0,-0.35937 0.1211,-0.71875 0.35938,-0.83984 h 0.48047 v -0.23828 c -0.35938,0 -0.71875,0 -0.95704,-0.1211 -0.12109,0.35938 -0.24218,0.60156 -0.24218,0.83985 0,0.35937 0.12109,0.83984 0.48047,1.32031 0.23828,0.48047 0.83984,0.72265 1.4414,0.72265 1.07813,0 1.67969,-0.72265 1.67969,-1.68359 0,-0.35937 -0.12109,-0.95703 -0.24219,-1.07812 z m 0,0"
     id="path928"
     style="fill:#ffffff;fill-opacity:1" />
  <path
     fill-rule="nonzero"
     fill="#79706e"
     fill-opacity="1"
     d="m 2.160151,50.160159 v 1.08203 h -0.24218 c -0.35938,0 -0.60157,0 -1.07813,-0.1211 v 0.1211 c 0,0.12109 0.11719,0.35937 0.23828,0.59765 0.23828,0 0.35938,0 0.60157,0 h 0.48046 l 0.23829,0.60157 h 0.23828 l -0.11719,-0.60157 h 2.16016 c 0.59765,0 0.83984,-0.23828 0.83984,-0.83984 0,-0.11719 0,-0.35937 -0.12109,-0.35937 l -0.35938,-0.35938 -0.12109,0.12109 c 0.12109,0.1211 0.12109,0.23829 0.12109,0.35938 0,0.35937 -0.12109,0.48047 -0.48047,0.48047 h -2.03906 v -0.96094 z m 0,0"
     id="path930"
     style="fill:#ffffff;fill-opacity:1" />
  <path
     fill-rule="nonzero"
     fill="#79706e"
     fill-opacity="1"
     d="m 5.398441,48.121089 h -0.23829 v 0.35938 c 0,0.24219 0,0.24219 -0.48046,0.24219 h -2.76172 v 0.11718 c 0.12109,0.36329 0.24218,0.72266 0.35937,1.08204 h 0.1211 v -0.23829 c 0,-0.24218 0.12109,-0.36328 0.60156,-0.36328 h 1.67969 c 0.48046,0 0.48046,0.1211 0.48046,0.36328 v 0.35938 h 0.23829 c 0,-0.35938 0,-0.72266 0,-0.96094 0,-0.35937 0,-0.60156 0,-0.96094 z m -4.67969,0.60157 c -0.24219,0 -0.48047,0.11718 -0.48047,0.35937 0,0.23828 0.23828,0.35938 0.48047,0.35938 0.12109,0 0.35937,-0.1211 0.35937,-0.35938 0,-0.24219 -0.23828,-0.35937 -0.35937,-0.35937 z m 0,0"
     id="path932"
     style="fill:#ffffff;fill-opacity:1" />
  <path
     fill-rule="nonzero"
     fill="#79706e"
     fill-opacity="1"
     d="m 3.597651,44.160159 c -0.96093,0 -1.67968,0.72265 -1.67968,1.67968 0,1.08204 0.71875,1.92188 1.92187,1.92188 0.95703,0 1.67969,-0.71875 1.67969,-1.67969 0,-1.08203 -0.72266,-1.92187 -1.92188,-1.92187 z m 0.35938,0.72265 c 0.83984,0 1.32031,0.35938 1.32031,0.95703 0,0.72266 -0.71875,1.20313 -1.67969,1.20313 -0.96093,0 -1.4375,-0.35938 -1.4375,-0.96094 0,-0.71875 0.71875,-1.19922 1.79688,-1.19922 z m 0,0"
     id="path934"
     style="fill:#ffffff;fill-opacity:1" />
  <path
     fill-rule="nonzero"
     fill="#79706e"
     fill-opacity="1"
     d="m 5.398441,39.601559 h -0.23829 v 0.35938 c 0,0.24219 0,0.24219 -0.48046,0.24219 h -1.44141 c -0.83984,0 -1.32031,0.35937 -1.32031,1.19921 0,0.35938 0,0.48047 0.24218,0.59766 l 0.47657,0.60156 h -0.71875 v 0.1211 c 0.12109,0.35937 0.24218,0.71875 0.35937,1.07812 h 0.1211 v -0.23828 c 0,-0.24219 0.12109,-0.35937 0.60156,-0.35937 h 1.67969 c 0.48046,0 0.48046,0 0.48046,0.35937 v 0.23828 h 0.23829 c 0,-0.23828 0,-0.59765 0,-0.83984 0,-0.35938 0,-0.71875 0,-0.96094 h -0.23829 v 0.36328 c 0,0.23828 0,0.23828 -0.48046,0.23828 h -1.5625 c -0.35938,0 -0.71875,-0.48047 -0.71875,-0.96093 0,-0.48047 0.35937,-0.83985 0.96093,-0.83985 h 2.03907 c 0,-0.11719 0,-0.35937 0,-0.59765 0,-0.1211 0,-0.36329 0,-0.60157 z m 0,0"
     id="path936"
     style="fill:#ffffff;fill-opacity:1" />
  <path
     fill-rule="nonzero"
     fill="#79706e"
     fill-opacity="1"
     d="m 3.359371,34.320309 c -0.83984,0 -1.4414,0.60157 -1.4414,1.44141 0,0.23828 0.12109,0.60156 0.24218,0.83984 0.35938,0.60157 0.83985,0.83985 1.67969,0.83985 0.35938,0 0.83985,-0.1211 1.07813,-0.23828 0.35937,-0.36329 0.60156,-0.83985 0.60156,-1.44141 0,-0.23828 0,-0.48047 -0.12109,-0.83984 -0.1211,-0.1211 -0.23829,-0.35938 -0.23829,-0.35938 l -0.24218,-0.12109 -0.1211,0.12109 c 0.36328,0.48047 0.36328,0.59766 0.36328,0.96094 0,0.47656 -0.24218,0.83984 -0.60156,1.07812 -0.24219,0.1211 -0.48047,0.1211 -0.83984,0.23828 v -1.19921 c 0,-0.48047 0,-0.83985 -0.1211,-1.32032 -0.12109,0 -0.12109,0 -0.23828,0 z m 0.11719,0.72266 v 0.83984 c 0,0.23828 0,0.48047 -0.11719,0.83985 -0.35937,0 -0.48047,0 -0.72265,-0.1211 -0.23828,-0.12109 -0.47657,-0.48047 -0.47657,-0.83984 0,-0.23828 0.11719,-0.35938 0.35938,-0.48047 0.23828,-0.23828 0.35937,-0.23828 0.95703,-0.23828 z m 0,0"
     id="path938"
     style="fill:#ffffff;fill-opacity:1" />
  <path
     fill-rule="nonzero"
     fill="#79706e"
     fill-opacity="1"
     d="m 2.160151,30.121089 h -0.12109 c 0,0.24219 0,0.48047 0,0.71875 0,0.24219 0,0.48047 0,0.72266 h 0.12109 v -0.35937 c 0.11719,-0.24219 0.23829,-0.24219 0.83985,0 l 0.71875,0.35937 1.07812,0.48047 -2.16015,0.83984 c -0.23828,0.11719 -0.35938,0.11719 -0.47657,-0.12109 v -0.35938 h -0.12109 c 0,0.23829 0,0.59766 0,0.83985 0,0.35937 0,0.59765 0,0.83984 h 0.12109 v -0.24219 c 0.11719,-0.11718 0.11719,-0.11718 0.35938,-0.23828 l 3,-1.19922 v -0.35937 c -0.24219,-0.12109 -0.48047,-0.24219 -0.83984,-0.35938 l -1.92188,-0.84375 c -0.48047,-0.23828 -0.48047,-0.35937 -0.59766,-0.47656 z m 0,0"
     id="path940"
     style="fill:#ffffff;fill-opacity:1" />
  <path
     fill-rule="nonzero"
     fill="#79706e"
     fill-opacity="1"
     d="m 5.398441,26.640629 h -0.23829 v 0.35937 c 0,0.12109 0,0.12109 -0.36328,0.12109 h -1.4375 c -1.08203,0 -1.4414,0.35938 -1.4414,1.19922 0,0.36328 0.12109,0.60157 0.24218,0.96094 l 0.23829,0.35938 h 0.48046 l 0.1211,-0.23829 h -0.24219 c -0.35937,-0.24218 -0.48047,-0.24218 -0.48047,-0.60156 0,-0.71875 0.35938,-1.07812 0.96094,-1.07812 l 0.12109,0.71875 c 0.23828,1.08203 0.59766,1.4414 1.19922,1.4414 0.60156,0 0.96094,-0.24218 0.96094,-0.83984 0,-0.24219 0,-0.35938 -0.12109,-0.35938 l -0.60157,-0.96093 0.60157,0.11718 c 0,-0.23828 0,-0.47656 0,-0.59765 0,-0.24219 0,-0.35938 0,-0.60156 z m -0.96094,1.08203 c 0.35937,0.23828 0.60156,0.71875 0.60156,0.96093 0,0.35938 -0.24219,0.59766 -0.60156,0.59766 -0.23828,0 -0.48047,-0.12109 -0.59766,-0.35937 -0.12109,-0.23829 -0.24219,-0.60157 -0.36328,-1.19922 z m 0,0"
     id="path942"
     style="fill:#ffffff;fill-opacity:1" />
  <path
     fill-rule="nonzero"
     fill="#79706e"
     fill-opacity="1"
     d="m 5.398441,24.363279 h -0.23829 v 0.35938 c 0,0.23828 0,0.35937 -0.48046,0.35937 H 9.9999994e-7 C 0.117191,25.441409 0.238281,25.683589 0.238281,26.281249 h 0.23828 v -0.48047 c 0,-0.11719 0.12109,-0.11719 0.36328,-0.11719 h 3.83985 c 0.48046,0 0.48046,0 0.48046,0.23829 v 0.35937 h 0.23829 c 0,-0.35937 0,-0.59766 0,-0.96094 0,-0.23828 0,-0.59765 0,-0.95703 z m 0,0"
     id="path944"
     style="fill:#ffffff;fill-opacity:1" />
  <path
     fill-rule="nonzero"
     fill="#79706e"
     fill-opacity="1"
     d="m 5.398441,19.921879 h -0.23829 v 0.35937 c 0,0.24219 0,0.24219 -0.48046,0.24219 h -2.76172 c 0.12109,0.47656 0.24218,0.83984 0.35937,1.19922 h 0.1211 v -0.24219 c 0,-0.35938 0.12109,-0.35938 0.60156,-0.35938 h 1.19922 c 0.11718,0 0.35937,0.1211 0.59765,0.24219 0.1211,0.23828 0.24219,0.47656 0.24219,0.83985 0,0.23828 -0.12109,0.35937 -0.24219,0.48046 -0.11718,0.11719 -0.35937,0.23829 -0.59765,0.23829 h -2.28125 c 0.12109,0.48046 0.24218,0.83984 0.35937,1.19921 h 0.1211 v -0.23828 c 0,-0.35937 0.12109,-0.35937 0.60156,-0.35937 h 1.19922 c 0.59765,0 0.83984,0 0.96093,-0.1211 0.23829,-0.24218 0.35938,-0.48046 0.35938,-0.96093 0,-0.35938 -0.12109,-0.60157 -0.35938,-0.83985 l -0.36328,-0.48047 c 0.1211,0 0.24219,0 0.60157,0 0,-0.12109 0,-0.35937 0,-0.59765 0,-0.24219 0,-0.36328 0,-0.60156 z m 0,0"
     id="path946"
     style="fill:#ffffff;fill-opacity:1" />
  <path
     fill-rule="nonzero"
     fill="#79706e"
     fill-opacity="1"
     d="m 5.398441,16.203129 h -0.23829 v 0.35937 c 0,0.12109 0,0.12109 -0.36328,0.12109 h -1.4375 c -1.08203,0 -1.4414,0.35938 -1.4414,1.19922 0,0.35938 0.12109,0.59766 0.24218,0.95703 l 0.23829,0.36329 h 0.48046 l 0.1211,-0.1211 -0.24219,-0.12109 c -0.35937,-0.23828 -0.48047,-0.23828 -0.48047,-0.59766 0,-0.72265 0.35938,-0.96094 0.96094,-1.08203 l 0.12109,0.83984 c 0.23828,0.96094 0.59766,1.44141 1.19922,1.44141 0.60156,0 0.96094,-0.35937 0.96094,-0.96094 0,-0.12109 0,-0.23828 -0.12109,-0.35937 l -0.60157,-0.96094 0.60157,0.12109 c 0,-0.24218 0,-0.35937 0,-0.60156 0,-0.23828 0,-0.35937 0,-0.59765 z m -0.96094,1.07812 c 0.35937,0.24219 0.60156,0.71875 0.60156,1.08203 0,0.23828 -0.24219,0.47656 -0.60156,0.47656 -0.23828,0 -0.48047,-0.11718 -0.59766,-0.35937 -0.12109,-0.11719 -0.24219,-0.59766 -0.36328,-1.19922 z m 0,0"
     id="path948"
     style="fill:#ffffff;fill-opacity:1" />
  <path
     fill-rule="nonzero"
     fill="#79706e"
     fill-opacity="1"
     d="m 2.160151,13.683589 v 0.95704 h -0.24218 c -0.35938,0 -0.60157,0 -1.07813,-0.11719 v 0.11719 c 0,0.24218 0.11719,0.48046 0.23828,0.72265 0.23828,-0.12109 0.35938,-0.12109 0.60157,-0.12109 h 0.48046 l 0.23829,0.59765 h 0.23828 l -0.11719,-0.59765 h 2.16016 c 0.59765,0 0.83984,-0.24219 0.83984,-0.71875 0,-0.24219 0,-0.36328 -0.12109,-0.48047 l -0.35938,-0.35938 -0.12109,0.11719 c 0.12109,0.24219 0.12109,0.35938 0.12109,0.48047 0,0.24219 -0.12109,0.35938 -0.48047,0.35938 h -2.03906 v -0.95704 z m 0,0"
     id="path950"
     style="fill:#ffffff;fill-opacity:1" />
  <path
     fill-rule="nonzero"
     fill="#79706e"
     fill-opacity="1"
     d="m 5.398441,11.523439 h -0.23829 v 0.35937 c 0,0.23828 0,0.23828 -0.48046,0.23828 h -2.76172 v 0.1211 c 0.12109,0.35937 0.24218,0.71875 0.35937,1.19922 h 0.1211 v -0.35938 c 0,-0.24219 0.12109,-0.24219 0.60156,-0.24219 h 1.67969 c 0.48046,0 0.48046,0 0.48046,0.24219 v 0.35938 h 0.23829 c 0,-0.35938 0,-0.60157 0,-0.96094 0,-0.35938 0,-0.59766 0,-0.95703 z m -4.67969,0.59765 c -0.24219,0 -0.48047,0.1211 -0.48047,0.35938 0,0.24219 0.23828,0.35937 0.48047,0.35937 0.12109,0 0.35937,-0.11718 0.35937,-0.35937 0,-0.23828 -0.23828,-0.35938 -0.35937,-0.35938 z m 0,0"
     id="path952"
     style="fill:#ffffff;fill-opacity:1" />
  <path
     fill-rule="nonzero"
     fill="#79706e"
     fill-opacity="1"
     d="m 3.597651,7.562499 c -0.96093,0 -1.67968,0.71875 -1.67968,1.80078 0,1.07813 0.71875,1.79688 1.92187,1.79688 0.95703,0 1.67969,-0.59766 1.67969,-1.5586 0,-1.19922 -0.72266,-2.03906 -1.92188,-2.03906 z m 0.35938,0.71875 c 0.83984,0 1.32031,0.35938 1.32031,0.96094 0,0.71875 -0.71875,1.19922 -1.67969,1.19922 -0.96093,0 -1.4375,-0.35938 -1.4375,-0.96094 0,-0.71875 0.71875,-1.19922 1.79688,-1.19922 z m 0,0"
     id="path954"
     style="fill:#ffffff;fill-opacity:1" />
  <path
     fill-rule="nonzero"
     fill="#79706e"
     fill-opacity="1"
     d="m 5.398441,2.999999 h -0.23829 v 0.36328 c 0,0.23828 0,0.23828 -0.48046,0.23828 h -1.44141 c -0.83984,0 -1.32031,0.48047 -1.32031,1.32032 0,0.23828 0,0.35937 0.24218,0.60156 l 0.47657,0.47656 h -0.71875 v 0.12109 c 0.12109,0.35938 0.24218,0.71875 0.35937,1.19922 h 0.1211 v -0.35937 c 0,-0.23828 0.12109,-0.23828 0.60156,-0.23828 h 1.67969 c 0.48046,0 0.48046,0 0.48046,0.23828 v 0.35937 h 0.23829 c 0,-0.35937 0,-0.59765 0,-0.95703 0,-0.36328 0,-0.60156 0,-0.96094 h -0.23829 v 0.35938 c 0,0.23828 0,0.23828 -0.48046,0.23828 h -1.5625 c -0.35938,0 -0.71875,-0.47656 -0.71875,-0.95703 0,-0.48047 0.35937,-0.72266 0.96093,-0.72266 h 2.03907 c 0,-0.23828 0,-0.48047 0,-0.59765 0,-0.24219 0,-0.48047 0,-0.72266 z m 0,0"
     id="path956"
     style="fill:#ffffff;fill-opacity:1" />
  <path
     fill-rule="nonzero"
     fill="#79706e"
     fill-opacity="1"
     d="m 4.316401,-1.0000001e-6 c -0.23828,0 -0.35937,0.1210900000001 -0.59765,0.2421900000001 -0.1211,0.23828 -0.24219,0.48047 -0.35938,1.07812 -0.12109,0.72266 -0.24218,0.83985 -0.60156,0.83985 -0.35937,0 -0.59766,-0.23828 -0.59766,-0.71875 0,-0.48047 0.23829,-0.83985 0.59766,-0.83985 h 0.24219 v -0.23828 c -0.48047,0 -0.72266,0 -0.83985,0 -0.24218,0.35938 -0.24218,0.59766 -0.24218,0.95703 0,0.83985 0.35937,1.44141 1.08203,1.44141 0.35937,0 0.59765,-0.23828 0.71875,-0.60156 0.12109,-0.11719 0.23828,-0.59766 0.35937,-1.07813 0.1211,-0.35937 0.23828,-0.48047 0.48047,-0.48047 0.48047,0 0.71875,0.35938 0.71875,0.96094 0,0.48047 -0.23828,0.83984 -0.59765,0.83984 h -0.36329 v 0.23829 c 0.60157,0 0.72266,0 1.08204,0.12109 0.12109,-0.35938 0.12109,-0.71875 0.12109,-1.07813 0,-0.96093 -0.48047,-1.6835900000001 -1.20313,-1.6835900000001 z m 0,0"
     id="path958"
     style="fill:#ffffff;fill-opacity:1" />
</svg>
