<?xml version="1.0" encoding="utf-8"?>
<!-- Generator: Adobe Illustrator 25.2.0, SVG Export Plug-In . SVG Version: 6.00 Build 0)  -->
<svg version="1.1" id="Layer_1" xmlns="http://www.w3.org/2000/svg" xmlns:xlink="http://www.w3.org/1999/xlink" x="0px" y="0px"
	 width="1297px" height="628px" viewBox="0 0 1297 628" style="enable-background:new 0 0 1297 628;" xml:space="preserve">
<style type="text/css">
	.st0{fill:none;}
	.st1{fill:#00427E;}
	.st2{fill:#D7E7FF;}
	.st3{fill:#5B7FAD;}
	.st4{opacity:0.2;fill:#B32C39;enable-background:new    ;}
	.st5{fill:url(#SVGID_6_);stroke:#00427E;stroke-miterlimit:10;}
	.st6{opacity:0.25;fill:#F1626E;enable-background:new    ;}
	.st7{fill:#B32C39;}
	.st8{fill:#8E2433;}
	.st9{fill:#325275;}
	.st10{fill:#317C38;}
	.st11{fill:url(#SVGID_7_);}
	.st12{fill:url(#SVGID_8_);}
	.st13{fill:url(#SVGID_9_);}
	.st14{fill:url(#SVGID_10_);}
	.st15{fill:none;stroke:#00B5FF;stroke-width:6;stroke-linecap:round;stroke-linejoin:round;}
	.st16{fill:none;stroke:url(#SVGID_11_);stroke-width:6;stroke-linecap:round;stroke-linejoin:round;}
	.st17{fill:none;stroke:url(#SVGID_12_);stroke-width:6;stroke-linecap:round;stroke-linejoin:round;}
	.st18{fill:none;stroke:url(#SVGID_13_);stroke-width:6;stroke-linecap:round;stroke-linejoin:round;}
	.st19{fill:none;stroke:url(#SVGID_14_);stroke-width:6;stroke-linecap:round;stroke-linejoin:round;}
	.st20{fill:none;stroke:url(#SVGID_15_);stroke-width:6;stroke-linecap:round;stroke-linejoin:round;}
	.st21{fill:none;stroke:url(#SVGID_16_);stroke-width:6;stroke-linecap:round;stroke-linejoin:round;}
	.st22{fill:none;stroke:#BD3B55;stroke-width:6;stroke-linecap:round;stroke-linejoin:round;}
	
		.st23{opacity:0.5;fill:none;stroke:url(#SVGID_17_);stroke-width:6;stroke-linecap:round;stroke-linejoin:round;enable-background:new    ;}
	
		.st24{opacity:0.99;fill:none;stroke:url(#SVGID_18_);stroke-width:2;stroke-linecap:round;stroke-linejoin:round;enable-background:new    ;}
	.st25{fill:none;stroke:#CE3045;stroke-width:6;stroke-linecap:round;stroke-linejoin:round;}
	.st26{fill:none;stroke:#3990CB;stroke-width:6;stroke-linecap:round;stroke-linejoin:round;}
	.st27{fill:none;stroke:#AA4765;stroke-width:6;stroke-linecap:round;stroke-linejoin:round;}
	.st28{fill:none;stroke:#39B54A;stroke-width:8;stroke-linecap:round;stroke-linejoin:round;}
</style>
<pattern  x="240" y="628" width="10.8" height="10.8" patternUnits="userSpaceOnUse" id="SVGID_1_" viewBox="12.3 -23.6 10.8 10.8" style="overflow:visible;">
	<g>
		<rect x="12.3" y="-23.6" class="st0" width="10.8" height="10.8"/>
		<rect x="12.3" y="-23.6" class="st0" width="10.8" height="10.8"/>
		<rect x="12.3" y="-23.6" class="st0" width="10.8" height="10.8"/>
		<polygon class="st1" points="21.6,-13.9 22.6,-14.9 36.5,-1 35.5,0 		"/>
		<polygon class="st1" points="10.8,-13.9 11.8,-14.9 25.7,-1 24.7,0 		"/>
		<polygon class="st1" points="0,-13.9 1,-14.9 14.9,-1 13.9,0 		"/>
		<polygon class="st1" points="21.6,-24.7 22.6,-25.7 36.5,-11.8 35.5,-10.8 		"/>
		<polygon class="st1" points="10.8,-24.7 11.8,-25.7 25.7,-11.8 24.7,-10.8 		"/>
		<polygon class="st1" points="0,-24.7 1,-25.7 14.9,-11.8 13.9,-10.8 		"/>
		<polygon class="st1" points="21.6,-35.5 22.6,-36.5 36.5,-22.6 35.5,-21.6 		"/>
		<polygon class="st1" points="10.8,-35.5 11.8,-36.5 25.7,-22.6 24.7,-21.6 		"/>
		<polygon class="st1" points="0,-35.5 1,-36.5 14.9,-22.6 13.9,-21.6 		"/>
	</g>
</pattern>
<pattern  x="240" y="628" width="5.4" height="5.4" patternUnits="userSpaceOnUse" id="SVGID_2_" viewBox="9.3 -15.2 5.4 5.4" style="overflow:visible;">
	<g>
		<rect x="9.3" y="-15.2" class="st0" width="5.4" height="5.4"/>
		<rect x="9.3" y="-15.2" class="st0" width="5.4" height="5.4"/>
		<rect x="9.3" y="-15.2" class="st0" width="5.4" height="5.4"/>
		<polygon class="st1" points="10.8,-13.9 11.3,-14.4 25.2,-0.5 24.7,0 		"/>
		<polygon class="st1" points="5.4,-13.9 5.9,-14.4 19.8,-0.5 19.3,0 		"/>
		<polygon class="st1" points="0,-13.9 0.5,-14.4 14.4,-0.5 13.9,0 		"/>
		<polygon class="st1" points="10.8,-19.3 11.3,-19.8 25.2,-5.9 24.7,-5.4 		"/>
		<polygon class="st1" points="5.4,-19.3 5.9,-19.8 19.8,-5.9 19.3,-5.4 		"/>
		<polygon class="st1" points="0,-19.3 0.5,-19.8 14.4,-5.9 13.9,-5.4 		"/>
		<polygon class="st1" points="10.8,-24.7 11.3,-25.2 25.2,-11.3 24.7,-10.8 		"/>
		<polygon class="st1" points="5.4,-24.7 5.9,-25.2 19.8,-11.3 19.3,-10.8 		"/>
		<polygon class="st1" points="0,-24.7 0.5,-25.2 14.4,-11.3 13.9,-10.8 		"/>
	</g>
</pattern>
<pattern  x="240" y="628" width="5.4" height="5.4" patternUnits="userSpaceOnUse" id="SVGID_4_" viewBox="9.3 -15.2 5.4 5.4" style="overflow:visible;">
	<g>
		<rect x="9.3" y="-15.2" class="st0" width="5.4" height="5.4"/>
		<rect x="9.3" y="-15.2" class="st0" width="5.4" height="5.4"/>
		<rect x="9.3" y="-15.2" class="st0" width="5.4" height="5.4"/>
		<polygon class="st1" points="10.8,-13.9 11.3,-14.4 25.2,-0.5 24.7,0 		"/>
		<polygon class="st1" points="5.4,-13.9 5.9,-14.4 19.8,-0.5 19.3,0 		"/>
		<polygon class="st1" points="0,-13.9 0.5,-14.4 14.4,-0.5 13.9,0 		"/>
		<polygon class="st1" points="10.8,-19.3 11.3,-19.8 25.2,-5.9 24.7,-5.4 		"/>
		<polygon class="st1" points="5.4,-19.3 5.9,-19.8 19.8,-5.9 19.3,-5.4 		"/>
		<polygon class="st1" points="0,-19.3 0.5,-19.8 14.4,-5.9 13.9,-5.4 		"/>
		<polygon class="st1" points="10.8,-24.7 11.3,-25.2 25.2,-11.3 24.7,-10.8 		"/>
		<polygon class="st1" points="5.4,-24.7 5.9,-25.2 19.8,-11.3 19.3,-10.8 		"/>
		<polygon class="st1" points="0,-24.7 0.5,-25.2 14.4,-11.3 13.9,-10.8 		"/>
	</g>
</pattern>
<g id="Plane">
	<path class="st2" d="M911,455.6L749,332.1c0,0,29.1,3.6,33.9,0s32.2-110.8,11.3-160.7c-3.6-8.7-96.7-12.1-101.5-1.6
		c-14.5,31.5-9.7,96.6-6.4,112.8L549.3,178.6V0H368.4v178.6L240,276.1v257l125.2-20.2V628h187.4V512.9l199.8,32.2L911,627.5V455.6z"
		/>
</g>
<g id="Components">
	<polygon class="st3" points="750.2,287 737.2,287 737.2,197.5 750.1,197.6 	"/>
	<path class="st4" d="M760.3,287H727c-6.6,0-12-5.4-12-12v-55c0-6.6,5.4-12,12-12h33.3c6.6,0,12,5.4,12,12v55
		C772.3,281.6,766.9,287,760.3,287z"/>
	<pattern  id="SVGID_6_" xlink:href="#SVGID_1_" patternTransform="matrix(1 0 0 1 -626.4799 112.79)">
	</pattern>
	<path class="st5" d="M499.7,162h-82.4c-6.6,0-12-5.4-12-12V86c0-6.6,5.4-12,12-12h82.4c6.6,0,12,5.4,12,12v64
		C511.7,156.6,506.3,162,499.7,162z"/>
	<path class="st3" d="M532,282.9H385c-6.6,0-12-5.4-12-12v-68.2c0-6.6,5.4-12,12-12h147c6.6,0,12,5.4,12,12v68.2
		C544,277.5,538.6,282.8,532,282.9z"/>
	<path class="st6" d="M527,614H392c-6.6,0-12-5.4-12-12V406c0-6.6,5.4-12,12-12h135c6.6,0,12,5.4,12,12v196
		C539,608.6,533.6,614,527,614z"/>
	<circle class="st7" cx="517.7" cy="453" r="4"/>
	<circle class="st7" cx="509.7" cy="453" r="4"/>
	<circle class="st7" cx="501.7" cy="453" r="4"/>
	<circle class="st7" cx="493.7" cy="453" r="4"/>
	<circle class="st7" cx="485.7" cy="453" r="4"/>
	<circle class="st7" cx="477.7" cy="453" r="4"/>
	<circle class="st7" cx="469.7" cy="453" r="4"/>
	<circle class="st7" cx="461.7" cy="453" r="4"/>
	<circle class="st7" cx="453.7" cy="453" r="4"/>
	<circle class="st7" cx="445.8" cy="453" r="4"/>
	<circle class="st7" cx="437.8" cy="453" r="4"/>
	<circle class="st7" cx="429.8" cy="453" r="4"/>
	<circle class="st7" cx="421.8" cy="453" r="4"/>
	<circle class="st7" cx="413.8" cy="453" r="4"/>
	<circle class="st7" cx="405.8" cy="453" r="4"/>
	<circle class="st7" cx="513.2" cy="461.1" r="4"/>
	<circle class="st7" cx="505.2" cy="461.1" r="4"/>
	<circle class="st7" cx="497.2" cy="461.1" r="4"/>
	<circle class="st7" cx="489.2" cy="461.1" r="4"/>
	<circle class="st7" cx="481.3" cy="461.1" r="4"/>
	<circle class="st7" cx="473.3" cy="461.1" r="4"/>
	<circle class="st7" cx="465.3" cy="461.1" r="4"/>
	<circle class="st7" cx="457.3" cy="461.1" r="4"/>
	<circle class="st7" cx="449.3" cy="461.1" r="4"/>
	<circle class="st7" cx="441.3" cy="461.1" r="4"/>
	<circle class="st7" cx="433.3" cy="461.1" r="4"/>
	<circle class="st7" cx="425.3" cy="461.1" r="4"/>
	<circle class="st7" cx="417.3" cy="461.1" r="4"/>
	<circle class="st7" cx="409.3" cy="461.1" r="4"/>
	<circle class="st7" cx="401.3" cy="461.1" r="4"/>
	<circle class="st7" cx="517.7" cy="485" r="4"/>
	<circle class="st7" cx="509.7" cy="485" r="4"/>
	<circle class="st7" cx="501.7" cy="485" r="4"/>
	<circle class="st7" cx="493.7" cy="485" r="4"/>
	<circle class="st7" cx="485.7" cy="485" r="4"/>
	<circle class="st7" cx="477.7" cy="485" r="4"/>
	<circle class="st7" cx="469.7" cy="485" r="4"/>
	<circle class="st7" cx="461.7" cy="485" r="4"/>
	<circle class="st7" cx="453.7" cy="485" r="4"/>
	<circle class="st7" cx="445.8" cy="485" r="4"/>
	<circle class="st7" cx="437.8" cy="485" r="4"/>
	<circle class="st7" cx="429.8" cy="485" r="4"/>
	<circle class="st7" cx="421.8" cy="485" r="4"/>
	<circle class="st7" cx="413.8" cy="485" r="4"/>
	<circle class="st7" cx="405.8" cy="485" r="4"/>
	<circle class="st7" cx="513.2" cy="493.1" r="4"/>
	<circle class="st7" cx="505.2" cy="493.1" r="4"/>
	<circle class="st7" cx="497.2" cy="493.1" r="4"/>
	<circle class="st7" cx="489.2" cy="493.1" r="4"/>
	<circle class="st7" cx="481.3" cy="493.1" r="4"/>
	<circle class="st7" cx="473.3" cy="493.1" r="4"/>
	<circle class="st7" cx="465.3" cy="493.1" r="4"/>
	<circle class="st7" cx="457.3" cy="493.1" r="4"/>
	<circle class="st7" cx="449.3" cy="493.1" r="4"/>
	<circle class="st7" cx="441.3" cy="493.1" r="4"/>
	<circle class="st7" cx="433.3" cy="493.1" r="4"/>
	<circle class="st7" cx="425.3" cy="493.1" r="4"/>
	<circle class="st7" cx="417.3" cy="493.1" r="4"/>
	<circle class="st7" cx="409.3" cy="493.1" r="4"/>
	<circle class="st7" cx="401.3" cy="493.1" r="4"/>
	<circle class="st7" cx="517.7" cy="517" r="4"/>
	<circle class="st7" cx="509.7" cy="517" r="4"/>
	<circle class="st7" cx="501.7" cy="517" r="4"/>
	<circle class="st7" cx="493.7" cy="517" r="4"/>
	<circle class="st7" cx="485.7" cy="517" r="4"/>
	<circle class="st7" cx="477.7" cy="517" r="4"/>
	<circle class="st7" cx="469.7" cy="517" r="4"/>
	<circle class="st7" cx="461.7" cy="517" r="4"/>
	<circle class="st7" cx="453.7" cy="517" r="4"/>
	<circle class="st7" cx="445.8" cy="517" r="4"/>
	<circle class="st7" cx="437.8" cy="517" r="4"/>
	<circle class="st7" cx="429.8" cy="517" r="4"/>
	<circle class="st7" cx="421.8" cy="517" r="4"/>
	<circle class="st7" cx="413.8" cy="517" r="4"/>
	<circle class="st7" cx="405.8" cy="517" r="4"/>
	<circle class="st7" cx="513.2" cy="525" r="4"/>
	<circle class="st7" cx="505.2" cy="525" r="4"/>
	<circle class="st7" cx="497.2" cy="525" r="4"/>
	<circle class="st7" cx="489.2" cy="525" r="4"/>
	<circle class="st7" cx="481.3" cy="525" r="4"/>
	<circle class="st7" cx="473.3" cy="525" r="4"/>
	<circle class="st7" cx="465.3" cy="525" r="4"/>
	<circle class="st7" cx="457.3" cy="525" r="4"/>
	<circle class="st7" cx="449.3" cy="525" r="4"/>
	<circle class="st7" cx="441.3" cy="525" r="4"/>
	<circle class="st7" cx="433.3" cy="525" r="4"/>
	<circle class="st7" cx="425.3" cy="525" r="4"/>
	<circle class="st7" cx="417.3" cy="525" r="4"/>
	<circle class="st7" cx="409.3" cy="525" r="4"/>
	<circle class="st7" cx="401.3" cy="525.1" r="4"/>
	<circle class="st7" cx="517.7" cy="549" r="4"/>
	<circle class="st7" cx="509.7" cy="549" r="4"/>
	<circle class="st7" cx="501.7" cy="549" r="4"/>
	<circle class="st7" cx="493.7" cy="549" r="4"/>
	<circle class="st7" cx="485.7" cy="549" r="4"/>
	<circle class="st7" cx="477.7" cy="549" r="4"/>
	<circle class="st7" cx="469.7" cy="549" r="4"/>
	<circle class="st7" cx="461.7" cy="549" r="4"/>
	<circle class="st7" cx="453.7" cy="549" r="4"/>
	<circle class="st7" cx="445.8" cy="549" r="4"/>
	<circle class="st7" cx="437.8" cy="549" r="4"/>
	<circle class="st7" cx="429.8" cy="549" r="4"/>
	<circle class="st7" cx="421.8" cy="549" r="4"/>
	<circle class="st7" cx="413.8" cy="549" r="4"/>
	<circle class="st7" cx="405.8" cy="549" r="4"/>
	<circle class="st7" cx="513.2" cy="557" r="4"/>
	<circle class="st7" cx="505.2" cy="557" r="4"/>
	<circle class="st7" cx="497.2" cy="557" r="4"/>
	<circle class="st7" cx="489.2" cy="557" r="4"/>
	<circle class="st7" cx="481.3" cy="557" r="4"/>
	<circle class="st7" cx="473.3" cy="557" r="4"/>
	<circle class="st7" cx="465.3" cy="557" r="4"/>
	<circle class="st7" cx="457.3" cy="557" r="4"/>
	<circle class="st7" cx="449.3" cy="557" r="4"/>
	<circle class="st7" cx="441.3" cy="557" r="4"/>
	<circle class="st7" cx="433.3" cy="557" r="4"/>
	<circle class="st7" cx="425.3" cy="557" r="4"/>
	<circle class="st7" cx="417.3" cy="557" r="4"/>
	<circle class="st7" cx="409.3" cy="557" r="4"/>
	<circle class="st7" cx="401.3" cy="557" r="4"/>
	<circle class="st7" cx="517.7" cy="581" r="4"/>
	<circle class="st7" cx="509.7" cy="581" r="4"/>
	<circle class="st7" cx="501.7" cy="581" r="4"/>
	<circle class="st7" cx="493.7" cy="581" r="4"/>
	<circle class="st7" cx="485.7" cy="581" r="4"/>
	<circle class="st7" cx="477.7" cy="581" r="4"/>
	<circle class="st7" cx="469.7" cy="581" r="4"/>
	<circle class="st7" cx="461.7" cy="581" r="4"/>
	<circle class="st7" cx="453.7" cy="581" r="4"/>
	<circle class="st7" cx="445.8" cy="581" r="4"/>
	<circle class="st7" cx="437.8" cy="581" r="4"/>
	<circle class="st7" cx="429.8" cy="581" r="4"/>
	<circle class="st7" cx="421.8" cy="581" r="4"/>
	<circle class="st7" cx="413.8" cy="581" r="4"/>
	<circle class="st7" cx="405.8" cy="581" r="4"/>
	<circle class="st7" cx="513.2" cy="589" r="4"/>
	<circle class="st7" cx="505.2" cy="589" r="4"/>
	<circle class="st7" cx="497.2" cy="589" r="4"/>
	<circle class="st7" cx="489.2" cy="589" r="4"/>
	<circle class="st7" cx="481.3" cy="589" r="4"/>
	<circle class="st7" cx="473.3" cy="589" r="4"/>
	<circle class="st7" cx="465.3" cy="589" r="4"/>
	<circle class="st7" cx="457.3" cy="589" r="4"/>
	<circle class="st7" cx="449.3" cy="589" r="4"/>
	<circle class="st7" cx="441.3" cy="589" r="4"/>
	<circle class="st7" cx="433.3" cy="589" r="4"/>
	<circle class="st7" cx="425.3" cy="589" r="4"/>
	<circle class="st7" cx="417.3" cy="589" r="4"/>
	<circle class="st7" cx="409.3" cy="589" r="4"/>
	<circle class="st7" cx="401.3" cy="589" r="4"/>
	<path class="st3" d="M791.1,187.3c0,0-15.8-0.1-26.2,1.5c-5.4,0.8-10.9,1.2-16.4,1.4c-1.1-2.5-2.8-4.7-4.8-6.4v0
		c-2,1.8-3.7,4-4.8,6.5c-5.5-0.1-11-0.6-16.4-1.4c-10.5-1.6-26.2-1.5-26.2-1.5s-0.6,6.9,1.6,10.7c0,0,7.1,0.7,13-2.3
		c5.7-2.8,9.1-4,13.6-4c2.7,0,9.1,0,13.8,0.1c-0.7,1.9-1,3.8-1,5.8h6.4v0h6.4c0-2-0.3-3.9-1-5.8c4.7,0,11.1-0.1,13.8-0.1
		c4.5,0,7.9,1.1,13.6,4c5.9,2.9,13,2.3,13,2.3C791.7,194.2,791.1,187.3,791.1,187.3z"/>
	<path class="st7" d="M758.3,327H729c-5,0-9-4-9-9v-22c0-5,4-9,9-9h29.3c5,0,9,4,9,9v22C767.3,323,763.3,327,758.3,327
		C758.3,327,758.3,327,758.3,327z"/>
	<rect x="383" y="211" class="st0" width="151" height="58"/>
	<path class="st2" d="M447.4,215.9H442v-3.8h15.6v3.8H452v16.4h-4.6V215.9z"/>
	<path class="st2" d="M462.5,227.1l-1.4,5.2h-4.7l6.2-20.2h6l6.3,20.2h-4.9l-1.5-5.2H462.5z M467.6,223.7l-1.3-4.3
		c-0.4-1.2-0.7-2.7-1-3.9h-0.1c-0.3,1.2-0.6,2.7-0.9,3.9l-1.2,4.3L467.6,223.7L467.6,223.7z"/>
	<path class="st2" d="M429.8,258.9c-1.3,0.5-2.7,0.7-4.1,0.7c-4.7,0-7.8-2.9-7.8-7.5c0-4.3,2.9-7.8,8.4-7.8c1.2,0,2.4,0.2,3.5,0.6
		l-0.7,3.4c-0.8-0.3-1.7-0.5-2.5-0.5c-2.3,0.1-4,2-3.9,4.3c0.1,2.2,1.9,3.9,4,3.9c0.9,0,1.8-0.1,2.6-0.5L429.8,258.9z"/>
	<path class="st2" d="M432.3,238h4.6v8.4h0.1c0.5-0.6,1.1-1.2,1.8-1.5c0.7-0.4,1.6-0.6,2.4-0.6c2.9,0,5.1,2,5.1,6.4v8.6h-4.6v-8.1
		c0-1.9-0.7-3.2-2.4-3.2c-1,0-1.9,0.6-2.3,1.6c-0.1,0.3-0.2,0.7-0.1,1v8.7h-4.6L432.3,238z"/>
	<path class="st2" d="M454.6,240.5c0.1,1.3-1,2.5-2.3,2.5s-2.5-1-2.5-2.3c-0.1-1.3,1-2.5,2.3-2.5c0,0,0.1,0,0.1,0
		c1.2-0.1,2.3,0.9,2.4,2.1C454.6,240.4,454.6,240.5,454.6,240.5z M449.9,259.3v-14.7h4.6v14.7H449.9z"/>
	<path class="st2" d="M458.1,238h4.6v21.3h-4.6V238z"/>
	<path class="st2" d="M466.4,238h4.6v21.3h-4.6V238z"/>
	<path class="st2" d="M478.1,253.4c0.1,1.9,2,2.8,4.1,2.8c1.4,0,2.7-0.2,4-0.6l0.6,3.1c-1.7,0.6-3.5,1-5.3,0.9c-5,0-7.8-2.9-7.8-7.5
		c0-3.7,2.3-7.9,7.4-7.9c4.8,0,6.6,3.7,6.6,7.3c0,0.6,0,1.2-0.2,1.8H478.1z M483.5,250.3c0-1.1-0.5-3-2.6-3c-1.6,0.1-2.8,1.4-2.8,3
		H483.5z"/>
	<path class="st2" d="M490.5,249.5c0-2.2,0-3.6-0.1-4.8h3.9l0.2,2.7h0.1c0.5-1.8,2.1-3,4-3.1c0.3,0,0.7,0,1,0.1v4.3
		c-0.4-0.1-0.8-0.1-1.2-0.1c-1.5-0.1-2.8,0.9-3.1,2.3c-0.1,0.3-0.1,0.7-0.1,1v7.4h-4.6L490.5,249.5L490.5,249.5z"/>
	<rect x="404.1" y="404" class="st0" width="110.7" height="29"/>
	<path class="st8" d="M411.9,405.4c2-0.3,3.9-0.4,5.9-0.4c2.8,0,4.5,0.3,6,1.1c1.5,0.8,2.4,2.3,2.4,4c0,2-1.4,3.8-3.3,4.3v0.1
		c2.4,0.5,4,2.6,4,5c0,1.7-0.8,3.3-2.1,4.3c-1.5,1.2-3.9,1.8-8,1.8c-1.7,0-3.3-0.1-4.9-0.3L411.9,405.4z M416.5,413.1h1.5
		c2.4,0,3.7-1,3.7-2.5c0-1.5-1.2-2.4-3.2-2.4c-0.6,0-1.3,0-1.9,0.1V413.1z M416.5,422c0.6,0.1,1.2,0.1,1.8,0.1
		c2.1,0,3.9-0.8,3.9-2.9c0-2-1.8-2.8-4.1-2.8h-1.6V422z"/>
	<path class="st8" d="M438.3,425.3l-0.3-1.5H438c-1.1,1.2-2.6,1.9-4.2,1.8c-2.5,0.1-4.6-1.7-4.7-4.2c0-0.1,0-0.2,0-0.3
		c0-3.8,3.4-5.6,8.6-5.6v-0.2c0-0.8-0.4-1.9-2.7-1.9c-1.4,0-2.8,0.4-4,1.1l-0.8-2.9c1.8-0.9,3.7-1.4,5.7-1.3c4.9,0,6.4,2.9,6.4,6.3
		v5.1c0,1.2,0.1,2.4,0.2,3.6L438.3,425.3L438.3,425.3z M437.8,418.4c-2.4,0-4.3,0.6-4.3,2.3c-0.1,0.9,0.6,1.7,1.5,1.8
		c0.1,0,0.2,0,0.3,0c1.1,0,2-0.7,2.4-1.7c0.1-0.3,0.1-0.5,0.1-0.8L437.8,418.4L437.8,418.4z"/>
	<path class="st8" d="M450.7,406.4v4.2h3.3v3.4h-3.3v5.3c0,1.8,0.4,2.6,1.8,2.6c0.5,0,0.9,0,1.4-0.1l0,3.5c-1,0.3-2,0.4-3,0.4
		c-1.3,0.1-2.5-0.4-3.4-1.3c-0.9-0.9-1.3-2.3-1.3-4.4v-6h-2v-3.4h2v-3.2L450.7,406.4z"/>
	<path class="st8" d="M461.7,406.4v4.2h3.3v3.4h-3.3v5.3c0,1.8,0.4,2.6,1.8,2.6c0.5,0,0.9,0,1.4-0.1l0,3.5c-1,0.3-2,0.4-3,0.4
		c-1.3,0.1-2.5-0.4-3.4-1.3c-0.9-0.9-1.3-2.3-1.3-4.4v-6h-2v-3.4h2v-3.2L461.7,406.4z"/>
	<path class="st8" d="M471,419.4c0.1,1.9,2,2.8,4.1,2.8c1.4,0,2.7-0.2,4-0.6l0.6,3.1c-1.7,0.6-3.5,1-5.3,0.9c-5,0-7.8-2.9-7.8-7.5
		c0-3.7,2.3-7.9,7.4-7.9c4.8,0,6.6,3.7,6.6,7.3c0,0.6,0,1.2-0.2,1.8H471z M476.3,416.3c0-1.1-0.5-3-2.6-3c-1.6,0.1-2.8,1.4-2.8,3
		H476.3z"/>
	<path class="st8" d="M483.3,415.5c0-2.2,0-3.6-0.1-4.8h3.9l0.2,2.7h0.1c0.5-1.8,2.1-3,4-3c0.3,0,0.7,0,1,0.1v4.3
		c-0.4-0.1-0.8-0.1-1.2-0.1c-1.5-0.1-2.8,0.9-3.1,2.3c-0.1,0.3-0.1,0.7-0.1,1v7.4h-4.6L483.3,415.5L483.3,415.5z"/>
	<path class="st8" d="M498.6,410.6l2.2,7.2c0.2,0.9,0.5,2,0.7,2.7h0.1c0.2-0.8,0.4-1.9,0.7-2.7l1.8-7.2h4.9l-3.4,9.7
		c-2.1,5.8-3.5,8.2-5.2,9.6c-1.2,1.1-2.8,1.8-4.4,2l-1-3.9c0.7-0.2,1.4-0.4,2-0.8c0.8-0.4,1.4-1.1,1.9-1.8c0.1-0.2,0.2-0.4,0.3-0.7
		c0-0.3-0.1-0.5-0.2-0.8l-5.4-13.4L498.6,410.6L498.6,410.6z"/>
	<polygon class="st0" points="926,336 792.1,336 801.1,287 926,287 	"/>
	<path class="st8" d="M807.3,288.1v7.8h7.5v-7.8h4.6v20.2h-4.6v-8.5h-7.5v8.5h-4.6v-20.2H807.3z"/>
	<path class="st8" d="M826.7,293.6l2.2,7.2c0.2,0.9,0.5,2,0.7,2.7h0.1c0.2-0.8,0.4-1.9,0.7-2.7l1.8-7.2h4.9l-3.4,9.7
		c-2.1,5.8-3.5,8.2-5.2,9.6c-1.2,1.1-2.8,1.8-4.4,2l-1-3.9c0.7-0.2,1.4-0.4,2-0.8c0.8-0.4,1.4-1.1,1.9-1.8c0.1-0.2,0.2-0.4,0.3-0.7
		c0-0.3-0.1-0.5-0.2-0.8l-5.4-13.4L826.7,293.6L826.7,293.6z"/>
	<path class="st8" d="M838.8,308.3c0.1-1,0.1-2.7,0.1-4.4V287h4.6v8.4h0.1c1-1.4,2.7-2.2,4.4-2.1c3.5,0,6.1,2.9,6.1,7.4
		c0,5.3-3.3,7.9-6.7,7.9c-1.8,0.1-3.5-0.8-4.4-2.4h-0.1l-0.2,2L838.8,308.3L838.8,308.3z M843.5,302.1c0,0.3,0,0.5,0.1,0.8
		c0.3,1.3,1.4,2.2,2.7,2.2c1.9,0,3.2-1.5,3.2-4.1c0-2.3-1-4.1-3.1-4.1c-1.3,0-2.4,1-2.7,2.2c-0.1,0.3-0.1,0.6-0.1,0.8L843.5,302.1
		L843.5,302.1z"/>
	<path class="st8" d="M856.9,298.5c0-2.2,0-3.6-0.1-4.8h3.9l0.2,2.7h0.1c0.5-1.8,2.1-3,4-3c0.3,0,0.7,0,1,0.1v4.3
		c-0.4-0.1-0.8-0.1-1.2-0.1c-1.5-0.1-2.8,0.9-3.1,2.3c-0.1,0.3-0.1,0.7-0.1,1v7.4h-4.6L856.9,298.5L856.9,298.5z"/>
	<path class="st8" d="M872.9,289.5c0.1,1.3-1,2.5-2.3,2.5c-1.3,0.1-2.5-1-2.5-2.3s1-2.5,2.3-2.5c0,0,0.1,0,0.1,0
		c1.2-0.1,2.3,0.9,2.4,2.1C872.9,289.4,872.9,289.5,872.9,289.5z M868.2,308.3v-14.7h4.6v14.7L868.2,308.3z"/>
	<path class="st8" d="M890.7,287v16.9c0,1.7,0.1,3.4,0.1,4.4h-4.1l-0.2-2.1h-0.1c-1,1.6-2.7,2.6-4.6,2.5c-3.5,0-6.3-3-6.3-7.5
		c0-4.9,3.1-7.8,6.6-7.8c1.5-0.1,2.9,0.5,3.9,1.7h0.1v-8H890.7z M886.1,299.9c0-0.3,0-0.6-0.1-0.8c-0.2-1.3-1.3-2.2-2.7-2.2
		c-2.1,0-3.2,1.9-3.2,4.2c0,2.5,1.2,4,3.1,4c1.3,0,2.4-0.9,2.6-2.2c0.1-0.3,0.1-0.7,0.1-1L886.1,299.9L886.1,299.9z"/>
	<path class="st8" d="M797.6,325.3c0-1.8-0.1-3.4-0.1-4.7h3.9l0.2,2h0.1c1-1.5,2.6-2.4,4.4-2.3c1.7-0.1,3.3,0.9,4,2.5h0.1
		c0.5-0.7,1.2-1.3,1.9-1.8c0.8-0.5,1.8-0.8,2.8-0.7c2.8,0,4.9,2,4.9,6.4v8.6h-4.4v-8c0-2.1-0.7-3.4-2.2-3.4c-1,0-1.8,0.7-2.1,1.6
		c-0.1,0.4-0.2,0.8-0.2,1.2v8.6h-4.4v-8.2c0-1.9-0.7-3.1-2.1-3.1c-1,0-1.8,0.7-2.1,1.6c-0.1,0.4-0.2,0.8-0.2,1.2v8.5h-4.4
		L797.6,325.3L797.6,325.3z"/>
	<path class="st8" d="M837.9,327.8c0,5.4-3.8,7.8-7.7,7.8c-4,0.2-7.4-2.8-7.6-6.8c0-0.3,0-0.5,0-0.8c0-4.7,3.1-7.8,7.8-7.8
		c3.9-0.2,7.3,2.8,7.5,6.8C837.9,327.3,837.9,327.6,837.9,327.8z M827.3,328c0,2.5,1.1,4.4,3,4.4c1.8,0,2.9-1.8,2.9-4.4
		c0-2.2-0.8-4.4-2.9-4.4C828.1,323.5,827.3,325.8,827.3,328z"/>
	<path class="st8" d="M845.8,316.4v4.2h3.3v3.4h-3.3v5.3c0,1.8,0.4,2.6,1.8,2.6c0.5,0,0.9,0,1.4-0.1l0,3.5c-1,0.3-2,0.4-3,0.4
		c-1.3,0.1-2.5-0.4-3.4-1.3c-0.8-0.9-1.3-2.3-1.3-4.4v-6h-2v-3.4h2v-3.1L845.8,316.4z"/>
	<path class="st8" d="M866.1,327.8c0,5.4-3.8,7.8-7.7,7.8c-4,0.2-7.4-2.8-7.6-6.8c0-0.3,0-0.5,0-0.8c0-4.7,3.1-7.8,7.8-7.8
		c3.9-0.2,7.3,2.8,7.5,6.8C866.1,327.3,866.1,327.6,866.1,327.8z M855.5,328c0,2.5,1.1,4.4,3,4.4c1.8,0,2.9-1.8,2.9-4.4
		c0-2.2-0.8-4.4-2.9-4.4C856.3,323.5,855.5,325.8,855.5,328z"/>
	<path class="st8" d="M868.9,325.5c0-2.2,0-3.6-0.1-4.8h3.9l0.2,2.7h0.1c0.5-1.8,2.1-3,4-3c0.3,0,0.7,0,1,0.1v4.3
		c-0.4-0.1-0.8-0.1-1.2-0.1c-1.5-0.1-2.8,0.9-3.1,2.3c-0.1,0.3-0.1,0.7-0.1,1v7.4h-4.6L868.9,325.5L868.9,325.5z"/>
	<path class="st9" d="M376.8,14.4c2-0.3,4-0.4,6.1-0.4c3,0,5.1,0.5,6.5,1.6c1.3,1,2,2.6,1.9,4.2c0,2.2-1.5,4.2-3.6,5v0.1
		c1.4,0.6,2.2,1.9,2.7,3.8c0.6,2.3,1.2,4.9,1.6,5.7h-4.7c-0.6-1.5-1.1-3.1-1.4-4.7c-0.6-2.5-1.4-3.2-3.3-3.2h-1.4v7.9h-4.5V14.4z
		 M381.4,23h1.8c2.3,0,3.6-1.2,3.6-2.9c0-1.9-1.3-2.8-3.4-2.8c-0.7,0-1.4,0-2.1,0.1L381.4,23L381.4,23z"/>
	<path class="st9" d="M403.1,34.3l-0.3-1.5h-0.1c-1.1,1.2-2.6,1.9-4.2,1.8c-2.5,0.1-4.6-1.7-4.7-4.2c0-0.1,0-0.2,0-0.3
		c0-3.8,3.4-5.6,8.6-5.6v-0.2c0-0.8-0.4-1.9-2.7-1.9c-1.4,0-2.8,0.4-4,1.1l-0.8-2.9c1.8-0.9,3.7-1.4,5.7-1.3c4.9,0,6.4,2.9,6.4,6.3
		v5.1c0,1.2,0.1,2.4,0.2,3.6L403.1,34.3L403.1,34.3z M402.5,27.4c-2.4,0-4.3,0.6-4.3,2.3c-0.1,0.9,0.6,1.7,1.5,1.8
		c0.1,0,0.2,0,0.3,0c1.1,0,2-0.7,2.4-1.7c0.1-0.3,0.1-0.5,0.1-0.8L402.5,27.4L402.5,27.4z"/>
	<path class="st9" d="M410.6,24.3c0-1.8-0.1-3.4-0.1-4.7h3.9l0.2,2h0.1c1-1.5,2.6-2.4,4.4-2.3c1.7-0.1,3.3,0.9,4,2.5h0.1
		c0.5-0.7,1.2-1.3,1.9-1.8c0.8-0.5,1.8-0.8,2.8-0.7c2.8,0,4.9,2,4.9,6.4v8.6h-4.4v-8c0-2.1-0.7-3.4-2.2-3.4c-1,0-1.8,0.7-2.1,1.6
		c-0.1,0.4-0.2,0.8-0.2,1.2v8.6h-4.4v-8.2c0-1.9-0.7-3.1-2.1-3.1c-1,0-1.8,0.7-2.1,1.6c-0.1,0.4-0.2,0.8-0.2,1.2v8.5h-4.4
		L410.6,24.3L410.6,24.3z"/>
	<path class="st9" d="M450.8,34.3l-0.3-1.5h-0.1c-1.1,1.2-2.6,1.9-4.2,1.8c-2.5,0.1-4.6-1.7-4.7-4.2c0-0.1,0-0.2,0-0.3
		c0-3.8,3.4-5.6,8.6-5.6v-0.2c0-0.8-0.4-1.9-2.7-1.9c-1.4,0-2.8,0.4-4,1.1l-0.8-2.9c1.8-0.9,3.7-1.4,5.7-1.3c4.9,0,6.4,2.9,6.4,6.3
		v5.1c0,1.2,0.1,2.4,0.2,3.6L450.8,34.3L450.8,34.3z M450.2,27.4c-2.4,0-4.3,0.6-4.3,2.3c-0.1,0.9,0.6,1.7,1.5,1.8
		c0.1,0,0.2,0,0.3,0c1.1,0,2-0.7,2.4-1.7c0.1-0.3,0.1-0.5,0.1-0.8L450.2,27.4L450.2,27.4z"/>
	<path class="st9" d="M463,15.5c0.1,1.3-1,2.5-2.3,2.5c-1.3,0.1-2.5-1-2.5-2.3s1-2.5,2.3-2.5c0,0,0.1,0,0.1,0
		c1.2-0.1,2.3,0.9,2.4,2.1C463,15.4,463,15.5,463,15.5z M458.3,34.3V19.6h4.6v14.7H458.3z"/>
	<path class="st9" d="M466.5,24.5c0-2.2,0-3.6-0.1-4.8h3.9l0.2,2.7h0.1c0.5-1.8,2.1-3,4-3c0.3,0,0.7,0,1,0.1v4.3
		c-0.4-0.1-0.8-0.1-1.2-0.1c-1.5-0.1-2.8,0.9-3.1,2.3c-0.1,0.3-0.1,0.7-0.1,1v7.4h-4.6L466.5,24.5L466.5,24.5z"/>
	<path class="st9" d="M484,13h4.6v8.4h0.1c0.5-0.6,1.1-1.2,1.8-1.5c0.7-0.4,1.6-0.6,2.4-0.6c2.9,0,5.1,2,5.1,6.4v8.6h-4.6v-8.1
		c0-1.9-0.7-3.2-2.4-3.2c-1,0-1.9,0.6-2.3,1.6c-0.1,0.3-0.2,0.7-0.2,1v8.7H484V13z"/>
	<path class="st9" d="M505.1,28.4c0.1,1.9,2,2.8,4.1,2.8c1.4,0,2.7-0.2,4-0.6l0.6,3.1c-1.7,0.6-3.5,1-5.3,0.9c-5,0-7.8-2.9-7.8-7.5
		c0-3.7,2.3-7.9,7.4-7.9c4.8,0,6.6,3.7,6.6,7.3c0,0.6,0,1.2-0.2,1.8L505.1,28.4z M510.4,25.3c0-1.1-0.5-3-2.6-3
		c-1.6,0.1-2.8,1.4-2.8,3H510.4z"/>
	<path class="st9" d="M525.7,34.3l-0.3-1.5h-0.1c-1.1,1.2-2.6,1.9-4.2,1.8c-2.5,0.1-4.6-1.7-4.7-4.2c0-0.1,0-0.2,0-0.3
		c0-3.8,3.4-5.6,8.6-5.6v-0.2c0-0.8-0.4-1.9-2.7-1.9c-1.4,0-2.8,0.4-4,1.1l-0.8-2.9c1.8-0.9,3.7-1.4,5.7-1.3c4.9,0,6.4,2.9,6.4,6.3
		v5.1c0,1.2,0.1,2.4,0.2,3.6L525.7,34.3L525.7,34.3z M525.2,27.4c-2.4,0-4.3,0.6-4.3,2.3c-0.1,0.9,0.6,1.7,1.5,1.8
		c0.1,0,0.2,0,0.3,0c1.1,0,2-0.7,2.4-1.7c0.1-0.3,0.1-0.5,0.1-0.8L525.2,27.4L525.2,27.4z"/>
	<path class="st9" d="M538.1,15.4v4.2h3.3V23h-3.3v5.3c0,1.8,0.4,2.6,1.8,2.6c0.5,0,0.9,0,1.4-0.1l0,3.5c-1,0.3-2,0.4-3,0.4
		c-1.3,0.1-2.5-0.4-3.4-1.3c-0.8-0.9-1.3-2.3-1.3-4.4v-6h-2v-3.4h2v-3.2L538.1,15.4z"/>
	<path class="st9" d="M394,52.4c0.1,1.9,2,2.8,4.1,2.8c1.4,0,2.7-0.2,4-0.6l0.6,3.1c-1.7,0.6-3.5,1-5.3,0.9c-5,0-7.8-2.9-7.8-7.5
		c0-3.7,2.3-7.9,7.4-7.9c4.8,0,6.6,3.7,6.6,7.3c0,0.6,0,1.2-0.2,1.8L394,52.4z M399.4,49.3c0-1.1-0.5-3-2.6-3
		c-1.6,0.1-2.8,1.4-2.8,3H399.4z"/>
	<path class="st9" d="M409.4,43.6l1.4,2.5c0.4,0.8,0.8,1.5,1.2,2.2h0.1c0.4-0.8,0.7-1.5,1.1-2.3l1.3-2.4h5l-4.8,7l4.9,7.7h-5.2
		l-1.5-2.6c-0.4-0.7-0.8-1.5-1.1-2.2h-0.1c-0.4,0.8-0.8,1.5-1.1,2.2l-1.4,2.6h-5l5-7.5l-4.9-7.2L409.4,43.6L409.4,43.6z"/>
	<path class="st9" d="M431.9,57.9c-1.3,0.5-2.7,0.7-4.1,0.7c-4.7,0-7.8-2.9-7.8-7.5c0-4.3,2.9-7.8,8.4-7.8c1.2,0,2.4,0.2,3.5,0.6
		l-0.7,3.4c-0.8-0.3-1.7-0.5-2.5-0.5c-2.1-0.1-3.9,1.6-4,3.7c0,0.2,0,0.3,0,0.5c-0.2,2.1,1.4,4,3.5,4.1c0.2,0,0.3,0,0.5,0
		c0.9,0,1.8-0.1,2.6-0.5L431.9,57.9z"/>
	<path class="st9" d="M434.4,37h4.6v8.4h0.1c0.5-0.6,1.1-1.2,1.8-1.5c0.7-0.4,1.6-0.6,2.4-0.6c2.9,0,5.1,2,5.1,6.5v8.6h-4.6v-8.1
		c0-1.9-0.7-3.2-2.4-3.2c-1,0-1.9,0.6-2.3,1.6c-0.1,0.3-0.2,0.7-0.1,1v8.7h-4.6L434.4,37z"/>
	<path class="st9" d="M460.3,58.3l-0.3-1.5H460c-1.1,1.2-2.6,1.9-4.2,1.8c-2.5,0.1-4.6-1.7-4.7-4.2c0-0.1,0-0.2,0-0.3
		c0-3.8,3.4-5.6,8.6-5.6v-0.2c0-0.8-0.4-1.9-2.7-1.9c-1.4,0-2.8,0.4-4,1.1l-0.8-2.9c1.8-0.9,3.7-1.4,5.7-1.3c4.9,0,6.4,2.9,6.4,6.3
		v5.1c0,1.2,0.1,2.4,0.2,3.6L460.3,58.3L460.3,58.3z M459.8,51.4c-2.4,0-4.3,0.6-4.3,2.3c-0.1,0.9,0.6,1.7,1.5,1.8
		c0.1,0,0.2,0,0.3,0c1.1,0,2-0.7,2.4-1.7c0.1-0.3,0.1-0.5,0.1-0.8L459.8,51.4L459.8,51.4z"/>
	<path class="st9" d="M467.8,48.3c0-1.8-0.1-3.4-0.1-4.7h4l0.2,2h0.1c1-1.5,2.7-2.4,4.5-2.4c3,0,5.3,2,5.3,6.3v8.7h-4.6v-8.1
		c0-1.9-0.7-3.2-2.3-3.2c-1.1,0-2,0.7-2.3,1.7c-0.1,0.4-0.2,0.7-0.2,1.1v8.5h-4.6L467.8,48.3L467.8,48.3z"/>
	<path class="st9" d="M499.4,43.6c-0.1,1-0.1,2.2-0.1,4.4v8.2c0,2.8-0.6,5.1-2.2,6.6c-1.7,1.3-3.8,1.9-6,1.8c-1.8,0-3.6-0.3-5.3-1.1
		l0.9-3.5c1.3,0.7,2.8,1.1,4.2,1.1c2.2,0,3.8-1.2,3.8-3.9v-0.9h-0.1c-0.9,1.2-2.4,2-4,1.9c-3.6,0-6.2-2.9-6.2-7.2
		c0-4.7,3-7.7,6.7-7.7c1.6-0.1,3.2,0.7,4,2.1h0.1l0.2-1.8L499.4,43.6z M494.7,49.6c0-0.3,0-0.6-0.1-0.8c-0.2-1.2-1.3-2-2.5-2
		c-1.7,0-3,1.5-3,4.2c0,2.2,1.1,3.9,3,3.9c1.1,0,2.1-0.7,2.4-1.8c0.1-0.4,0.1-0.8,0.1-1.2L494.7,49.6L494.7,49.6z"/>
	<path class="st9" d="M506.5,52.4c0.1,1.9,2,2.8,4.1,2.8c1.4,0,2.7-0.2,4-0.6l0.6,3.1c-1.7,0.6-3.5,1-5.3,0.9c-5,0-7.8-2.9-7.8-7.5
		c0-3.7,2.3-7.9,7.4-7.9c4.8,0,6.6,3.7,6.6,7.3c0,0.6,0,1.2-0.2,1.8L506.5,52.4z M511.8,49.3c0-1.1-0.5-3-2.6-3
		c-1.6,0.1-2.8,1.4-2.8,3H511.8z"/>
	<path class="st9" d="M518.8,48.5c0-2.2,0-3.6-0.1-4.8h3.9l0.2,2.7h0.1c0.5-1.8,2.1-3,4-3c0.3,0,0.7,0,1,0.1v4.3
		c-0.4-0.1-0.8-0.1-1.2-0.1c-1.5-0.1-2.8,0.9-3.1,2.3c-0.1,0.3-0.1,0.7-0.1,1v7.4h-4.6L518.8,48.5L518.8,48.5z"/>
	<path class="st10" d="M587.7,283.9h-5.5v-3.8h15.6v3.8h-5.5v16.4h-4.6L587.7,283.9L587.7,283.9z"/>
	<path class="st10" d="M602.8,295.1l-1.4,5.2h-4.7l6.2-20.2h6l6.3,20.2h-4.9l-1.5-5.2H602.8z M607.9,291.7l-1.3-4.3
		c-0.3-1.2-0.7-2.7-1-3.9h-0.1c-0.3,1.2-0.6,2.7-0.9,3.9l-1.2,4.3H607.9z"/>
	<path class="st10" d="M637.9,279v16.9c0,1.7,0.1,3.4,0.1,4.4h-4.1l-0.2-2.1h-0.1c-1,1.6-2.7,2.6-4.6,2.5c-3.5,0-6.3-3-6.3-7.5
		c0-4.9,3.1-7.8,6.6-7.8c1.5-0.1,2.9,0.5,3.9,1.7h0.1v-8H637.9z M633.3,291.9c0-0.3,0-0.6-0.1-0.8c-0.2-1.3-1.3-2.2-2.7-2.2
		c-2.1,0-3.2,1.9-3.2,4.2c0,2.5,1.2,4,3.1,4c1.3,0,2.4-0.9,2.6-2.2c0.1-0.3,0.1-0.7,0.1-1L633.3,291.9L633.3,291.9z"/>
	<path class="st10" d="M655.4,295.6c0,1.9,0.1,3.5,0.1,4.7h-4l-0.2-2.1h-0.1c-1,1.6-2.7,2.5-4.6,2.4c-3,0-5.2-1.9-5.2-6.4v-8.6h4.6
		v7.9c0,2.1,0.7,3.4,2.3,3.4c1,0,1.9-0.6,2.3-1.6c0.1-0.3,0.2-0.6,0.2-1v-8.8h4.6L655.4,295.6L655.4,295.6z"/>
	<path class="st10" d="M670,299.9c-1.3,0.5-2.7,0.7-4.1,0.7c-4.7,0-7.8-2.9-7.8-7.5c0-4.3,2.9-7.8,8.4-7.8c1.2,0,2.4,0.2,3.5,0.6
		l-0.7,3.4c-0.8-0.3-1.7-0.5-2.5-0.5c-2.3,0.1-4,2-3.9,4.3c0.1,2.2,1.9,3.9,4,3.9c0.9,0,1.8-0.1,2.6-0.5L670,299.9z"/>
	<path class="st10" d="M678.1,281.4v4.2h3.3v3.4h-3.3v5.3c0,1.8,0.4,2.6,1.8,2.6c0.5,0,0.9,0,1.4-0.1l0,3.5c-1,0.3-2,0.4-3,0.4
		c-1.3,0.1-2.5-0.4-3.4-1.3c-0.8-0.9-1.3-2.3-1.3-4.4v-6h-2v-3.4h2v-3.1L678.1,281.4z"/>
	<path class="st1" d="M813.8,225.4h-5.5v-3.8h15.6v3.8h-5.5v16.4h-4.6L813.8,225.4L813.8,225.4z"/>
	<path class="st1" d="M825.8,220.5h4.6v8.4h0.1c0.5-0.6,1.1-1.2,1.8-1.5c0.7-0.4,1.6-0.6,2.4-0.6c2.9,0,5.1,2,5.1,6.4v8.6h-4.6v-8.1
		c0-1.9-0.7-3.2-2.4-3.2c-1,0-1.9,0.6-2.3,1.6c-0.1,0.3-0.2,0.7-0.2,1v8.7h-4.6V220.5z"/>
	<path class="st1" d="M846.9,235.9c0.1,1.9,2,2.8,4.1,2.8c1.4,0,2.7-0.2,4-0.6l0.6,3.1c-1.7,0.6-3.5,1-5.3,0.9c-5,0-7.8-2.9-7.8-7.5
		c0-3.7,2.3-7.9,7.4-7.9c4.8,0,6.6,3.7,6.6,7.3c0,0.6,0,1.2-0.2,1.8L846.9,235.9L846.9,235.9z M852.2,232.8c0-1.1-0.5-3-2.6-3
		c-1.6,0.1-2.8,1.4-2.8,3H852.2z"/>
	<path class="st1" d="M859.2,232c0-2.2,0-3.6-0.1-4.8h3.9l0.2,2.7h0.1c0.5-1.8,2.1-3,4-3.1c0.3,0,0.7,0,1,0.1v4.3
		c-0.4-0.1-0.8-0.1-1.2-0.1c-1.5-0.1-2.8,0.9-3.1,2.3c-0.1,0.3-0.1,0.7-0.1,1v7.4h-4.6L859.2,232L859.2,232z"/>
	<path class="st1" d="M870.5,231.8c0-1.8-0.1-3.4-0.1-4.7h3.9l0.2,2h0.1c1-1.5,2.6-2.4,4.4-2.3c1.7-0.1,3.3,0.9,4,2.5h0.1
		c0.5-0.7,1.2-1.3,1.9-1.8c0.8-0.5,1.8-0.8,2.8-0.7c2.8,0,4.9,2,4.9,6.4v8.6h-4.4v-8c0-2.1-0.7-3.4-2.2-3.4c-1,0-1.8,0.7-2.1,1.6
		c-0.1,0.4-0.2,0.8-0.2,1.2v8.6h-4.4v-8.2c0-1.9-0.7-3.1-2.1-3.1c-1,0-1.8,0.7-2.1,1.6c-0.1,0.4-0.2,0.8-0.2,1.2v8.5h-4.4
		L870.5,231.8L870.5,231.8z"/>
	<path class="st1" d="M910.8,234.3c0,5.4-3.8,7.8-7.7,7.8c-4,0.2-7.4-2.8-7.6-6.8c0-0.3,0-0.5,0-0.8c0-4.7,3.1-7.8,7.8-7.8
		c3.9-0.2,7.3,2.8,7.5,6.8C910.8,233.8,910.8,234.1,910.8,234.3z M900.2,234.5c0,2.5,1.1,4.4,3,4.4c1.8,0,2.9-1.8,2.9-4.4
		c0-2.2-0.8-4.4-2.9-4.4C901,230.1,900.2,232.3,900.2,234.5L900.2,234.5z"/>
	<path class="st1" d="M922,241.8l-0.3-1.5h-0.1c-1.1,1.2-2.6,1.9-4.2,1.8c-2.5,0.1-4.6-1.7-4.7-4.2c0-0.1,0-0.2,0-0.3
		c0-3.8,3.4-5.6,8.6-5.6v-0.2c0-0.8-0.4-1.9-2.7-1.9c-1.4,0-2.8,0.4-4,1.1l-0.8-2.9c1.8-0.9,3.7-1.4,5.7-1.3c4.9,0,6.4,2.9,6.4,6.3
		v5.1c0,1.2,0.1,2.4,0.2,3.6L922,241.8L922,241.8z M921.4,234.9c-2.4,0-4.3,0.6-4.3,2.3c-0.1,0.9,0.6,1.7,1.5,1.8c0.1,0,0.2,0,0.3,0
		c1.1,0,2-0.7,2.4-1.7c0.1-0.3,0.1-0.5,0.1-0.8L921.4,234.9L921.4,234.9z"/>
	<path class="st1" d="M940.5,241.4c-1.3,0.5-2.7,0.7-4.1,0.7c-4.7,0-7.8-2.9-7.8-7.5c0-4.3,2.9-7.8,8.4-7.8c1.2,0,2.4,0.2,3.5,0.6
		l-0.7,3.4c-0.8-0.3-1.7-0.5-2.6-0.5c-2.3,0.1-4,2-3.9,4.3c0.1,2.2,1.8,3.9,4,3.9c0.9,0,1.8-0.1,2.6-0.5L940.5,241.4z"/>
	<path class="st1" d="M957.2,234.3c0,5.4-3.8,7.8-7.7,7.8c-4,0.2-7.4-2.8-7.6-6.8c0-0.3,0-0.5,0-0.8c0-4.7,3.1-7.8,7.8-7.8
		c3.9-0.2,7.3,2.8,7.5,6.8C957.2,233.8,957.2,234.1,957.2,234.3z M946.5,234.5c0,2.5,1.1,4.4,3,4.4c1.8,0,2.9-1.8,2.9-4.4
		c0-2.2-0.8-4.4-2.9-4.4C947.4,230.1,946.5,232.3,946.5,234.5L946.5,234.5z"/>
	<path class="st1" d="M973.8,237.1c0,1.9,0.1,3.5,0.1,4.7h-4l-0.2-2.1h-0.1c-1,1.6-2.7,2.5-4.6,2.4c-3,0-5.2-1.9-5.2-6.4v-8.6h4.6
		v7.9c0,2.1,0.7,3.4,2.3,3.4c1.4,0,2.5-1.2,2.4-2.6v-8.8h4.6L973.8,237.1L973.8,237.1z"/>
	<path class="st1" d="M977.5,237.8c1.2,0.7,2.5,1,3.9,1.1c1.4,0,2-0.5,2-1.2c0-0.8-0.5-1.1-2.2-1.7c-3.1-1-4.2-2.7-4.2-4.4
		c0-2.8,2.3-4.8,6-4.8c1.4,0,2.8,0.3,4.1,0.9l-0.8,3.1c-1-0.5-2.1-0.8-3.2-0.8c-1.1,0-1.8,0.4-1.8,1.2c0,0.7,0.6,1.1,2.4,1.7
		c2.8,0.9,3.9,2.4,4,4.5c0,2.7-2.1,4.8-6.3,4.8c-1.6,0-3.3-0.3-4.8-1L977.5,237.8z"/>
	<path class="st1" d="M995.6,222.9v4.2h3.3v3.4h-3.3v5.3c0,1.8,0.4,2.6,1.8,2.6c0.5,0,0.9,0,1.4-0.1l0,3.5c-1,0.3-2,0.4-3,0.4
		c-1.3,0.1-2.5-0.4-3.4-1.3c-0.8-0.9-1.3-2.3-1.3-4.4v-6h-1.9v-3.4h1.9V224L995.6,222.9z"/>
	<path class="st1" d="M1006.2,223c0.1,1.3-1,2.5-2.3,2.5s-2.5-1-2.5-2.3c-0.1-1.3,1-2.5,2.3-2.5c0,0,0.1,0,0.1,0
		c1.2-0.1,2.3,0.9,2.4,2.1C1006.2,222.9,1006.2,223,1006.2,223z M1001.5,241.8v-14.7h4.6v14.7H1001.5z"/>
	<path class="st1" d="M1020.7,241.4c-1.3,0.5-2.7,0.7-4.1,0.7c-4.8,0-7.8-2.9-7.8-7.5c0-4.3,2.9-7.8,8.4-7.8c1.2,0,2.4,0.2,3.5,0.6
		l-0.7,3.4c-0.8-0.3-1.7-0.5-2.6-0.5c-2.3,0.1-4,2-3.9,4.3c0.1,2.2,1.9,3.9,4,3.9c0.9,0,1.8-0.1,2.6-0.5L1020.7,241.4z"/>
	<path class="st1" d="M811.7,259.9c0.1,1.9,2,2.8,4.1,2.8c1.4,0,2.7-0.2,4-0.6l0.6,3.1c-1.7,0.6-3.5,1-5.3,0.9c-5,0-7.8-2.9-7.8-7.5
		c0-3.7,2.3-7.9,7.4-7.9c4.8,0,6.6,3.7,6.6,7.3c0,0.6,0,1.2-0.2,1.8H811.7z M817,256.8c0-1.1-0.5-3-2.6-3c-1.6,0.1-2.8,1.4-2.8,3
		H817z"/>
	<path class="st1" d="M824,255.8c0-1.8-0.1-3.4-0.1-4.7h4l0.2,2h0.1c1-1.5,2.7-2.4,4.5-2.4c3,0,5.2,2,5.2,6.3v8.7h-4.6v-8.1
		c0-1.9-0.7-3.2-2.3-3.2c-1.1,0-2,0.7-2.3,1.7c-0.1,0.4-0.2,0.7-0.2,1.1v8.5H824V255.8z"/>
	<path class="st1" d="M855.6,251.1c-0.1,0.9-0.1,2.2-0.1,4.4v8.2c0,2.8-0.6,5.1-2.2,6.6c-1.7,1.3-3.8,1.9-6,1.8
		c-1.8,0-3.6-0.3-5.3-1.1l0.9-3.5c1.3,0.7,2.8,1.1,4.2,1.1c2.2,0,3.8-1.1,3.8-3.9v-0.9h-0.1c-0.9,1.2-2.4,2-4,1.9
		c-3.6,0-6.2-2.9-6.2-7.1c0-4.7,3-7.7,6.7-7.7c1.6-0.1,3.2,0.7,4,2.1h0.1l0.2-1.8L855.6,251.1L855.6,251.1z M850.9,257.1
		c0-0.3,0-0.6-0.1-0.8c-0.2-1.2-1.3-2-2.5-2c-1.7,0-3,1.5-3,4.2c0,2.2,1.1,3.9,3,3.9c1.1,0,2.1-0.7,2.4-1.8c0.1-0.4,0.1-0.8,0.1-1.2
		L850.9,257.1L850.9,257.1z"/>
	<path class="st1" d="M863.8,247c0.1,1.3-1,2.5-2.3,2.5c-1.3,0.1-2.5-1-2.5-2.3c-0.1-1.3,1-2.5,2.3-2.5c0,0,0.1,0,0.1,0
		c1.2-0.1,2.3,0.9,2.4,2.1C863.8,246.9,863.8,247,863.8,247z M859.1,265.8v-14.7h4.6v14.7H859.1z"/>
	<path class="st1" d="M867.3,255.8c0-1.8-0.1-3.4-0.1-4.7h4l0.2,2h0.1c1-1.5,2.7-2.4,4.5-2.4c3,0,5.3,2,5.3,6.3v8.7h-4.6v-8.1
		c0-1.9-0.7-3.2-2.3-3.2c-1.1,0-2,0.7-2.3,1.7c-0.1,0.4-0.2,0.7-0.2,1.1v8.5h-4.6L867.3,255.8L867.3,255.8z"/>
	<path class="st1" d="M888.4,259.9c0.1,1.9,2,2.8,4.1,2.8c1.4,0,2.7-0.2,4-0.6l0.6,3.1c-1.7,0.6-3.5,1-5.3,0.9c-5,0-7.8-2.9-7.8-7.5
		c0-3.7,2.3-7.9,7.4-7.9c4.8,0,6.6,3.7,6.6,7.3c0,0.6,0,1.2-0.2,1.8H888.4z M893.7,256.8c0-1.1-0.5-3-2.6-3c-1.6,0.1-2.8,1.4-2.8,3
		H893.7z"/>
	<pattern  id="SVGID_7_" xlink:href="#SVGID_2_" patternTransform="matrix(1 0 0 1 -671.8998 115.25)">
	</pattern>
	<path class="st11" d="M702.8,226.5c-1.7,0-3.1-1.4-3.1-3.1v-11.8c0-1.7,1.4-3.1,3.1-3.1h8.3c1.7,0,3.1,1.4,3.1,3.1v11.8
		c0,1.7-1.4,3.1-3.1,3.1L702.8,226.5z"/>
	<path class="st1" d="M711.1,209c1.4,0,2.6,1.2,2.6,2.6v11.8c0,1.4-1.2,2.6-2.6,2.6h-8.3c-1.4,0-2.6-1.2-2.6-2.6v-11.8
		c0-1.4,1.2-2.6,2.6-2.6H711.1 M711.1,208h-8.3c-2,0-3.6,1.6-3.6,3.6c0,0,0,0,0,0v11.8c0,2,1.6,3.6,3.6,3.6c0,0,0,0,0,0h8.3
		c2,0,3.6-1.6,3.6-3.6c0,0,0,0,0,0v-11.8C714.7,209.6,713.1,208,711.1,208C711.1,208,711.1,208,711.1,208z"/>
	<path class="st1" d="M721.6,260.8h-11.8c-2,0-3.6-1.6-3.6-3.6c0,0,0,0,0,0v-25.3c0-2,1.6-3.6,3.6-3.6c0,0,0,0,0,0h11.8
		c2,0,3.6,1.6,3.6,3.6c0,0,0,0,0,0v25.3C725.2,259.1,723.6,260.7,721.6,260.8C721.6,260.8,721.6,260.8,721.6,260.8z"/>
	<pattern  id="SVGID_8_" xlink:href="#SVGID_2_" patternTransform="matrix(1 0 0 1 -671.8998 115.25)">
	</pattern>
	<path class="st12" d="M719.3,279.5c-1.7,0-3.1-1.4-3.1-3.1v-10.8c0-1.7,1.4-3.1,3.1-3.1h7.3c1.7,0,3.1,1.4,3.1,3.1v10.8
		c0,1.7-1.4,3.1-3.1,3.1H719.3z"/>
	<path class="st1" d="M726.6,263c1.4,0,2.6,1.2,2.6,2.6v10.8c0,1.4-1.2,2.6-2.6,2.6h-7.3c-1.4,0-2.6-1.2-2.6-2.6v-10.8
		c0-1.4,1.2-2.6,2.6-2.6H726.6 M726.6,262h-7.3c-2,0-3.6,1.6-3.6,3.6c0,0,0,0,0,0v10.8c0,2,1.6,3.6,3.6,3.6c0,0,0,0,0,0h7.3
		c2,0,3.6-1.6,3.6-3.6c0,0,0,0,0,0v-10.8C730.2,263.6,728.6,262,726.6,262C726.6,262,726.6,262,726.6,262z"/>
	<pattern  id="SVGID_9_" xlink:href="#SVGID_4_" patternTransform="matrix(1 0 0 1 -720.74 115.25)">
	</pattern>
	<path class="st13" d="M776.2,226.5c-1.7,0-3.1-1.4-3.1-3.1v-11.8c0-1.7,1.4-3.1,3.1-3.1h8.3c1.7,0,3.1,1.4,3.1,3.1v11.8
		c0,1.7-1.4,3.1-3.1,3.1L776.2,226.5z"/>
	<path class="st1" d="M784.5,209c1.4,0,2.6,1.2,2.6,2.6v11.8c0,1.4-1.2,2.6-2.6,2.6h-8.3c-1.4,0-2.6-1.2-2.6-2.6v-11.8
		c0-1.4,1.2-2.6,2.6-2.6H784.5 M784.5,208h-8.3c-2,0-3.6,1.6-3.6,3.6c0,0,0,0,0,0v11.8c0,2,1.6,3.6,3.6,3.6c0,0,0,0,0,0h8.3
		c2,0,3.6-1.6,3.6-3.6c0,0,0,0,0,0v-11.8C788.1,209.6,786.4,208,784.5,208C784.5,208,784.5,208,784.5,208z"/>
	<path class="st1" d="M765.7,260.8h11.8c2,0,3.6-1.6,3.6-3.6c0,0,0,0,0,0v-25.3c0-2-1.6-3.6-3.6-3.6c0,0,0,0,0,0h-11.8
		c-2,0-3.6,1.6-3.6,3.6c0,0,0,0,0,0v25.3C762.1,259.1,763.7,260.7,765.7,260.8z"/>
	<pattern  id="SVGID_10_" xlink:href="#SVGID_4_" patternTransform="matrix(1 0 0 1 -720.74 115.25)">
	</pattern>
	<path class="st14" d="M760.7,279.5c-1.7,0-3.1-1.4-3.1-3.1v-10.8c0-1.7,1.4-3.1,3.1-3.1h7.3c1.7,0,3.1,1.4,3.1,3.1v10.8
		c0,1.7-1.4,3.1-3.1,3.1H760.7z"/>
	<path class="st1" d="M768,263c1.4,0,2.6,1.2,2.6,2.6v10.8c0,1.4-1.2,2.6-2.6,2.6h-7.3c-1.4,0-2.6-1.2-2.6-2.6v-10.8
		c0-1.4,1.2-2.6,2.6-2.6H768 M768,262h-7.3c-2,0-3.6,1.6-3.6,3.6c0,0,0,0,0,0v10.8c0,2,1.6,3.6,3.6,3.6c0,0,0,0,0,0h7.3
		c2,0,3.6-1.6,3.6-3.6c0,0,0,0,0,0v-10.8C771.6,263.6,769.9,262,768,262C768,262,768,262,768,262z"/>
</g>
<g id="Coolant_loops">
	<polyline class="st15" points="500.7,270 500.7,297.8 526,297.8 526,601.9 	"/>
	
		<linearGradient id="SVGID_11_" gradientUnits="userSpaceOnUse" x1="674.92" y1="421.03" x2="815" y2="421.03" gradientTransform="matrix(1 0 0 1 -285.9999 18)">
		<stop  offset="0" style="stop-color:#AA4765"/>
		<stop  offset="0.1294" style="stop-color:#A54A6A"/>
		<stop  offset="0.2861" style="stop-color:#965477"/>
		<stop  offset="0.4567" style="stop-color:#7E648D"/>
		<stop  offset="0.6373" style="stop-color:#5B7AAC"/>
		<stop  offset="0.8237" style="stop-color:#3096D3"/>
		<stop  offset="1" style="stop-color:#00B5FF"/>
	</linearGradient>
	<line class="st16" x1="526" y1="439" x2="391.9" y2="439"/>
	
		<linearGradient id="SVGID_12_" gradientUnits="userSpaceOnUse" x1="674.92" y1="583.89" x2="815" y2="583.89" gradientTransform="matrix(1 0 0 1 -285.9999 18)">
		<stop  offset="0" style="stop-color:#AA4765"/>
		<stop  offset="0.1294" style="stop-color:#A54A6A"/>
		<stop  offset="0.2861" style="stop-color:#965477"/>
		<stop  offset="0.4567" style="stop-color:#7E648D"/>
		<stop  offset="0.6373" style="stop-color:#5B7AAC"/>
		<stop  offset="0.8237" style="stop-color:#3096D3"/>
		<stop  offset="1" style="stop-color:#00B5FF"/>
	</linearGradient>
	<line class="st17" x1="526" y1="601.9" x2="391.9" y2="601.9"/>
	
		<linearGradient id="SVGID_13_" gradientUnits="userSpaceOnUse" x1="674.92" y1="551.32" x2="815" y2="551.32" gradientTransform="matrix(1 0 0 1 -285.9999 18)">
		<stop  offset="0" style="stop-color:#AA4765"/>
		<stop  offset="0.1294" style="stop-color:#A54A6A"/>
		<stop  offset="0.2861" style="stop-color:#965477"/>
		<stop  offset="0.4567" style="stop-color:#7E648D"/>
		<stop  offset="0.6373" style="stop-color:#5B7AAC"/>
		<stop  offset="0.8237" style="stop-color:#3096D3"/>
		<stop  offset="1" style="stop-color:#00B5FF"/>
	</linearGradient>
	<line class="st18" x1="526" y1="569.3" x2="391.9" y2="569.3"/>
	
		<linearGradient id="SVGID_14_" gradientUnits="userSpaceOnUse" x1="674.92" y1="518.74" x2="815" y2="518.74" gradientTransform="matrix(1 0 0 1 -285.9999 18)">
		<stop  offset="0" style="stop-color:#AA4765"/>
		<stop  offset="0.1294" style="stop-color:#A54A6A"/>
		<stop  offset="0.2861" style="stop-color:#965477"/>
		<stop  offset="0.4567" style="stop-color:#7E648D"/>
		<stop  offset="0.6373" style="stop-color:#5B7AAC"/>
		<stop  offset="0.8237" style="stop-color:#3096D3"/>
		<stop  offset="1" style="stop-color:#00B5FF"/>
	</linearGradient>
	<line class="st19" x1="526" y1="536.7" x2="391.9" y2="536.7"/>
	
		<linearGradient id="SVGID_15_" gradientUnits="userSpaceOnUse" x1="674.92" y1="486.17" x2="815" y2="486.17" gradientTransform="matrix(1 0 0 1 -285.9999 18)">
		<stop  offset="0" style="stop-color:#AA4765"/>
		<stop  offset="0.1294" style="stop-color:#A54A6A"/>
		<stop  offset="0.2861" style="stop-color:#965477"/>
		<stop  offset="0.4567" style="stop-color:#7E648D"/>
		<stop  offset="0.6373" style="stop-color:#5B7AAC"/>
		<stop  offset="0.8237" style="stop-color:#3096D3"/>
		<stop  offset="1" style="stop-color:#00B5FF"/>
	</linearGradient>
	<line class="st20" x1="526" y1="504.2" x2="391.9" y2="504.2"/>
	
		<linearGradient id="SVGID_16_" gradientUnits="userSpaceOnUse" x1="674.92" y1="453.6" x2="815" y2="453.6" gradientTransform="matrix(1 0 0 1 -285.9999 18)">
		<stop  offset="0" style="stop-color:#AA4765"/>
		<stop  offset="0.1294" style="stop-color:#A54A6A"/>
		<stop  offset="0.2861" style="stop-color:#965477"/>
		<stop  offset="0.4567" style="stop-color:#7E648D"/>
		<stop  offset="0.6373" style="stop-color:#5B7AAC"/>
		<stop  offset="0.8237" style="stop-color:#3096D3"/>
		<stop  offset="1" style="stop-color:#00B5FF"/>
	</linearGradient>
	<line class="st21" x1="526" y1="471.6" x2="391.9" y2="471.6"/>
	<polyline class="st15" points="526,297.8 552.1,297.8 552.1,335.8 702.8,335.8 702.8,297.8 728.3,297.8 	"/>
	<path class="st22" d="M728,316h-16.8v35H539.5c0-7.5-6-13.5-13.5-13.5s-13.5,6-13.5,13.5H391.9"/>
	
		<linearGradient id="SVGID_17_" gradientUnits="userSpaceOnUse" x1="699.35" y1="102.95" x2="789.65" y2="102.95" gradientTransform="matrix(1 0 0 1 -285.9999 18)">
		<stop  offset="0" style="stop-color:#CE3045"/>
		<stop  offset="0.6407" style="stop-color:#706D9A"/>
		<stop  offset="1" style="stop-color:#3990CB"/>
	</linearGradient>
	<polyline class="st23" points="416.4,156.7 416.4,85.2 433.2,85.2 433.2,149.4 450.1,149.4 450.1,85.2 466.9,85.2 466.9,151 
		483.8,151 483.8,85.2 500.7,85.2 500.7,156.7 	"/>
	
		<linearGradient id="SVGID_18_" gradientUnits="userSpaceOnUse" x1="786.991" y1="123.0974" x2="805.9434" y2="123.0974" gradientTransform="matrix(6.501650e-17 -1.0618 -1 -6.123234e-17 867.7474 1152.6888)">
		<stop  offset="0" style="stop-color:#BD3B55"/>
		<stop  offset="0.5078" style="stop-color:#5F78AA"/>
		<stop  offset="1" style="stop-color:#00B5FF"/>
	</linearGradient>
	<polyline class="st24" points="730.3,316 759,316 759,312.4 733.2,312.4 733.2,308.8 759,308.8 759,305.2 732.6,305.2 732.6,301.6 
		759,301.6 759,298 730.3,298 	"/>
	<line class="st25" x1="416.4" y1="192" x2="416.4" y2="154"/>
	<line class="st26" x1="500.7" y1="192" x2="500.7" y2="154"/>
	<polyline class="st27" points="416.4,270 416.4,297.8 391.5,297.8 391.5,601.9 	"/>
	<polyline class="st28" points="711.5,245.5 693.1,245.5 693.1,310.2 572,310.2 572,237.5 537.3,237.5 	"/>
</g>
</svg>
