<?xml version="1.0" encoding="UTF-8" standalone="no"?>
<svg
   width="256.91968pt"
   height="118.79969pt"
   viewBox="0 0 256.91968 118.79969"
   version="1.1"
   id="svg3985"
   sodipodi:docname="component_reordering.svg"
   inkscape:version="1.2.1 (9c6d41e410, 2022-07-14)"
   xmlns:inkscape="http://www.inkscape.org/namespaces/inkscape"
   xmlns:sodipodi="http://sodipodi.sourceforge.net/DTD/sodipodi-0.dtd"
   xmlns="http://www.w3.org/2000/svg"
   xmlns:svg="http://www.w3.org/2000/svg">
  <sodipodi:namedview
     id="namedview3987"
     pagecolor="#ffffff"
     bordercolor="#666666"
     borderopacity="1.0"
     inkscape:showpageshadow="2"
     inkscape:pageopacity="0.0"
     inkscape:pagecheckerboard="0"
     inkscape:deskcolor="#d1d1d1"
     inkscape:document-units="pt"
     showgrid="false"
     inkscape:zoom="3.8901515"
     inkscape:cx="158.34859"
     inkscape:cy="101.79552"
     inkscape:window-width="3840"
     inkscape:window-height="2066"
     inkscape:window-x="3829"
     inkscape:window-y="-11"
     inkscape:window-maximized="1"
     inkscape:current-layer="svg3985" />
  <defs
     id="defs727">
    <clipPath
       id="clip-0">
      <path
         clip-rule="nonzero"
         d="M 108.60156,118.44141 H 130 V 139 h -21.39844 z m 0,0"
         id="path718" />
    </clipPath>
    <clipPath
       id="clip-1">
      <path
         clip-rule="nonzero"
         d="m 243,118.44141 h 25 V 139 h -25 z m 0,0"
         id="path721" />
    </clipPath>
    <clipPath
       id="clip-2">
      <path
         clip-rule="nonzero"
         d="m 345,216 h 20.64062 v 25 H 345 Z m 0,0"
         id="path724" />
    </clipPath>
  </defs>
  <path
     fill-rule="nonzero"
     fill="#b3d5ed"
     fill-opacity="1"
     d="M 14.041872,0.117184 H 2.9989022 c -1.55859,0 -2.87890996,1.32032 -2.87890996,3 v 11.04297 c 0,1.5586 1.32031996,2.87891 2.87890996,2.87891 H 14.041872 c 1.67969,0 3,-1.32031 3,-2.87891 V 3.117184 c 0,-1.67968 -1.32031,-3 -3,-3 z m 0,0"
     id="path809" />
  <g
     clip-path="url(#clip-0)"
     id="g813"
     transform="translate(-108.71984,-118.44141)">
    <path
       fill="none"
       stroke-width="2"
       stroke-linecap="butt"
       stroke-linejoin="miter"
       stroke="#000000"
       stroke-opacity="1"
       stroke-miterlimit="10"
       d="m 1023.0143,987.98828 h -92.02472 c -12.98828,0 -23.99088,11.00261 -23.99088,25.00002 v 92.0247 c 0,12.9883 11.0026,23.9909 23.99088,23.9909 h 92.02472 c 13.9974,0 25,-11.0026 25,-23.9909 v -92.0247 c 0,-13.99741 -11.0026,-25.00002 -25,-25.00002 z m 0,0"
       transform="scale(0.12)"
       id="path811" />
  </g>
  <path
     fill-rule="nonzero"
     fill="#000000"
     fill-opacity="1"
     d="m 11.159062,11.277344 v -0.23828 h -0.11719 c -0.48047,0 -0.60156,0 -0.72266,-0.35938 l -1.5585898,-4.5625 c 0,-0.11718 -0.12109,-0.23828 -0.24219,-0.23828 -0.11719,0 -0.11719,0.1211 -0.11719,0.23828 l -1.5625,4.44141 c -0.11718,0.35937 -0.48046,0.48047 -0.83984,0.48047 v 0.23828 h 1.67969 v -0.23828 c -0.47656,0 -0.59766,-0.24219 -0.59766,-0.35938 0,0 0,-0.12109 0,-0.12109 l 0.35938,-0.96094 h 1.80078 l 0.48047,1.08203 c 0,0 0,0.11719 0,0.11719 0,0.24219 -0.48047,0.24219 -0.60157,0.24219 v 0.23828 c 0.23829,0 0.71875,0 1.0820398,0 z M 9.2410922,9.359374 h -1.67969 l 0.83984,-2.40234 z m 0,0"
     id="path815" />
  <path
     fill-rule="nonzero"
     fill="#b3d5ed"
     fill-opacity="1"
     stroke-width="0.24"
     stroke-linecap="butt"
     stroke-linejoin="miter"
     stroke="#000000"
     stroke-opacity="1"
     stroke-miterlimit="10"
     d="M 34.440308,20.398438 H 23.401244 c -1.679688,0 -3,1.320312 -3,3 v 11.039064 c 0,1.679688 1.320312,3 3,3 h 11.039064 c 1.558596,0 3,-1.320312 3,-3 V 23.398438 c 0,-1.679688 -1.441404,-3 -3,-3 z m 0,0"
     id="path817" />
  <path
     fill-rule="nonzero"
     fill="#000000"
     fill-opacity="1"
     d="m 31.080932,30.117184 c 0,-0.71875 -0.60156,-1.19922 -1.44141,-1.32031 0.71875,-0.11719 1.32032,-0.59766 1.32032,-1.19922 0,-0.59765 -0.71875,-1.19922 -1.67969,-1.19922 h -2.76172 v 0.23828 h 0.12109 c 0.60157,0 0.60157,0 0.60157,0.24219 v 3.96094 c 0,0.35937 0,0.35937 -0.60157,0.35937 h -0.12109 v 0.23829 h 2.88281 c 1.07813,0 1.67969,-0.59766 1.67969,-1.32032 z m -0.96094,-2.51953 c 0,0.48047 -0.35937,1.08203 -1.19922,1.08203 h -1.08203 v -1.80078 c 0,-0.24219 0.1211,-0.24219 0.48047,-0.24219 h 0.83985 c 0.72265,0 0.96093,0.60157 0.96093,0.96094 z m 0.23828,2.51953 c 0,0.48047 -0.35937,1.08203 -1.19921,1.08203 h -0.83985 c -0.35937,0 -0.48047,0 -0.48047,-0.24218 v -2.03907 h 1.44141 c 0.71875,0 1.07812,0.71875 1.07812,1.19922 z m 0,0"
     id="path819" />
  <path
     fill-rule="nonzero"
     fill="#b3d5ed"
     fill-opacity="1"
     stroke-width="0.24"
     stroke-linecap="butt"
     stroke-linejoin="miter"
     stroke="#000000"
     stroke-opacity="1"
     stroke-miterlimit="10"
     d="M 54.721556,40.679686 H 43.678592 c -1.679688,0 -3,1.320312 -3,3 V 54.71875 c 0,1.679688 1.320312,3 3,3 h 11.042964 c 1.679688,0 3,-1.320312 3,-3 V 43.679686 c 0,-1.679688 -1.320312,-3 -3,-3 z m 0,0"
     id="path821" />
  <path
     fill-rule="nonzero"
     fill="#000000"
     fill-opacity="1"
     d="m 51.479372,50.039064 c 0,-0.1211 0,-0.1211 -0.1211,-0.1211 -0.11718,0 -0.11718,0 -0.11718,0.1211 0,1.07812 -0.83985,1.67969 -1.67969,1.67969 -0.35938,0 -1.92188,-0.23829 -1.92188,-2.51954 0,-2.16015 1.5625,-2.51953 1.92188,-2.51953 0.83984,0 1.55859,0.71875 1.67969,1.80078 0,0.11719 0,0.11719 0.11718,0.11719 0.1211,0 0.1211,0 0.1211,-0.11719 v -1.80078 c 0,-0.12109 0,-0.12109 -0.1211,-0.12109 0,0 0,0 -0.11718,0 l -0.35938,0.60156 c -0.24219,-0.24219 -0.60156,-0.60156 -1.32031,-0.60156 -1.44141,0 -2.64063,1.07812 -2.64063,2.64062 0,1.5586 1.19922,2.75782 2.64063,2.75782 1.19922,0 1.91797,-1.07813 1.91797,-1.91797 z m 0,0"
     id="path823" />
  <path
     fill-rule="nonzero"
     fill="#b3d5ed"
     fill-opacity="1"
     stroke-width="0.24"
     stroke-linecap="butt"
     stroke-linejoin="miter"
     stroke="#000000"
     stroke-opacity="1"
     stroke-miterlimit="10"
     d="M 74.998904,61.078126 H 63.95984 c -1.558596,0 -3,1.320312 -3,3 v 10.921872 c 0,1.679688 1.441404,3 3,3 h 11.039064 c 1.679688,0 3,-1.320312 3,-3 V 64.078126 c 0,-1.679688 -1.320312,-3 -3,-3 z m 0,0"
     id="path825" />
  <path
     fill-rule="nonzero"
     fill="#000000"
     fill-opacity="1"
     d="m 71.881712,69.597654 c 0,-1.4375 -0.96094,-2.64062 -2.28125,-2.64062 h -2.64062 v 0.24218 h 0.12109 c 0.59766,0 0.59766,0.1211 0.59766,0.35938 v 3.96094 c 0,0.23828 0,0.35937 -0.59766,0.35937 h -0.12109 v 0.23828 h 2.64062 c 1.32031,0 2.28125,-1.07812 2.28125,-2.51953 z m -0.72265,0 c 0,0.83985 -0.11719,1.19922 -0.35938,1.67969 -0.12109,0.12109 -0.59766,0.60156 -1.32031,0.60156 h -0.83985 c -0.35937,0 -0.35937,-0.12109 -0.35937,-0.35937 v -3.96094 c 0,-0.23828 0,-0.35938 0.35937,-0.35938 h 0.83985 c 0.48047,0 0.96094,0.23829 1.32031,0.71875 0.35938,0.48047 0.35938,1.08204 0.35938,1.67969 z m 0,0"
     id="path827" />
  <path
     fill-rule="nonzero"
     fill="#b3d5ed"
     fill-opacity="1"
     stroke-width="0.24"
     stroke-linecap="butt"
     stroke-linejoin="miter"
     stroke="#000000"
     stroke-opacity="1"
     stroke-miterlimit="10"
     d="M 95.280152,81.359374 H 84.35828 c -1.679688,0 -3,1.320312 -3,3 v 11.039064 c 0,1.558596 1.320312,3 3,3 h 10.921872 c 1.679688,0 3,-1.441404 3,-3 V 84.359374 c 0,-1.679688 -1.320312,-3 -3,-3 z m 0,0"
     id="path829" />
  <path
     fill-rule="nonzero"
     fill="#000000"
     fill-opacity="1"
     d="m 92.159062,90.480464 h -0.23829 c -0.12109,1.07813 -0.35937,1.67969 -1.5625,1.67969 h -1.07812 c -0.35938,0 -0.35938,0 -0.35938,-0.36328 v -1.91797 h 0.71875 c 0.71875,0 0.83985,0.23828 0.83985,0.83985 h 0.12109 v -1.92188 h -0.12109 c 0,0.60156 -0.1211,0.83984 -0.83985,0.83984 h -0.71875 v -1.79687 c 0,-0.24219 0,-0.35938 0.35938,-0.35938 h 0.96094 c 1.19922,0 1.4375,0.47657 1.55859,1.5586 h 0.12109 l -0.24218,-1.67969 h -4.19922 v 0.12109 h 0.24219 c 0.59765,0 0.59765,0.11719 0.59765,0.35938 v 3.95703 c 0,0.24219 0,0.36328 -0.59765,0.36328 h -0.24219 v 0.23828 h 4.32031 z m 0,0"
     id="path831" />
  <path
     fill-rule="nonzero"
     fill="#b3d5ed"
     fill-opacity="1"
     stroke-width="0.24"
     stroke-linecap="butt"
     stroke-linejoin="miter"
     stroke="#000000"
     stroke-opacity="1"
     stroke-miterlimit="10"
     d="m 115.6786,101.63672 h -11.03907 c -1.67969,0 -3,1.32031 -3,3 v 11.04297 c 0,1.67968 1.32031,3 3,3 h 11.03907 c 1.56249,0 3,-1.32032 3,-3 v -11.04297 c 0,-1.67969 -1.43751,-3 -3,-3 z m 0,0"
     id="path833" />
  <path
     fill-rule="nonzero"
     fill="#000000"
     fill-opacity="1"
     d="m 112.20203,109.32031 -0.12109,-1.6836 h -4.19922 v 0.24219 H 108.12 c 0.60157,0 0.60157,0 0.60157,0.35938 v 3.83984 c 0,0.35938 0,0.35938 -0.60157,0.35938 h -0.23828 v 0.24218 c 0.35938,0 0.83985,0 1.19922,0 0.23828,0 0.96094,0 1.19922,0 v -0.24218 h -0.23828 c -0.72266,0 -0.72266,-0.11719 -0.72266,-0.35938 v -1.80078 h 0.72266 c 0.71875,0 0.71875,0.24219 0.71875,0.83984 h 0.23828 v -1.91797 h -0.23828 c 0,0.59766 0,0.83985 -0.71875,0.83985 h -0.72266 v -1.92188 c 0,-0.23828 0.1211,-0.23828 0.35938,-0.23828 h 0.96093 c 1.08204,0 1.32032,0.35938 1.44141,1.44141 z m 0,0"
     id="path835" />
  <path
     fill="none"
     stroke-width="0.24"
     stroke-linecap="butt"
     stroke-linejoin="miter"
     stroke="#000000"
     stroke-opacity="1"
     stroke-miterlimit="10"
     d="M 17.280152,8.636722 H 28.920776 V 20.277346"
     id="path837" />
  <path
     fill-rule="nonzero"
     fill="#000000"
     fill-opacity="1"
     d="m 30.358272,8.636724 c 0,-0.83985 -0.59765,-1.5586 -1.4375,-1.5586 -0.83984,0 -1.5625,0.71875 -1.5625,1.5586 0,0.84375 0.72266,1.4414 1.5625,1.4414 0.83985,0 1.4375,-0.59765 1.4375,-1.4414 z m 0,0"
     id="path839" />
  <path
     fill="none"
     stroke-width="0.24"
     stroke-linecap="butt"
     stroke-linejoin="miter"
     stroke="#000000"
     stroke-opacity="1"
     stroke-miterlimit="10"
     d="m 17.280152,8.636722 h 52.19922 v 52.20312"
     id="path841" />
  <path
     fill-rule="nonzero"
     fill="#000000"
     fill-opacity="1"
     d="m 71.041872,8.636724 c 0,-0.83985 -0.72266,-1.5586 -1.5625,-1.5586 -0.83985,0 -1.4375,0.71875 -1.4375,1.5586 0,0.84375 0.59765,1.4414 1.4375,1.4414 0.83984,0 1.5625,-0.59765 1.5625,-1.4414 z m 0,0"
     id="path843" />
  <path
     fill="none"
     stroke-width="0.24"
     stroke-linecap="butt"
     stroke-linejoin="miter"
     stroke="#000000"
     stroke-opacity="1"
     stroke-miterlimit="10"
     d="M 40.5614,49.199218 H 8.5184338 V 17.277346"
     id="path845" />
  <path
     fill-rule="nonzero"
     fill="#000000"
     fill-opacity="1"
     d="m 10.080932,49.199214 c 0,-0.83984 -0.7226498,-1.4414 -1.5624998,-1.4414 -0.71875,0 -1.4375,0.60156 -1.4375,1.4414 0,0.83985 0.71875,1.5586 1.4375,1.5586 0.83985,0 1.5624998,-0.71875 1.5624998,-1.5586 z m 0,0"
     id="path847" />
  <path
     fill="none"
     stroke-width="0.24"
     stroke-linecap="butt"
     stroke-linejoin="miter"
     stroke="#000000"
     stroke-opacity="1"
     stroke-miterlimit="10"
     d="M 40.5614,49.199218 H 28.920776 V 37.558594"
     id="path849" />
  <path
     fill-rule="nonzero"
     fill="#000000"
     fill-opacity="1"
     d="m 30.358272,49.199214 c 0,-0.83984 -0.59765,-1.4414 -1.4375,-1.4414 -0.83984,0 -1.5625,0.60156 -1.5625,1.4414 0,0.83985 0.72266,1.5586 1.5625,1.5586 0.83985,0 1.4375,-0.71875 1.4375,-1.5586 z m 0,0"
     id="path851" />
  <path
     fill="none"
     stroke-width="0.24"
     stroke-linecap="butt"
     stroke-linejoin="miter"
     stroke="#000000"
     stroke-opacity="1"
     stroke-miterlimit="10"
     d="M 57.838748,49.199218 H 69.479372 V 60.839842"
     id="path853" />
  <path
     fill-rule="nonzero"
     fill="#000000"
     fill-opacity="1"
     d="m 71.041872,49.199214 c 0,-0.83984 -0.72266,-1.4414 -1.5625,-1.4414 -0.83985,0 -1.4375,0.60156 -1.4375,1.4414 0,0.83985 0.59765,1.5586 1.4375,1.5586 0.83984,0 1.5625,-0.71875 1.5625,-1.5586 z m 0,0"
     id="path855" />
  <path
     fill="none"
     stroke-width="0.24"
     stroke-linecap="butt"
     stroke-linejoin="miter"
     stroke="#000000"
     stroke-opacity="1"
     stroke-miterlimit="10"
     d="M 57.838748,49.199218 H 110.15906 V 101.51953"
     id="path857" />
  <path
     fill-rule="nonzero"
     fill="#000000"
     fill-opacity="1"
     d="m 111.60047,49.199214 c 0,-0.83984 -0.60156,-1.4414 -1.4414,-1.4414 -0.83985,0 -1.5586,0.60156 -1.5586,1.4414 0,0.83985 0.71875,1.5586 1.5586,1.5586 0.83984,0 1.4414,-0.71875 1.4414,-1.5586 z m 0,0"
     id="path859" />
  <path
     fill="none"
     stroke-width="0.24"
     stroke-linecap="butt"
     stroke-linejoin="miter"
     stroke="#000000"
     stroke-opacity="1"
     stroke-miterlimit="10"
     d="M 78.119996,69.480466 H 110.15906 V 101.51953"
     id="path861" />
  <path
     fill-rule="nonzero"
     fill="#000000"
     fill-opacity="1"
     d="m 111.60047,69.480464 c 0,-0.72265 -0.60156,-1.4414 -1.4414,-1.4414 -0.83985,0 -1.5586,0.71875 -1.5586,1.4414 0,0.83985 0.71875,1.5586 1.5586,1.5586 0.83984,0 1.4414,-0.71875 1.4414,-1.5586 z m 0,0"
     id="path863" />
  <path
     fill="none"
     stroke-width="0.24"
     stroke-linecap="butt"
     stroke-linejoin="miter"
     stroke="#000000"
     stroke-opacity="1"
     stroke-miterlimit="10"
     d="M 60.838748,69.480466 H 28.920776 V 37.558594"
     id="path865" />
  <path
     fill-rule="nonzero"
     fill="#000000"
     fill-opacity="1"
     d="m 30.358272,69.480464 c 0,-0.72265 -0.59765,-1.4414 -1.4375,-1.4414 -0.83984,0 -1.5625,0.71875 -1.5625,1.4414 0,0.83985 0.72266,1.5586 1.5625,1.5586 0.83985,0 1.4375,-0.71875 1.4375,-1.5586 z m 0,0"
     id="path867" />
  <path
     fill="none"
     stroke-width="0.24"
     stroke-linecap="butt"
     stroke-linejoin="miter"
     stroke="#000000"
     stroke-opacity="1"
     stroke-miterlimit="10"
     d="M 81.119996,89.878906 H 49.202024 V 57.839842"
     id="path869" />
  <path
     fill-rule="nonzero"
     fill="#000000"
     fill-opacity="1"
     d="m 50.639522,89.878904 c 0,-0.83984 -0.59765,-1.55859 -1.4375,-1.55859 -0.84375,0 -1.4414,0.71875 -1.4414,1.55859 0,0.83985 0.59765,1.44141 1.4414,1.44141 0.83985,0 1.4375,-0.60156 1.4375,-1.44141 z m 0,0"
     id="path871" />
  <path
     fill="none"
     stroke-width="0.24"
     stroke-linecap="butt"
     stroke-linejoin="miter"
     stroke="#000000"
     stroke-opacity="1"
     stroke-miterlimit="10"
     d="M 81.119996,89.878906 H 69.479372 V 78.238282"
     id="path873" />
  <path
     fill-rule="nonzero"
     fill="#000000"
     fill-opacity="1"
     d="m 71.041872,89.878904 c 0,-0.83984 -0.72266,-1.55859 -1.5625,-1.55859 -0.83985,0 -1.4375,0.71875 -1.4375,1.55859 0,0.83985 0.59765,1.44141 1.4375,1.44141 0.83984,0 1.5625,-0.60156 1.5625,-1.44141 z m 0,0"
     id="path875" />
  <path
     fill="none"
     stroke-width="0.24"
     stroke-linecap="butt"
     stroke-linejoin="miter"
     stroke="#000000"
     stroke-opacity="1"
     stroke-miterlimit="10"
     d="M 101.51844,110.16015 H 28.920776 V 37.558594"
     id="path877" />
  <path
     fill-rule="nonzero"
     fill="#000000"
     fill-opacity="1"
     d="m 30.358272,110.16015 c 0,-0.83984 -0.59765,-1.4414 -1.4375,-1.4414 -0.83984,0 -1.5625,0.60156 -1.5625,1.4414 0,0.83985 0.72266,1.4375 1.5625,1.4375 0.83985,0 1.4375,-0.59765 1.4375,-1.4375 z m 0,0"
     id="path879" />
  <path
     fill-rule="nonzero"
     fill="#b3d5ed"
     fill-opacity="1"
     d="M 152.28016,0.117184 H 141.2411 c -1.67969,0 -3,1.32032 -3,3 v 11.04297 c 0,1.5586 1.32031,2.87891 3,2.87891 h 11.03906 c 1.67969,0 3,-1.32031 3,-2.87891 V 3.117184 c 0,-1.67968 -1.32031,-3 -3,-3 z m 0,0"
     id="path907" />
  <g
     clip-path="url(#clip-1)"
     id="g911"
     transform="translate(-108.71984,-118.44141)">
    <path
       fill="none"
       stroke-width="2"
       stroke-linecap="butt"
       stroke-linejoin="miter"
       stroke="#000000"
       stroke-opacity="1"
       stroke-miterlimit="10"
       d="m 2175,987.98828 h -91.9922 c -13.9974,0 -25,11.00261 -25,25.00002 v 92.0247 c 0,12.9883 11.0026,23.9909 25,23.9909 H 2175 c 13.9974,0 25,-11.0026 25,-23.9909 v -92.0247 c 0,-13.99741 -11.0026,-25.00002 -25,-25.00002 z m 0,0"
       transform="scale(0.12)"
       id="path909" />
  </g>
  <path
     fill-rule="nonzero"
     fill="#000000"
     fill-opacity="1"
     d="m 149.04188,9.238284 h -0.1211 c -0.24218,1.08203 -0.35937,1.67968 -1.67968,1.67968 h -0.96094 c -0.35938,0 -0.35938,-0.12109 -0.35938,-0.35937 v -1.92187 h 0.59766 c 0.72266,0 0.83984,0.24218 0.83984,0.84375 h 0.24219 v -1.92188 h -0.24219 c 0,0.60156 -0.11718,0.83984 -0.83984,0.83984 h -0.59766 v -1.80078 c 0,-0.23828 0,-0.35937 0.35938,-0.35937 h 0.96094 c 1.07812,0 1.32031,0.48047 1.4375,1.4414 h 0.24218 l -0.24218,-1.67968 h -4.19922 v 0.23828 h 0.12109 c 0.60156,0 0.60156,0.12109 0.60156,0.35937 v 3.96094 c 0,0.23828 0,0.35937 -0.60156,0.35937 h -0.12109 v 0.24219 h 4.32031 z m 0,0"
     id="path913" />
  <path
     fill-rule="nonzero"
     fill="#b3d5ed"
     fill-opacity="1"
     stroke-width="0.24"
     stroke-linecap="butt"
     stroke-linejoin="miter"
     stroke="#000000"
     stroke-opacity="1"
     stroke-miterlimit="10"
     d="m 172.5614,20.398438 h -11.04296 c -1.67969,0 -3,1.320312 -3,3 v 11.039064 c 0,1.679688 1.32031,3 3,3 h 11.04296 c 1.67969,0 3,-1.320312 3,-3 V 23.398438 c 0,-1.679688 -1.32031,-3 -3,-3 z m 0,0"
     id="path915" />
  <path
     fill-rule="nonzero"
     fill="#000000"
     fill-opacity="1"
     d="m 169.31922,29.757814 c 0,-0.1211 0,-0.1211 -0.11719,-0.1211 0,0 0,0 -0.12109,0.1211 0,0.96094 -0.83984,1.67969 -1.5625,1.67969 -0.47656,0 -1.91797,-0.35938 -1.91797,-2.51954 0,-2.28125 1.44141,-2.51953 1.80078,-2.51953 0.83985,0 1.5586,0.71875 1.67969,1.80078 0,0.1211 0,0.1211 0.12109,0.1211 0.11719,0 0.11719,0 0.11719,-0.1211 v -1.80078 c 0,-0.12109 0,-0.23828 -0.11719,-0.23828 0,0 0,0 -0.12109,0.11719 l -0.35937,0.60156 c -0.24219,-0.35937 -0.60157,-0.71875 -1.32032,-0.71875 -1.4414,0 -2.64062,1.19922 -2.64062,2.75781 0,1.5625 1.19922,2.76172 2.64062,2.76172 1.19922,0 1.91797,-1.08203 1.91797,-1.92187 z m 0,0"
     id="path917" />
  <path
     fill-rule="nonzero"
     fill="#b3d5ed"
     fill-opacity="1"
     stroke-width="0.24"
     stroke-linecap="butt"
     stroke-linejoin="miter"
     stroke="#000000"
     stroke-opacity="1"
     stroke-miterlimit="10"
     d="m 192.83875,40.679686 h -11.03906 c -1.5586,0 -2.87891,1.320312 -2.87891,3 V 54.71875 c 0,1.679688 1.32031,3 2.87891,3 h 11.03906 c 1.67969,0 3,-1.320312 3,-3 V 43.679686 c 0,-1.679688 -1.32031,-3 -3,-3 z m 0,0"
     id="path919" />
  <path
     fill-rule="nonzero"
     fill="#000000"
     fill-opacity="1"
     d="m 189.95985,51.839844 v -0.12109 h -0.1211 c -0.48047,0 -0.59765,-0.1211 -0.71875,-0.35938 l -1.55859,-4.67969 c 0,-0.12109 -0.12109,-0.12109 -0.24219,-0.12109 -0.11719,0 -0.11719,0 -0.11719,0.12109 l -1.5625,4.4375 c -0.12109,0.48047 -0.48046,0.48047 -0.83984,0.60157 v 0.12109 h 1.67969 v -0.12109 c -0.48047,0 -0.59766,-0.23829 -0.59766,-0.48047 0,0 0,0 0,-0.1211 l 0.35938,-0.95703 h 1.80078 l 0.47656,1.19922 c 0,0 0,0 0,0.12109 0,0.23829 -0.47656,0.23829 -0.59766,0.23829 v 0.12109 c 0.23829,0 0.71875,0 1.07813,0 z m -1.91797,-1.92188 h -1.6836 l 0.84375,-2.39843 z m 0,0"
     id="path921" />
  <path
     fill-rule="nonzero"
     fill="#b3d5ed"
     fill-opacity="1"
     stroke-width="0.24"
     stroke-linecap="butt"
     stroke-linejoin="miter"
     stroke="#000000"
     stroke-opacity="1"
     stroke-miterlimit="10"
     d="m 213.24109,61.078126 h -11.03906 c -1.68359,0 -3,1.320312 -3,3 v 10.921872 c 0,1.679688 1.31641,3 3,3 h 11.03906 c 1.5586,0 3,-1.320312 3,-3 V 64.078126 c 0,-1.679688 -1.4414,-3 -3,-3 z m 0,0"
     id="path923" />
  <path
     fill-rule="nonzero"
     fill="#000000"
     fill-opacity="1"
     d="m 210.12,69.597654 c 0,-1.4375 -1.07812,-2.64062 -2.28125,-2.64062 h -2.75781 v 0.24218 h 0.23828 c 0.48047,0 0.48047,0.1211 0.48047,0.35938 v 3.96094 c 0,0.23828 0,0.35937 -0.48047,0.35937 h -0.23828 v 0.23828 h 2.75781 c 1.20313,0 2.28125,-1.07812 2.28125,-2.51953 z m -0.71875,0 c 0,0.83985 -0.24218,1.19922 -0.48047,1.67969 -0.12109,0.12109 -0.60156,0.60156 -1.32031,0.60156 h -0.71875 c -0.36328,0 -0.36328,-0.12109 -0.36328,-0.35937 v -3.96094 c 0,-0.23828 0,-0.35938 0.36328,-0.35938 h 0.71875 c 0.48047,0 0.96094,0.23829 1.32031,0.71875 0.35938,0.48047 0.48047,1.08204 0.48047,1.67969 z m 0,0"
     id="path925" />
  <path
     fill-rule="nonzero"
     fill="#b3d5ed"
     fill-opacity="1"
     stroke-width="0.24"
     stroke-linecap="butt"
     stroke-linejoin="miter"
     stroke="#000000"
     stroke-opacity="1"
     stroke-miterlimit="10"
     d="m 233.51844,81.359374 h -11.03906 c -1.67969,0 -3,1.320312 -3,3 v 11.039064 c 0,1.558596 1.32031,3 3,3 h 11.03906 c 1.68359,0 3,-1.441404 3,-3 V 84.359374 c 0,-1.679688 -1.31641,-3 -3,-3 z m 0,0"
     id="path927" />
  <path
     fill-rule="nonzero"
     fill="#000000"
     fill-opacity="1"
     d="m 230.15907,89.039064 -0.23829,-1.67969 h -4.08203 v 0.12109 h 0.1211 c 0.60156,0 0.60156,0.11719 0.60156,0.35938 v 3.95703 c 0,0.24219 0,0.36328 -0.60156,0.36328 h -0.1211 v 0.23828 c 0.24219,0 0.83985,0 1.08203,0 0.35938,0 0.96094,0 1.32032,0 v -0.23828 h -0.35938 c -0.60156,0 -0.60156,-0.12109 -0.60156,-0.36328 v -1.79687 h 0.60156 c 0.71875,0 0.83985,0.23828 0.83985,0.83984 h 0.11718 v -2.04297 h -0.11718 c 0,0.72266 -0.1211,0.96094 -0.83985,0.96094 h -0.60156 v -1.91797 c 0,-0.24219 0,-0.35938 0.35937,-0.35938 h 0.83985 c 1.08203,0 1.32031,0.47657 1.4414,1.5586 z m 0,0"
     id="path929" />
  <path
     fill-rule="nonzero"
     fill="#b3d5ed"
     fill-opacity="1"
     d="m 253.79969,101.63671 h -11.03906 c -1.67969,0 -3,1.32032 -3,3 v 11.04297 c 0,1.67969 1.32031,3 3,3 h 11.03906 c 1.67969,0 3,-1.32031 3,-3 v -11.04297 c 0,-1.67968 -1.32031,-3 -3,-3 z m 0,0"
     id="path931" />
  <g
     clip-path="url(#clip-2)"
     id="g935"
     transform="translate(-108.71984,-118.44141)">
    <path
       fill="none"
       stroke-width="2"
       stroke-linecap="butt"
       stroke-linejoin="miter"
       stroke="#000000"
       stroke-opacity="1"
       stroke-miterlimit="10"
       d="m 3020.9961,1833.9844 h -91.9922 c -13.9974,0 -25,11.0026 -25,25 v 92.0247 c 0,13.9974 11.0026,25 25,25 h 91.9922 c 13.9974,0 25,-11.0026 25,-25 v -92.0247 c 0,-13.9974 -11.0026,-25 -25,-25 z m 0,0"
       transform="scale(0.12)"
       id="path933" />
  </g>
  <path
     fill-rule="nonzero"
     fill="#000000"
     fill-opacity="1"
     d="m 250.56141,111.35937 c 0,-0.72266 -0.60156,-1.19922 -1.44141,-1.32031 0.71875,-0.1211 1.19922,-0.60156 1.19922,-1.19922 0,-0.60156 -0.71875,-1.20313 -1.67969,-1.20313 h -2.75781 v 0.24219 H 246.12 c 0.60157,0 0.60157,0 0.60157,0.35938 v 3.83984 c 0,0.35938 0,0.35938 -0.60157,0.35938 h -0.23828 v 0.24218 h 3 c 0.95703,0 1.67969,-0.60156 1.67969,-1.32031 z m -0.96094,-2.51953 c 0,0.48047 -0.35937,1.07812 -1.19922,1.07812 h -1.08203 v -1.80078 c 0,-0.23828 0,-0.23828 0.35938,-0.23828 h 0.96093 c 0.71875,0 0.96094,0.60156 0.96094,0.96094 z m 0.1211,2.51953 c 0,0.48047 -0.36329,1.07813 -1.08204,1.07813 h -0.96093 c -0.35938,0 -0.35938,0 -0.35938,-0.23829 v -2.03906 h 1.44141 c 0.71875,0 0.96094,0.71875 0.96094,1.19922 z m 0,0"
     id="path937" />
  <path
     fill="none"
     stroke-width="0.24"
     stroke-linecap="butt"
     stroke-linejoin="miter"
     stroke="#000000"
     stroke-opacity="1"
     stroke-miterlimit="10"
     d="m 196.08094,49.199218 h 52.19922 v 52.320312"
     id="path939" />
  <path
     fill-rule="nonzero"
     fill="#000000"
     fill-opacity="1"
     d="m 249.83875,49.199214 c 0,-0.83984 -0.71875,-1.4414 -1.55859,-1.4414 -0.83984,0 -1.44141,0.60156 -1.44141,1.4414 0,0.83985 0.60157,1.5586 1.44141,1.5586 0.83984,0 1.55859,-0.71875 1.55859,-1.5586 z m 0,0"
     id="path941" />
  <path
     fill="none"
     stroke-width="0.24"
     stroke-linecap="butt"
     stroke-linejoin="miter"
     stroke="#000000"
     stroke-opacity="1"
     stroke-miterlimit="10"
     d="m 196.08094,49.199218 h 11.64062 v 11.640624"
     id="path943" />
  <path
     fill-rule="nonzero"
     fill="#000000"
     fill-opacity="1"
     d="m 209.15907,49.199214 c 0,-0.83984 -0.59766,-1.4414 -1.4375,-1.4414 -0.83985,0 -1.5625,0.60156 -1.5625,1.4414 0,0.83985 0.72265,1.5586 1.5625,1.5586 0.83984,0 1.4375,-0.71875 1.4375,-1.5586 z m 0,0"
     id="path945" />
  <path
     fill="none"
     stroke-width="0.24"
     stroke-linecap="butt"
     stroke-linejoin="miter"
     stroke="#000000"
     stroke-opacity="1"
     stroke-miterlimit="10"
     d="m 175.6786,28.91797 h 11.64062 v 11.640624"
     id="path947" />
  <path
     fill-rule="nonzero"
     fill="#000000"
     fill-opacity="1"
     d="m 188.88172,28.917964 c 0,-0.83984 -0.72265,-1.55859 -1.5625,-1.55859 -0.71875,0 -1.4375,0.71875 -1.4375,1.55859 0,0.83985 0.71875,1.44141 1.4375,1.44141 0.83985,0 1.5625,-0.60156 1.5625,-1.44141 z m 0,0"
     id="path949" />
  <path
     fill="none"
     stroke-width="0.24"
     stroke-linecap="butt"
     stroke-linejoin="miter"
     stroke="#000000"
     stroke-opacity="1"
     stroke-miterlimit="10"
     d="m 175.6786,28.91797 h 72.60156 v 72.60156"
     id="path951" />
  <path
     fill-rule="nonzero"
     fill="#000000"
     fill-opacity="1"
     d="m 249.83875,28.917964 c 0,-0.83984 -0.71875,-1.55859 -1.55859,-1.55859 -0.83984,0 -1.44141,0.71875 -1.44141,1.55859 0,0.83985 0.60157,1.44141 1.44141,1.44141 0.83984,0 1.55859,-0.60156 1.55859,-1.44141 z m 0,0"
     id="path953" />
  <path
     fill="none"
     stroke-width="0.24"
     stroke-linecap="butt"
     stroke-linejoin="miter"
     stroke="#000000"
     stroke-opacity="1"
     stroke-miterlimit="10"
     d="m 175.6786,28.91797 h 32.04296 v 31.921872"
     id="path955" />
  <path
     fill-rule="nonzero"
     fill="#000000"
     fill-opacity="1"
     d="m 209.15907,28.917964 c 0,-0.83984 -0.59766,-1.55859 -1.4375,-1.55859 -0.83985,0 -1.5625,0.71875 -1.5625,1.55859 0,0.83985 0.72265,1.44141 1.5625,1.44141 0.83984,0 1.4375,-0.60156 1.4375,-1.44141 z m 0,0"
     id="path957" />
  <path
     fill="none"
     stroke-width="0.24"
     stroke-linecap="butt"
     stroke-linejoin="miter"
     stroke="#000000"
     stroke-opacity="1"
     stroke-miterlimit="10"
     d="m 175.6786,28.91797 h 52.32031 v 52.320312"
     id="path959" />
  <path
     fill-rule="nonzero"
     fill="#000000"
     fill-opacity="1"
     d="m 229.44032,28.917964 c 0,-0.83984 -0.60157,-1.55859 -1.44141,-1.55859 -0.83984,0 -1.55859,0.71875 -1.55859,1.55859 0,0.83985 0.71875,1.44141 1.55859,1.44141 0.83984,0 1.44141,-0.60156 1.44141,-1.44141 z m 0,0"
     id="path961" />
  <path
     fill="none"
     stroke-width="0.24"
     stroke-linecap="butt"
     stroke-linejoin="miter"
     stroke="#000000"
     stroke-opacity="1"
     stroke-miterlimit="10"
     d="m 216.35828,69.480466 h 11.64063 v 11.757816"
     id="path963" />
  <path
     fill-rule="nonzero"
     fill="#000000"
     fill-opacity="1"
     d="m 229.44032,69.480464 c 0,-0.72265 -0.60157,-1.4414 -1.44141,-1.4414 -0.83984,0 -1.55859,0.71875 -1.55859,1.4414 0,0.83985 0.71875,1.5586 1.55859,1.5586 0.83984,0 1.44141,-0.71875 1.44141,-1.5586 z m 0,0"
     id="path965" />
  <path
     fill="none"
     stroke-width="0.24"
     stroke-linecap="butt"
     stroke-linejoin="miter"
     stroke="#000000"
     stroke-opacity="1"
     stroke-miterlimit="10"
     d="m 216.35828,69.480466 h 31.92188 v 32.039064"
     id="path967" />
  <path
     fill-rule="nonzero"
     fill="#000000"
     fill-opacity="1"
     d="m 249.83875,69.480464 c 0,-0.72265 -0.71875,-1.4414 -1.55859,-1.4414 -0.83984,0 -1.44141,0.71875 -1.44141,1.4414 0,0.83985 0.60157,1.5586 1.44141,1.5586 0.83984,0 1.55859,-0.71875 1.55859,-1.5586 z m 0,0"
     id="path969" />
  <path
     fill="none"
     stroke-width="0.24"
     stroke-linecap="butt"
     stroke-linejoin="miter"
     stroke="#000000"
     stroke-opacity="1"
     stroke-miterlimit="10"
     d="m 155.40125,8.636722 h 11.64062 v 11.640624"
     id="path971" />
  <path
     fill-rule="nonzero"
     fill="#000000"
     fill-opacity="1"
     d="m 168.60047,8.636724 c 0,-0.83985 -0.71875,-1.5586 -1.55859,-1.5586 -0.83985,0 -1.44141,0.71875 -1.44141,1.5586 0,0.84375 0.60156,1.4414 1.44141,1.4414 0.83984,0 1.55859,-0.59765 1.55859,-1.4414 z m 0,0"
     id="path973" />
  <path
     fill="none"
     stroke-width="0.24"
     stroke-linecap="butt"
     stroke-linejoin="miter"
     stroke="#000000"
     stroke-opacity="1"
     stroke-miterlimit="10"
     d="m 155.40125,8.636722 h 52.32031 v 52.20312"
     id="path975" />
  <path
     fill-rule="nonzero"
     fill="#000000"
     fill-opacity="1"
     d="m 209.15907,8.636724 c 0,-0.83985 -0.59766,-1.5586 -1.4375,-1.5586 -0.83985,0 -1.5625,0.71875 -1.5625,1.5586 0,0.84375 0.72265,1.4414 1.5625,1.4414 0.83984,0 1.4375,-0.59765 1.4375,-1.4414 z m 0,0"
     id="path977" />
  <path
     fill="none"
     stroke-width="0.24"
     stroke-linecap="butt"
     stroke-linejoin="miter"
     stroke="#000000"
     stroke-opacity="1"
     stroke-miterlimit="10"
     d="m 236.63953,89.878906 h 11.64063 v 11.640624"
     id="path979" />
  <path
     fill-rule="nonzero"
     fill="#000000"
     fill-opacity="1"
     d="m 249.83875,89.878904 c 0,-0.83984 -0.71875,-1.55859 -1.55859,-1.55859 -0.83984,0 -1.44141,0.71875 -1.44141,1.55859 0,0.83985 0.60157,1.44141 1.44141,1.44141 0.83984,0 1.55859,-0.60156 1.55859,-1.44141 z m 0,0"
     id="path981" />
</svg>
