<?xml version="1.0" encoding="UTF-8" standalone="no"?>
<svg
   width="46.082031pt"
   height="128.37466pt"
   viewBox="0 0 46.082031 128.37466"
   version="1.1"
   id="svg4745"
   sodipodi:docname="ad_variables.svg"
   inkscape:version="1.2.1 (9c6d41e410, 2022-07-14)"
   xmlns:inkscape="http://www.inkscape.org/namespaces/inkscape"
   xmlns:sodipodi="http://sodipodi.sourceforge.net/DTD/sodipodi-0.dtd"
   xmlns="http://www.w3.org/2000/svg"
   xmlns:svg="http://www.w3.org/2000/svg">
  <sodipodi:namedview
     id="namedview4747"
     pagecolor="#ffffff"
     bordercolor="#666666"
     borderopacity="1.0"
     inkscape:showpageshadow="2"
     inkscape:pageopacity="0.0"
     inkscape:pagecheckerboard="0"
     inkscape:deskcolor="#d1d1d1"
     inkscape:document-units="pt"
     showgrid="false"
     inkscape:zoom="3.8901515"
     inkscape:cx="-2.0564752"
     inkscape:cy="117.7332"
     inkscape:window-width="3840"
     inkscape:window-height="2066"
     inkscape:window-x="3829"
     inkscape:window-y="-11"
     inkscape:window-maximized="1"
     inkscape:current-layer="svg4745" />
  <defs
     id="defs35">
    <clipPath
       id="clip-0">
      <path
         clip-rule="nonzero"
         d="m 455,268.32031 h 21 V 282 h -21 z m 0,0"
         id="path2" />
    </clipPath>
    <clipPath
       id="clip-1">
      <path
         clip-rule="nonzero"
         d="m 455,383 h 21 v 13.83984 h -21 z m 0,0"
         id="path5" />
    </clipPath>
    <clipPath
       id="clip-2">
      <path
         clip-rule="nonzero"
         d="m 444,268.32031 h 13 V 324 h -13 z m 0,0"
         id="path8" />
    </clipPath>
    <clipPath
       id="clip-3">
      <path
         clip-rule="nonzero"
         d="m 444,354 h 13 v 42.83984 h -13 z m 0,0"
         id="path11" />
    </clipPath>
    <clipPath
       id="clip-4">
      <path
         clip-rule="nonzero"
         d="m 474,268.32031 h 13 v 128.51953 h -13 z m 0,0"
         id="path14" />
    </clipPath>
    <clipPath
       id="clip-5">
      <path
         clip-rule="nonzero"
         d="M 401.76172,486 H 421 v 22 h -19.23828 z m 0,0"
         id="path17" />
    </clipPath>
    <clipPath
       id="clip-6">
      <path
         clip-rule="nonzero"
         d="M 401.76172,532 H 421 v 19.28125 h -19.23828 z m 0,0"
         id="path20" />
    </clipPath>
    <clipPath
       id="clip-7">
      <path
         clip-rule="nonzero"
         d="m 426,532 h 23 v 19.28125 h -23 z m 0,0"
         id="path23" />
    </clipPath>
    <clipPath
       id="clip-8">
      <path
         clip-rule="nonzero"
         d="m 454,532 h 22 v 19.28125 h -22 z m 0,0"
         id="path26" />
    </clipPath>
    <clipPath
       id="clip-9">
      <path
         clip-rule="nonzero"
         d="m 482,532 h 22 v 19.28125 h -22 z m 0,0"
         id="path29" />
    </clipPath>
    <clipPath
       id="clip-10">
      <path
         clip-rule="nonzero"
         d="m 510,532 h 18.60156 v 19.28125 H 510 Z m 0,0"
         id="path32" />
    </clipPath>
  </defs>
  <path
     fill-rule="nonzero"
     fill="#b3d5ed"
     fill-opacity="1"
     d="m 13.921876,0.35105339 h 19.19922 V 13.069803 h -19.19922 z m 0,0"
     id="path85" />
  <g
     clip-path="url(#clip-0)"
     id="g89"
     transform="translate(-441.83984,-268.44973)">
    <path
       fill="none"
       stroke-width="5"
       stroke-linecap="butt"
       stroke-linejoin="miter"
       stroke="#4e79a7"
       stroke-opacity="1"
       stroke-miterlimit="10"
       d="m 3798.0143,2345.9961 h 159.9935 v -105.9896 h -159.9935 z m 0,0"
       transform="scale(0.12)"
       id="path87" />
  </g>
  <path
     fill-rule="nonzero"
     fill="#000000"
     fill-opacity="1"
     d="m 23.640626,5.0307434 c 0,-0.35938 -0.24219,-0.71875 -0.48047,-0.71875 -0.12109,0 -0.23828,0.11719 -0.23828,0.11719 l -0.36328,0.35937 v 0.12109 c 0.12109,0 0.12109,0 0.24218,0 0.23829,0 0.35938,0.1211 0.35938,0.48047 0,1.08203 -0.71875,2.28125 -1.44141,2.28125 -0.35937,0 -0.59765,-0.35937 -0.59765,-0.83984 0,-0.72266 0.35937,-1.44141 1.07812,-2.40234 l -0.11719,-0.11719 c -0.12109,0.11719 -0.24218,0.11719 -0.48046,0.11719 -0.24219,0 -0.60157,0 -0.83985,0 -0.12109,0 -0.24219,0 -0.24219,0 -0.12109,0.24218 -0.23828,0.48046 -0.35937,0.83984 h 0.23828 l 0.12109,-0.23828 c 0,-0.1211 0.1211,-0.24219 0.35938,-0.24219 0.12109,0 0.24219,0 0.35937,0 0.24219,0 0.36329,0 0.48047,0 -0.83984,0.83984 -1.07812,1.5625 -1.07812,2.28125 0,0.60156 0.35937,0.96094 0.83984,0.96094 0.23828,0 0.60156,-0.1211 0.83985,-0.48047 0.35937,-0.23828 0.71875,-0.71875 0.96093,-1.32031 0.23828,-0.35938 0.35938,-0.83985 0.35938,-1.19922 z m 0,0"
     id="path91" />
  <path
     fill-rule="nonzero"
     fill="#000000"
     fill-opacity="1"
     d="m 26.281246,9.1088634 v -0.11718 l -0.24218,-0.1211 c -0.35938,0 -0.35938,0 -0.35938,-0.35937 v -3.24219 h -0.12109 c -0.35938,0.24219 -0.71875,0.35937 -1.19922,0.60156 v 0.23828 l 0.72265,-0.35937 c 0.11719,0 0.11719,0 0.11719,0.12109 v 2.64063 c 0,0.35937 -0.11719,0.35937 -0.35937,0.35937 l -0.35938,0.1211 v 0.11718 c 0.35938,0 0.60156,0 0.96094,0 0.23828,0 0.59766,0 0.83984,0 z m 0,0"
     id="path93" />
  <path
     fill-rule="nonzero"
     fill="#b3d5ed"
     fill-opacity="1"
     d="m 13.921876,13.069803 h 19.19922 v 12.83984 h -19.19922 z m 0,0"
     id="path95" />
  <path
     fill="none"
     stroke-width="0.6"
     stroke-linecap="butt"
     stroke-linejoin="miter"
     stroke="#4e79a7"
     stroke-opacity="1"
     stroke-miterlimit="10"
     d="m 13.921872,25.909649 h 19.19922 V 13.069805 h -19.19922 z m 0,0"
     id="path97" />
  <path
     fill-rule="nonzero"
     fill="#000000"
     fill-opacity="1"
     d="m 23.640626,17.870583 c 0,-0.48047 -0.24219,-0.71875 -0.48047,-0.71875 -0.12109,0 -0.23828,0 -0.23828,0 l -0.36328,0.35938 v 0.23828 c 0.12109,-0.1211 0.12109,-0.1211 0.24218,-0.1211 0.23829,0 0.35938,0.1211 0.35938,0.48047 0,1.08203 -0.71875,2.28125 -1.44141,2.28125 -0.35937,0 -0.59765,-0.23828 -0.59765,-0.71875 0,-0.83984 0.35937,-1.5625 1.07812,-2.40234 l -0.11719,-0.11719 c -0.12109,0 -0.24218,0 -0.48046,0 -0.24219,0 -0.60157,0 -0.83985,0 -0.12109,0 -0.24219,0 -0.24219,0 -0.12109,0.23828 -0.23828,0.47656 -0.35937,0.95703 h 0.23828 l 0.12109,-0.35937 c 0,-0.1211 0.1211,-0.23828 0.35938,-0.23828 0.12109,0 0.24219,0.11718 0.35937,0.11718 0.24219,0 0.36329,-0.11718 0.48047,-0.11718 -0.83984,0.96093 -1.07812,1.55859 -1.07812,2.27734 0,0.60156 0.35937,0.96094 0.83984,0.96094 0.23828,0 0.60156,-0.1211 0.83985,-0.35938 0.35937,-0.35937 0.71875,-0.83984 0.96093,-1.32031 0.23828,-0.48047 0.35938,-0.96094 0.35938,-1.19922 z m 0,0"
     id="path99" />
  <path
     fill-rule="nonzero"
     fill="#000000"
     fill-opacity="1"
     d="m 26.519526,21.831523 c 0,-0.12109 0,-0.12109 0,-0.24219 0,0 0,-0.11719 0,-0.23828 l -1.80078,0.12109 0.96094,-1.08203 c 0.48047,-0.60156 0.71875,-0.83984 0.71875,-1.32031 0,-0.59766 -0.47656,-0.96094 -1.19922,-0.96094 -0.35937,0 -0.59765,0.1211 -0.96094,0.36328 v 0.71875 h 0.1211 l 0.12109,-0.24218 c 0,-0.35938 0.23828,-0.47657 0.60156,-0.47657 0.47657,0 0.71875,0.35938 0.71875,0.83985 0,0.35937 -0.12109,0.71875 -0.83984,1.4375 l -0.83984,0.96094 v 0.12109 c 0.35937,0 0.71875,0 1.19922,0 0.35937,0 0.83984,0 1.19921,0 z m 0,0"
     id="path101" />
  <path
     fill-rule="nonzero"
     fill="#b3d5ed"
     fill-opacity="1"
     d="m 13.921876,25.909643 h 19.19922 v 12.71875 h -19.19922 z m 0,0"
     id="path103" />
  <path
     fill="none"
     stroke-width="0.6"
     stroke-linecap="butt"
     stroke-linejoin="miter"
     stroke="#4e79a7"
     stroke-opacity="1"
     stroke-miterlimit="10"
     d="m 13.921872,38.628401 h 19.19922 V 25.909649 h -19.19922 z m 0,0"
     id="path105" />
  <path
     fill-rule="nonzero"
     fill="#b3d5ed"
     fill-opacity="1"
     d="m 13.921876,38.628393 h 19.19922 v 12.72266 h -19.19922 z m 0,0"
     id="path107" />
  <path
     fill="none"
     stroke-width="0.6"
     stroke-linecap="butt"
     stroke-linejoin="miter"
     stroke="#4e79a7"
     stroke-opacity="1"
     stroke-miterlimit="10"
     d="m 13.921872,51.351053 h 19.19922 V 38.628401 h -19.19922 z m 0,0"
     id="path109" />
  <path
     fill="none"
     stroke-width="0.6"
     stroke-linecap="butt"
     stroke-linejoin="miter"
     stroke="#4e79a7"
     stroke-opacity="1"
     stroke-miterlimit="10"
     d="m 13.921872,64.190897 h 19.19922 V 51.351053 h -19.19922 z m 0,0"
     id="path111" />
  <path
     fill="none"
     stroke-width="0.6"
     stroke-linecap="butt"
     stroke-linejoin="miter"
     stroke="#4e79a7"
     stroke-opacity="1"
     stroke-miterlimit="10"
     d="m 13.921872,76.909649 h 19.19922 V 64.190897 h -19.19922 z m 0,0"
     id="path113" />
  <path
     fill="none"
     stroke-width="0.6"
     stroke-linecap="butt"
     stroke-linejoin="miter"
     stroke="#4e79a7"
     stroke-opacity="1"
     stroke-miterlimit="10"
     d="m 13.921872,89.628401 h 19.19922 V 76.909649 h -19.19922 z m 0,0"
     id="path115" />
  <path
     fill-rule="nonzero"
     fill="#ffb1ae"
     fill-opacity="1"
     d="m 13.921876,89.628393 h 19.19922 v 12.843747 h -19.19922 z m 0,0"
     id="path117" />
  <path
     fill="none"
     stroke-width="0.6"
     stroke-linecap="butt"
     stroke-linejoin="miter"
     stroke="#4e79a7"
     stroke-opacity="1"
     stroke-miterlimit="10"
     d="m 13.921872,102.47215 h 19.19922 V 89.628401 h -19.19922 z m 0,0"
     id="path119" />
  <path
     fill-rule="nonzero"
     fill="#ffb1ae"
     fill-opacity="1"
     d="m 13.921876,102.47214 h 19.19922 v 12.71875 h -19.19922 z m 0,0"
     id="path121" />
  <path
     fill="none"
     stroke-width="0.6"
     stroke-linecap="butt"
     stroke-linejoin="miter"
     stroke="#4e79a7"
     stroke-opacity="1"
     stroke-miterlimit="10"
     d="m 13.921872,115.1909 h 19.19922 v -12.71875 h -19.19922 z m 0,0"
     id="path123" />
  <path
     fill-rule="nonzero"
     fill="#000000"
     fill-opacity="1"
     d="m 20.039066,107.15183 c 0,-0.48047 -0.11719,-0.72265 -0.48047,-0.72265 0,0 -0.11719,0 -0.23828,0 l -0.35938,0.35937 0.12109,0.24219 c 0,-0.1211 0.11719,-0.1211 0.23829,-0.1211 0.12109,0 0.23828,0.1211 0.23828,0.48047 0,1.08203 -0.71875,2.28125 -1.32032,2.28125 -0.35937,0 -0.59765,-0.24218 -0.59765,-0.72265 0,-0.83985 0.23828,-1.5586 0.96094,-2.39844 v -0.12109 c -0.24219,0 -0.24219,0 -0.48047,0 -0.35938,0 -0.60157,0 -0.96094,0 -0.12109,0 -0.12109,0 -0.23828,0 -0.1211,0.24218 -0.1211,0.48046 -0.24219,0.96093 h 0.12109 l 0.1211,-0.35937 c 0.11719,-0.1211 0.23828,-0.24219 0.35937,-0.24219 0.23828,0 0.35938,0.12109 0.48047,0.12109 0.11719,0 0.23828,-0.12109 0.47656,-0.12109 -0.83984,0.96094 -1.19921,1.5625 -1.19921,2.28125 0,0.60156 0.35937,0.96094 0.83984,0.96094 0.35937,0 0.60156,-0.1211 0.96094,-0.35938 0.35937,-0.35937 0.71875,-0.83984 0.96093,-1.32031 0.1211,-0.48047 0.23829,-0.96094 0.23829,-1.19922 z m 0,0"
     id="path125" />
  <path
     fill-rule="nonzero"
     fill="#000000"
     fill-opacity="1"
     d="m 23.398436,110.62839 -0.11719,-0.11718 -0.12109,0.11718 c -0.12109,0.1211 -0.23828,0.1211 -0.35938,0.1211 0,-0.1211 0,-0.1211 0,-0.1211 l 0.35938,-1.55859 c 0,-0.12109 0,-0.23828 0,-0.35937 0,-0.1211 0,-0.23829 -0.12109,-0.23829 -0.23829,0 -0.59766,0.23829 -0.95704,0.47657 -0.12109,0.24218 -0.36328,0.36328 -0.60156,0.83984 l 0.23828,-0.95703 c 0,0 0,-0.12109 0,-0.12109 0,-0.1211 0,-0.23829 -0.11718,-0.23829 -0.1211,0 -0.36329,0.11719 -0.72266,0.35938 l -0.11719,0.11719 v 0.12109 l 0.11719,-0.12109 c 0.24219,-0.11719 0.24219,-0.11719 0.24219,-0.11719 0.11718,0 0.11718,0.11719 0.11718,0.11719 0,0.36328 -0.23828,1.32031 -0.35937,2.16015 0.12109,0 0.24219,0 0.35937,0 0.1211,-0.71875 0.24219,-1.07812 0.48047,-1.4375 0.24219,-0.48047 0.72266,-0.83984 0.96094,-0.83984 0,0 0.12109,0.11719 0.12109,0.11719 0,0.12109 -0.12109,0.24218 -0.12109,0.48047 l -0.23828,1.08203 c -0.12109,0.23828 -0.12109,0.35937 -0.12109,0.48047 0,0.11718 0.12109,0.11718 0.23828,0.11718 0.12109,0 0.24218,-0.11718 0.83984,-0.48047 z m 0,0"
     id="path127" />
  <path
     fill-rule="nonzero"
     fill="#000000"
     fill-opacity="1"
     d="m 24.238276,109.42918 h 3 v 0.35937 h -3 z m 0,0"
     id="path129" />
  <path
     fill-rule="nonzero"
     fill="#000000"
     fill-opacity="1"
     d="m 29.761716,111.10886 v -0.11718 h -0.24219 c -0.23828,0 -0.35937,-0.1211 -0.35937,-0.36329 v -3.23828 l -0.12109,-0.12109 c -0.35938,0.24219 -0.71875,0.35937 -1.19922,0.60156 v 0.23828 h 0.12109 l 0.71875,-0.35937 c 0,0 0,0.12109 0,0.24219 v 2.63671 c 0,0.24219 0,0.36329 -0.35937,0.36329 h -0.23829 v 0.11718 c 0.23829,0 0.59766,0 0.83985,0 0.35937,0 0.59765,0 0.83984,0 z m 0,0"
     id="path131" />
  <path
     fill-rule="nonzero"
     fill="#ffb1ae"
     fill-opacity="1"
     d="m 13.921876,115.19089 h 19.19922 v 12.71875 h -19.19922 z m 0,0"
     id="path133" />
  <g
     clip-path="url(#clip-1)"
     id="g137"
     transform="translate(-441.83984,-268.44973)">
    <path
       fill="none"
       stroke-width="5"
       stroke-linecap="butt"
       stroke-linejoin="miter"
       stroke="#4e79a7"
       stroke-opacity="1"
       stroke-miterlimit="10"
       d="m 3798.0143,3302.9948 h 159.9935 v -105.9896 h -159.9935 z m 0,0"
       transform="scale(0.12)"
       id="path135" />
  </g>
  <path
     fill-rule="nonzero"
     fill="#000000"
     fill-opacity="1"
     d="m 23.281246,119.87058 c 0,-0.35937 -0.24218,-0.71875 -0.48047,-0.71875 -0.12109,0 -0.24218,0 -0.24218,0.11719 l -0.35938,0.35937 v 0.1211 c 0.1211,-0.1211 0.24219,-0.1211 0.24219,-0.1211 0.23828,0 0.35937,0.24219 0.35937,0.48047 0,1.08203 -0.71875,2.40235 -1.4414,2.40235 -0.35938,0 -0.59766,-0.35938 -0.59766,-0.83985 0,-0.83984 0.35938,-1.4414 1.07813,-2.40234 l -0.1211,-0.11719 c -0.11718,0.11719 -0.23828,0.11719 -0.48047,0.11719 -0.23828,0 -0.59765,-0.11719 -0.83984,-0.11719 -0.11719,0 -0.23828,0 -0.23828,0.11719 -0.12109,0.12109 -0.23828,0.48047 -0.35938,0.83984 h 0.23829 l 0.12109,-0.35937 c 0,-0.1211 0.23828,-0.1211 0.35937,-0.1211 0.1211,0 0.24219,0 0.35938,0 0.24219,0 0.35937,0 0.48047,0 -0.83985,0.84375 -1.07813,1.44141 -1.07813,2.16016 0,0.60156 0.35938,1.08203 0.83985,1.08203 0.23828,0 0.59765,-0.12109 0.96093,-0.48047 0.23829,-0.35937 0.59766,-0.83984 0.83985,-1.32031 0.23828,-0.35937 0.35937,-0.83984 0.35937,-1.19922 z m 0,0"
     id="path139" />
  <path
     fill-rule="nonzero"
     fill="#000000"
     fill-opacity="1"
     d="m 26.519526,123.35105 h -0.12109 c -0.23828,0.12109 -0.35937,0.23828 -0.35937,0.23828 0,0 -0.11719,-0.11719 -0.11719,-0.11719 0,0 0,-0.12109 0,-0.12109 l 0.35937,-1.5625 c 0.11719,-0.11719 0.11719,-0.23828 0.11719,-0.35937 0,-0.11719 -0.11719,-0.23829 -0.11719,-0.23829 -0.24218,0 -0.60156,0.23829 -0.96093,0.59766 -0.23829,0.12109 -0.35938,0.36328 -0.71875,0.72266 l 0.23828,-0.83985 c 0,-0.12109 0,-0.24218 0,-0.24218 0,-0.11719 0,-0.23829 -0.1211,-0.23829 -0.11718,0 -0.23828,0.1211 -0.71875,0.48047 l -0.12109,0.11719 v 0.12109 l 0.24219,-0.12109 c 0.23828,-0.11719 0.23828,-0.23828 0.23828,-0.23828 0.12109,0 0.12109,0.12109 0.12109,0.23828 0,0.24219 -0.24219,1.32031 -0.48047,2.04297 v 0.11719 c 0.23828,-0.11719 0.35938,-0.11719 0.48047,-0.11719 0,-0.72266 0.1211,-1.08203 0.35938,-1.44141 0.35937,-0.48047 0.71875,-0.83984 0.96093,-0.83984 0.1211,0 0.1211,0.12109 0.1211,0.23828 0,0 0,0.12109 0,0.36328 l -0.36328,1.07813 c 0,0.24218 0,0.35937 0,0.48047 0,0.12109 0,0.23828 0.12109,0.23828 0.12109,0 0.35938,-0.11719 0.83984,-0.59766 z m 0,0"
     id="path141" />
  <g
     clip-path="url(#clip-2)"
     id="g145"
     transform="translate(-441.83984,-268.44973)">
    <path
       fill="none"
       stroke-width="2"
       stroke-linecap="butt"
       stroke-linejoin="miter"
       stroke="#4e79a7"
       stroke-opacity="1"
       stroke-miterlimit="10"
       d="m 3776.9857,2237.9883 c -12.9883,6.0221 -21.9727,20.9961 -21.9727,43.0013 v 127.9948 c 0,22.0052 -8.0078,37.0117 -21.0286,44.0104 13.0208,5.9896 21.0286,22.0052 21.0286,43.0013 v 127.9948 c 0,22.0052 8.9844,37.0117 21.9727,44.0104"
       transform="scale(0.12)"
       id="path143" />
  </g>
  <path
     fill-rule="nonzero"
     fill="#4e79a7"
     fill-opacity="1"
     d="m 3.839846,26.991683 v -0.1211 c -0.23828,0.23828 -0.48047,0.35938 -0.60157,0.35938 -0.11718,0 -0.23828,-0.1211 -0.23828,-0.23828 -0.12109,-0.1211 -0.23828,-0.36329 -0.23828,-0.60157 l -0.12109,-0.71875 0.23828,-0.48047 c 0.35937,-0.48046 0.60156,-0.60156 0.83984,-0.60156 0.1211,0 0.1211,0 0.24219,0.1211 h 0.12109 l 0.11719,-0.60157 c -0.11719,-0.11718 -0.23828,-0.11718 -0.23828,-0.11718 -0.35937,0 -0.60156,0.23828 -1.08203,0.95703 l -0.23828,0.48047 -0.1211,-0.35938 c -0.12109,-0.83984 -0.23828,-1.07812 -0.71875,-1.07812 -0.12109,0 -0.35937,0.11718 -0.35937,0.23828 l -0.48047,0.60156 h 0.12109 c 0.23829,-0.24219 0.35938,-0.35938 0.47657,-0.35938 0.24218,0 0.48047,0.35938 0.60156,1.07813 v 0.48047 l -0.23828,0.48047 c -0.36328,0.48047 -0.60156,0.71875 -0.83985,0.71875 0,0 -0.12109,0 -0.12109,-0.1211 l -0.12109,-0.11718 h -0.1211 c 0,0.11718 0,0.23828 -0.11718,0.48046 0,0.11719 0,0.11719 0,0.11719 0.11718,0.1211 0.23828,0.1211 0.35937,0.1211 0.23828,0 0.48047,-0.23829 0.71875,-0.60157 l 0.60156,-0.83984 0.11719,0.48047 c 0,0.72265 0.24219,0.96094 0.48047,0.96094 0.12109,0 0.35937,-0.1211 0.60156,-0.35938 z m 0,0"
     id="path147" />
  <g
     clip-path="url(#clip-3)"
     id="g151"
     transform="translate(-441.83984,-268.44973)">
    <path
       fill="none"
       stroke-width="2"
       stroke-linecap="butt"
       stroke-linejoin="miter"
       stroke="#e15759"
       stroke-opacity="1"
       stroke-miterlimit="10"
       d="m 3776.9857,2981.9987 c -12.9883,5.9896 -21.9727,22.0052 -21.9727,43.0013 v 75 c 0,22.0052 -8.0078,37.0117 -21.0286,44.0104 13.0208,5.9896 21.0286,22.0052 21.0286,43.0013 v 75 c 0,21.9727 8.9844,36.9792 21.9727,43.9779"
       transform="scale(0.12)"
       id="path149" />
  </g>
  <path
     fill-rule="nonzero"
     fill="#e15759"
     fill-opacity="1"
     d="m 4.320316,105.10886 c -0.1211,-0.11718 -0.35938,-0.11718 -0.60157,-0.11718 0,0 -0.11718,0 -0.23828,0 -0.12109,0.11718 -0.83984,0.59765 -0.96094,0.71875 -0.12109,0.23828 -0.23828,0.48046 -0.35937,0.83984 l -0.12109,0.60156 c -0.23829,0.11719 -0.35938,0.23828 -0.59766,0.23828 v 0.23828 h 0.59766 l -0.11719,0.36329 c -0.24219,1.4375 -0.48047,2.8789 -0.60156,3.35937 -0.23829,0.48047 -0.35938,0.71875 -0.71875,0.71875 -0.1211,0 -0.24219,-0.12109 -0.36329,-0.23828 h -0.11718 c 0,0.23828 -0.1211000000001,0.59766 -0.1211000000001,0.59766 0,0.12109 0.1211000000001,0.12109 0.2382800000001,0.12109 0.36329,0 0.72266,-0.23828 0.96094,-0.60156 0.48047,-0.59766 0.60156,-1.07813 1.19922,-3.71875 0,-0.1211 0.12109,-0.35938 0.12109,-0.60157 h 0.83985 c 0,-0.23828 0,-0.35937 0.12109,-0.47656 h -0.12109 c -0.1211,0 -0.23828,0 -0.59766,0 h -0.12109 l 0.12109,-0.83984 c 0.11719,-0.60156 0.35938,-0.83985 0.71875,-0.83985 0.23828,0 0.35938,0.11719 0.48047,0.23829 h 0.12109 l 0.11719,-0.48047 z m 0,0"
     id="path153" />
  <g
     clip-path="url(#clip-4)"
     id="g157"
     transform="translate(-441.83984,-268.44973)">
    <path
       fill="none"
       stroke-width="2"
       stroke-linecap="butt"
       stroke-linejoin="miter"
       stroke="#000000"
       stroke-opacity="1"
       stroke-miterlimit="10"
       d="m 3979.0039,2237.9883 c 12.9883,6.0221 22.0052,20.9961 22.0052,43.0013 v 447.0052 c 0,22.0052 7.9753,37.0117 22.0052,44.0104 -14.0299,5.9896 -22.0052,20.9961 -22.0052,43.0013 v 447.0052 c 0,21.9727 -9.0169,36.9792 -22.0052,43.9779"
       transform="scale(0.12)"
       id="path155" />
  </g>
  <path
     fill-rule="nonzero"
     fill="#000000"
     fill-opacity="1"
     d="m 46.082026,62.991683 c 0,-0.36329 -0.24218,-0.72266 -0.48046,-0.72266 -0.1211,0 -0.24219,0 -0.24219,0.12109 l -0.35938,0.35938 v 0.12109 c 0.1211,0 0.23828,-0.12109 0.23828,-0.12109 0.24219,0 0.36329,0.24219 0.36329,0.48047 0,1.19922 -0.72266,2.39843 -1.44141,2.39843 -0.35938,0 -0.60156,-0.35937 -0.60156,-0.83984 0,-0.71875 0.36328,-1.4375 1.08203,-2.39844 l -0.1211,-0.12109 c -0.12109,0.12109 -0.23828,0.12109 -0.48046,0.12109 -0.23829,0 -0.59766,0 -0.83985,-0.12109 -0.11719,0 -0.23828,0.12109 -0.23828,0.12109 -0.12109,0.23828 -0.24219,0.48047 -0.35937,0.83985 h 0.23828 l 0.12109,-0.23828 c 0,-0.1211 0.12109,-0.24219 0.35938,-0.24219 0.12109,0 0.23828,0 0.35937,0 0.24219,0 0.35938,0 0.48047,0 -0.83984,0.83984 -1.07813,1.4414 -1.07813,2.28125 0,0.48047 0.35938,0.96094 0.83985,0.96094 0.23828,0 0.59765,-0.1211 0.83984,-0.48047 0.35938,-0.24219 0.71875,-0.83985 0.95703,-1.32032 0.24219,-0.35937 0.36328,-0.83984 0.36328,-1.19921 z m 0,0"
     id="path159" />
</svg>
