<?xml version="1.0" encoding="UTF-8" standalone="no"?>
<svg
   width="126.83875pt"
   height="72.120003pt"
   viewBox="0 0 126.83875 72.120003"
   version="1.1"
   id="svg4745"
   sodipodi:docname="unrolled_AD_loop.svg"
   inkscape:version="1.2.1 (9c6d41e410, 2022-07-14)"
   xmlns:inkscape="http://www.inkscape.org/namespaces/inkscape"
   xmlns:sodipodi="http://sodipodi.sourceforge.net/DTD/sodipodi-0.dtd"
   xmlns="http://www.w3.org/2000/svg"
   xmlns:svg="http://www.w3.org/2000/svg">
  <sodipodi:namedview
     id="namedview4747"
     pagecolor="#ffffff"
     bordercolor="#666666"
     borderopacity="1.0"
     inkscape:showpageshadow="2"
     inkscape:pageopacity="0.0"
     inkscape:pagecheckerboard="0"
     inkscape:deskcolor="#d1d1d1"
     inkscape:document-units="pt"
     showgrid="false"
     inkscape:zoom="1.9450758"
     inkscape:cx="276.59591"
     inkscape:cy="0"
     inkscape:window-width="3840"
     inkscape:window-height="2066"
     inkscape:window-x="3829"
     inkscape:window-y="-11"
     inkscape:window-maximized="1"
     inkscape:current-layer="svg4745" />
  <defs
     id="defs35">
    <clipPath
       id="clip-0">
      <path
         clip-rule="nonzero"
         d="m 455,268.32031 h 21 V 282 h -21 z m 0,0"
         id="path2" />
    </clipPath>
    <clipPath
       id="clip-1">
      <path
         clip-rule="nonzero"
         d="m 455,383 h 21 v 13.83984 h -21 z m 0,0"
         id="path5" />
    </clipPath>
    <clipPath
       id="clip-2">
      <path
         clip-rule="nonzero"
         d="m 444,268.32031 h 13 V 324 h -13 z m 0,0"
         id="path8" />
    </clipPath>
    <clipPath
       id="clip-3">
      <path
         clip-rule="nonzero"
         d="m 444,354 h 13 v 42.83984 h -13 z m 0,0"
         id="path11" />
    </clipPath>
    <clipPath
       id="clip-4">
      <path
         clip-rule="nonzero"
         d="m 474,268.32031 h 13 v 128.51953 h -13 z m 0,0"
         id="path14" />
    </clipPath>
    <clipPath
       id="clip-5">
      <path
         clip-rule="nonzero"
         d="M 401.76172,486 H 421 v 22 h -19.23828 z m 0,0"
         id="path17" />
    </clipPath>
    <clipPath
       id="clip-6">
      <path
         clip-rule="nonzero"
         d="M 401.76172,532 H 421 v 19.28125 h -19.23828 z m 0,0"
         id="path20" />
    </clipPath>
    <clipPath
       id="clip-7">
      <path
         clip-rule="nonzero"
         d="m 426,532 h 23 v 19.28125 h -23 z m 0,0"
         id="path23" />
    </clipPath>
    <clipPath
       id="clip-8">
      <path
         clip-rule="nonzero"
         d="m 454,532 h 22 v 19.28125 h -22 z m 0,0"
         id="path26" />
    </clipPath>
    <clipPath
       id="clip-9">
      <path
         clip-rule="nonzero"
         d="m 482,532 h 22 v 19.28125 h -22 z m 0,0"
         id="path29" />
    </clipPath>
    <clipPath
       id="clip-10">
      <path
         clip-rule="nonzero"
         d="m 510,532 h 18.60156 v 19.28125 H 510 Z m 0,0"
         id="path32" />
    </clipPath>
  </defs>
  <path
     fill-rule="nonzero"
     fill="#b3d5ed"
     fill-opacity="1"
     d="m 12.000001,10.320314 h -8.88281 c -1.67969,0 -3,1.32031 -3,3 v 8.8789 c 0,1.67969 1.32031,3 3,3 h 8.88281 c 1.67969,0 3,-1.32031 3,-3 v -8.8789 c 0,-1.67969 -1.32031,-3 -3,-3 z m 0,0"
     id="path391" />
  <g
     clip-path="url(#clip-5)"
     id="g395"
     transform="translate(-401.76172,-479.16016)">
    <path
       fill="none"
       stroke-width="2"
       stroke-linecap="butt"
       stroke-linejoin="miter"
       stroke="#000000"
       stroke-opacity="1"
       stroke-miterlimit="10"
       d="m 3448.0143,4079.0039 h -74.0234 c -13.9974,0 -25,11.0026 -25,25 v 73.9909 c 0,13.9974 11.0026,25 25,25 h 74.0234 c 13.9974,0 25,-11.0026 25,-25 v -73.9909 c 0,-13.9974 -11.0026,-25 -25,-25 z m 0,0"
       transform="scale(0.12)"
       id="path393" />
  </g>
  <path
     fill-rule="nonzero"
     fill="#000000"
     fill-opacity="1"
     d="m 7.558591,16.078124 c 0,-0.35937 -0.12109,-0.71875 -0.35937,-0.71875 -0.1211,0 -0.24219,0 -0.24219,0.12109 l -0.48047,0.35938 0.12109,0.12109 c 0.1211,0 0.1211,0 0.24219,0 0.11719,0 0.23828,0.11719 0.23828,0.35938 0,1.19922 -0.71875,2.39844 -1.32031,2.39844 -0.35937,0 -0.59766,-0.35938 -0.59766,-0.83985 0,-0.71875 0.23829,-1.4375 1.07813,-2.39844 l -0.12109,-0.12109 c -0.11719,0.12109 -0.23829,0.12109 -0.48047,0.12109 -0.23828,0 -0.59766,0 -0.95703,0 0,-0.12109 -0.1211,0 -0.24219,0 0,0.23829 -0.1211,0.48047 -0.23828,0.83985 h 0.11718 l 0.24219,-0.24219 c 0,-0.11719 0.1211,-0.23828 0.35938,-0.23828 0.12109,0 0.24218,0 0.35937,0 0.1211,0 0.24219,0 0.48047,0 -0.83984,0.83984 -1.19922,1.44141 -1.19922,2.28125 0,0.48047 0.35938,0.95703 0.83985,0.95703 0.35937,0 0.60156,-0.11719 0.96093,-0.47656 0.35938,-0.24219 0.71875,-0.83985 0.95703,-1.32031 0.1211,-0.36329 0.24219,-0.83985 0.24219,-1.20313 z m 0,0"
     id="path397" />
  <path
     fill-rule="nonzero"
     fill="#000000"
     fill-opacity="1"
     d="m 10.316401,20.160154 v -0.24219 h -0.35937 c -0.23828,0 -0.35938,0 -0.35938,-0.35937 v -3.23828 c -0.35937,0.23828 -0.71875,0.35937 -1.32031,0.48047 l 0.1211,0.23828 0.71875,-0.23828 c 0.12109,0 0.12109,0 0.12109,0.11718 v 2.64063 c 0,0.35937 -0.12109,0.35937 -0.35938,0.35937 h -0.35937 v 0.24219 c 0.35937,0 0.59766,0 0.95703,0 0.24219,0 0.48047,0 0.83984,0 z m 0,0"
     id="path399" />
  <path
     fill-rule="nonzero"
     fill="#b3d5ed"
     fill-opacity="1"
     stroke-width="0.24"
     stroke-linecap="butt"
     stroke-linejoin="miter"
     stroke="#000000"
     stroke-opacity="1"
     stroke-miterlimit="10"
     d="m 39.957033,10.320312 h -8.878908 c -1.679688,0 -3,1.320312 -3,3 v 8.878908 c 0,1.679688 1.320312,3 3,3 h 8.878908 c 1.562496,0 3,-1.320312 3,-3 v -8.878908 c 0,-1.679688 -1.437504,-3 -3,-3 z m 0,0"
     id="path401" />
  <path
     fill-rule="nonzero"
     fill="#000000"
     fill-opacity="1"
     d="m 35.519531,16.078124 c 0,-0.35937 -0.12109,-0.71875 -0.48047,-0.71875 0,0 -0.12109,0 -0.24219,0.12109 l -0.35937,0.35938 0.12109,0.12109 c 0,0 0.1211,0 0.23828,0 0.1211,0 0.24219,0.11719 0.24219,0.35938 0,1.19922 -0.72266,2.39844 -1.32031,2.39844 -0.35938,0 -0.60156,-0.35938 -0.60156,-0.83985 0,-0.71875 0.24218,-1.4375 0.96093,-2.39844 v -0.12109 c -0.23828,0.12109 -0.23828,0.12109 -0.48047,0.12109 -0.35937,0 -0.59765,0 -0.96093,0 -0.11719,-0.12109 -0.11719,0 -0.23828,0 -0.1211,0.23829 -0.1211,0.48047 -0.23829,0.83985 h 0.11719 l 0.1211,-0.24219 c 0.12109,-0.11719 0.23828,-0.23828 0.35937,-0.23828 0.24219,0 0.35938,0 0.48047,0 0.12109,0 0.23828,0 0.48047,0 -0.83985,0.83984 -1.19922,1.44141 -1.19922,2.28125 0,0.48047 0.35937,0.95703 0.83984,0.95703 0.35938,0 0.59766,-0.11719 0.95703,-0.47656 0.36329,-0.24219 0.72266,-0.83985 0.96094,-1.32031 0.1211,-0.36329 0.24219,-0.83985 0.24219,-1.20313 z m 0,0"
     id="path403" />
  <path
     fill-rule="nonzero"
     fill="#000000"
     fill-opacity="1"
     d="m 38.519531,20.160154 c 0,-0.12109 0,-0.24219 0,-0.24219 0,-0.11718 0,-0.11718 0,-0.23828 h -1.92188 l 0.96094,-1.07812 c 0.60156,-0.48047 0.71875,-0.83985 0.71875,-1.20313 0,-0.71875 -0.35937,-1.07812 -1.07812,-1.07812 -0.35938,0 -0.72266,0.12109 -0.96094,0.35937 l -0.12109,0.83985 h 0.24218 v -0.23828 c 0.11719,-0.36329 0.35938,-0.48047 0.71875,-0.48047 0.48047,0 0.71875,0.23828 0.71875,0.71875 0,0.35937 -0.23828,0.83984 -0.83984,1.4414 l -0.95703,1.07813 v 0.12109 c 0.47656,0 0.83984,0 1.19922,0 0.48047,0 0.83984,0 1.32031,0 z m 0,0"
     id="path405" />
  <path
     fill-rule="nonzero"
     fill="#b3d5ed"
     fill-opacity="1"
     stroke-width="0.24"
     stroke-linecap="butt"
     stroke-linejoin="miter"
     stroke="#000000"
     stroke-opacity="1"
     stroke-miterlimit="10"
     d="m 67.917969,10.320312 h -9 c -1.558596,0 -3,1.320312 -3,3 v 8.878908 c 0,1.679688 1.441404,3 3,3 h 9 c 1.558596,0 2.878908,-1.320312 2.878908,-3 v -8.878908 c 0,-1.679688 -1.320312,-3 -2.878908,-3 z m 0,0"
     id="path407" />
  <path
     fill-rule="nonzero"
     fill="#000000"
     fill-opacity="1"
     d="m 63.476561,16.078124 c 0,-0.47656 -0.23828,-0.71875 -0.47656,-0.71875 -0.1211,0 -0.1211,0 -0.24219,0.12109 l -0.35937,0.23829 0.12109,0.24218 c 0,-0.12109 0.11719,-0.12109 0.11719,-0.12109 0.24218,0 0.36328,0.23828 0.36328,0.48047 0,1.07812 -0.72266,2.28125 -1.32031,2.28125 -0.48047,0 -0.60157,-0.24219 -0.60157,-0.72266 0,-0.83984 0.23828,-1.4375 0.96094,-2.39844 l -0.12109,-0.12109 c -0.1211,0 -0.23828,0.12109 -0.35938,0.12109 -0.35937,0 -0.60156,-0.12109 -0.96094,-0.12109 -0.12109,0 -0.12109,0 -0.23828,0.12109 -0.12109,0.1211 -0.24218,0.35938 -0.24218,0.83985 h 0.12109 l 0.12109,-0.35938 c 0,-0.12109 0.23828,-0.12109 0.35938,-0.12109 0.12109,0 0.35937,0 0.48047,0 0.11718,0 0.23828,0 0.48047,-0.12109 -0.83985,0.96093 -1.20313,1.5625 -1.20313,2.28125 0,0.60156 0.36328,1.07812 0.83984,1.07812 0.36329,0 0.60157,-0.23828 0.96094,-0.47656 0.35938,-0.36328 0.72266,-0.83985 0.96094,-1.32031 0.12109,-0.36329 0.23828,-0.96094 0.23828,-1.20313 z m 0,0"
     id="path409" />
  <path
     fill-rule="nonzero"
     fill="#000000"
     fill-opacity="1"
     d="m 66.359371,18.839844 c 0,-0.23828 -0.12109,-0.48047 -0.24218,-0.60156 -0.11719,-0.11719 -0.23829,-0.11719 -0.59766,-0.23828 0.48047,-0.35938 0.59766,-0.60157 0.59766,-0.83985 0,-0.48047 -0.35938,-0.83984 -0.95704,-0.83984 -0.36328,0 -0.60156,0.12109 -0.84375,0.35937 l -0.23828,0.71875 h 0.23828 v -0.35937 c 0.1211,-0.23828 0.48047,-0.35938 0.72266,-0.35938 0.35938,0 0.71875,0.23828 0.71875,0.60157 0,0.48046 -0.35937,0.71875 -0.71875,0.71875 -0.12109,0 -0.24219,0 -0.24219,0 l -0.11718,0.35937 c 0.23828,-0.12109 0.35937,-0.12109 0.48046,-0.12109 0.47657,0 0.71875,0.24218 0.71875,0.83984 0,0.48047 -0.35937,0.83984 -0.83984,0.83984 -0.24219,0 -0.48047,0 -0.60156,-0.23828 -0.1211,-0.12109 -0.23828,-0.23828 -0.35938,-0.48047 h -0.12109 c 0.12109,0.35938 0.12109,0.60157 0.24219,0.83985 0.23828,0.12109 0.48047,0.12109 0.71875,0.12109 0.35937,0 0.83984,-0.24219 1.19922,-0.60156 0.24218,-0.23828 0.24218,-0.48047 0.24218,-0.71875 z m 0,0"
     id="path411" />
  <path
     fill-rule="nonzero"
     fill="#b3d5ed"
     fill-opacity="1"
     stroke-width="0.24"
     stroke-linecap="butt"
     stroke-linejoin="miter"
     stroke="#000000"
     stroke-opacity="1"
     stroke-miterlimit="10"
     d="m 95.757813,10.320312 h -8.878908 c -1.679688,0 -3,1.320312 -3,3 v 8.878908 c 0,1.679688 1.320312,3 3,3 h 8.878908 c 1.679688,0 3,-1.320312 3,-3 v -8.878908 c 0,-1.679688 -1.320312,-3 -3,-3 z m 0,0"
     id="path413" />
  <path
     fill-rule="nonzero"
     fill="#000000"
     fill-opacity="1"
     d="m 91.437501,16.078124 c 0,-0.35937 -0.23828,-0.71875 -0.48047,-0.71875 -0.11719,0 -0.23828,0 -0.23828,0.12109 l -0.35938,0.35938 v 0.12109 c 0.11719,0 0.23828,0 0.23828,0 0.24219,0 0.35938,0.11719 0.35938,0.35938 0,1.19922 -0.71875,2.39844 -1.4375,2.39844 -0.35938,0 -0.60156,-0.35938 -0.60156,-0.83985 0,-0.71875 0.35937,-1.4375 1.08203,-2.39844 l -0.1211,-0.12109 c -0.12109,0.12109 -0.24218,0.12109 -0.48046,0.12109 -0.23829,0 -0.60157,0 -0.83985,0 -0.12109,-0.12109 -0.24219,0 -0.24219,0 -0.11718,0.23829 -0.23828,0.48047 -0.35937,0.83985 h 0.24219 l 0.11718,-0.24219 c 0,-0.11719 0.24219,-0.23828 0.36329,-0.23828 0.11718,0 0.23828,0 0.35937,0 0.23828,0 0.35938,0 0.48047,0 -0.83984,0.83984 -1.08203,1.44141 -1.08203,2.28125 0,0.48047 0.35937,0.95703 0.83984,0.95703 0.24219,0 0.60156,-0.11719 0.96094,-0.47656 0.23828,-0.24219 0.60156,-0.83985 0.83984,-1.32031 0.23828,-0.36329 0.35938,-0.83985 0.35938,-1.20313 z m 0,0"
     id="path415" />
  <path
     fill-rule="nonzero"
     fill="#000000"
     fill-opacity="1"
     d="m 94.437501,20.160154 v -0.24219 h -0.35938 c -0.23828,0 -0.23828,-0.11718 -0.23828,-0.35937 v -0.48047 c 0.23828,0 0.35938,0 0.59766,0.12109 v -0.48046 c 0,0 -0.35938,0 -0.48047,0 h -0.11719 v -0.71875 c 0,-0.96094 0,-1.44141 0,-1.67969 h -0.12109 l -0.35938,0.12109 -1.5625,2.51953 0.1211,0.11719 h 1.4414 v 0.48047 c 0,0.24219 -0.12109,0.35937 -0.35937,0.35937 h -0.36328 v 0.24219 c 0.36328,0 0.60156,0 0.96093,0 0.24219,0 0.48047,0 0.83985,0 z m -1.07813,-1.4414 h -1.19922 l 1.19922,-1.91797 z m 0,0"
     id="path417" />
  <path
     fill="none"
     stroke-width="0.24"
     stroke-linecap="butt"
     stroke-linejoin="miter"
     stroke="#000000"
     stroke-opacity="1"
     stroke-miterlimit="10"
     d="m 15.117189,17.761716 h 9.359376"
     id="path419" />
  <path
     fill-rule="nonzero"
     fill="#000000"
     fill-opacity="1"
     stroke-width="0.24"
     stroke-linecap="butt"
     stroke-linejoin="miter"
     stroke="#000000"
     stroke-opacity="1"
     stroke-miterlimit="10"
     d="m 27.238281,17.761716 c -0.359376,-0.121092 -1.80078,-0.60156 -2.761716,-1.082028 v 2.160156 c 0.960936,-0.480468 2.40234,-0.960936 2.761716,-1.078128 z m 0,0"
     id="path421" />
  <path
     fill="none"
     stroke-width="0.24"
     stroke-linecap="butt"
     stroke-linejoin="miter"
     stroke="#000000"
     stroke-opacity="1"
     stroke-miterlimit="10"
     d="m 43.078125,17.761716 h 9.359376"
     id="path423" />
  <path
     fill-rule="nonzero"
     fill="#000000"
     fill-opacity="1"
     stroke-width="0.24"
     stroke-linecap="butt"
     stroke-linejoin="miter"
     stroke="#000000"
     stroke-opacity="1"
     stroke-miterlimit="10"
     d="m 55.199217,17.761716 c -0.359376,-0.121092 -1.921872,-0.60156 -2.761716,-1.082028 v 2.160156 c 0.839844,-0.480468 2.40234,-0.960936 2.761716,-1.078128 z m 0,0"
     id="path425" />
  <path
     fill="none"
     stroke-width="0.24"
     stroke-linecap="butt"
     stroke-linejoin="miter"
     stroke="#000000"
     stroke-opacity="1"
     stroke-miterlimit="10"
     d="m 71.039061,17.761716 h 9.238284"
     id="path427" />
  <path
     fill-rule="nonzero"
     fill="#000000"
     fill-opacity="1"
     stroke-width="0.24"
     stroke-linecap="butt"
     stroke-linejoin="miter"
     stroke="#000000"
     stroke-opacity="1"
     stroke-miterlimit="10"
     d="m 83.160153,17.761716 c -0.363276,-0.121092 -1.921872,-0.60156 -2.882808,-1.082028 v 2.160156 c 0.960936,-0.480468 2.519532,-0.960936 2.882808,-1.078128 z m 0,0"
     id="path429" />
  <path
     fill="none"
     stroke-width="0.24"
     stroke-linecap="butt"
     stroke-linejoin="miter"
     stroke="#000000"
     stroke-opacity="1"
     stroke-miterlimit="10"
     d="M 63.359373,25.320312 V 36 H 35.519529 v -7.19922"
     id="path431" />
  <path
     fill-rule="nonzero"
     fill="#000000"
     fill-opacity="1"
     stroke-width="0.24"
     stroke-linecap="butt"
     stroke-linejoin="miter"
     stroke="#000000"
     stroke-opacity="1"
     stroke-miterlimit="10"
     d="m 35.519529,26.039064 c -0.121092,0.242184 -0.60156,1.80078 -1.082028,2.761716 h 2.160156 c -0.59766,-0.960936 -1.078128,-2.519532 -1.078128,-2.761716 z m 0,0"
     id="path433" />
  <path
     fill-rule="nonzero"
     fill="#000000"
     fill-opacity="1"
     d="m 49.679691,32.878904 -1.80079,-1.67969 1.80079,-1.80078 -0.36329,-0.23828 -1.67968,1.67969 -1.79688,-1.67969 -0.36328,0.23828 1.80078,1.80078 -1.80078,1.67969 0.36328,0.35938 1.79688,-1.79688 1.67968,1.79688 z m 0,0"
     id="path435" />
  <path
     fill-rule="nonzero"
     fill="#000000"
     fill-opacity="1"
     d="m 53.519531,31.558594 c 0,-0.35938 -0.12109,-0.71875 -0.35938,-0.83984 -0.24218,-0.23829 -0.36328,-0.23829 -0.84375,-0.35938 0.60157,-0.35937 0.84375,-0.71875 0.84375,-1.19922 0,-0.71875 -0.48046,-1.08203 -1.32031,-1.08203 -0.48047,0 -0.83984,0.12109 -1.20312,0.48047 l -0.23828,0.96094 h 0.23828 l 0.12109,-0.48047 c 0.12109,-0.23828 0.60156,-0.48047 0.96094,-0.48047 0.48047,0 0.83984,0.35937 0.83984,0.83984 0,0.60157 -0.35937,1.08203 -0.96094,1.08203 0,0 -0.35937,0 -0.35937,0 l -0.12109,0.35938 h 0.12109 c 0.23828,-0.12109 0.35937,-0.12109 0.60156,-0.12109 0.59766,0 0.95703,0.35937 0.95703,1.08203 0,0.71875 -0.48047,1.19922 -1.07812,1.19922 -0.35938,0 -0.71875,-0.1211 -0.96094,-0.23829 -0.12109,-0.24218 -0.23828,-0.36328 -0.35937,-0.72265 h -0.23829 c 0.23829,0.48047 0.23829,0.72265 0.23829,1.08203 0.48046,0.11719 0.71875,0.23828 1.07812,0.23828 0.60156,0 1.20313,-0.35937 1.68359,-0.83984 0.23829,-0.35938 0.35938,-0.60157 0.35938,-0.96094 z m 0,0"
     id="path437" />
  <path
     fill-rule="nonzero"
     fill="#000000"
     fill-opacity="1"
     d="m 7.917971,4.800784 h -0.1211 c -0.48047,0.23828 -0.95703,0.35937 -1.55859,0.35937 -1.44141,0 -2.39844,-0.96094 -2.39844,-2.39844 0,-1.4414 0.83985,-2.28125 2.16016,-2.28125 0.71875,0 1.4375,0.23829 1.4375,0.59766 v 0.48047 h 0.24219 c 0,-0.35938 0.11718,-0.59766 0.11718,-1.07813 -0.59765,-0.24218 -1.07812,-0.35937 -1.67968,-0.35937 -0.59766,0 -1.32032,0.23828 -1.80079,0.48047 -0.83984,0.47656 -1.3164,1.3164 -1.3164,2.27734 0,1.67969 1.19922,2.76172 3,2.76172 0.59765,0 1.19922,-0.24219 1.67969,-0.48047 z m 0,0"
     id="path439" />
  <path
     fill-rule="nonzero"
     fill="#000000"
     fill-opacity="1"
     d="m 12.000001,3.718754 c 0,-1.07813 -0.72266,-1.80079 -1.6836,-1.80079 -1.07812,0 -1.91796,0.84375 -1.91796,1.92188 0,1.07812 0.71875,1.80078 1.67968,1.80078 1.08203,0 1.92188,-0.83984 1.92188,-1.92187 z m -0.72266,0.24218 c 0,0.83985 -0.35937,1.4375 -0.96094,1.4375 -0.71875,0 -1.19921,-0.71875 -1.19921,-1.79687 0,-0.96094 0.35937,-1.44141 0.96093,-1.44141 0.71875,0 1.19922,0.71875 1.19922,1.80078 z m 0,0"
     id="path441" />
  <path
     fill-rule="nonzero"
     fill="#000000"
     fill-opacity="1"
     d="m 16.558591,5.519534 v -0.23828 l -0.35937,-0.1211 c -0.24219,0 -0.24219,0 -0.24219,-0.48047 V 4e-6 c -0.35938,0.12109 -0.59766,0.23828 -1.19922,0.23828 v 0.24218 h 0.35938 c 0.12109,0 0.24218,0.1211 0.24218,0.35938 v 1.32031 c -0.48047,-0.12109 -0.60156,-0.24219 -0.96093,-0.24219 -0.1211,0 -0.35938,0.1211 -0.48047,0.1211 l -0.71875,0.35937 c -0.35938,0.24219 -0.72266,0.83985 -0.72266,1.44141 0,0.60156 0.24219,1.07812 0.60156,1.32031 0.23828,0.23828 0.60157,0.35938 1.08203,0.35938 0.11719,0 0.35938,0 0.35938,0 l 0.83984,-0.71875 v 0.71875 c 0.11719,-0.1211 0.35938,-0.1211 0.59766,-0.1211 0.12109,0 0.35937,0 0.60156,0.1211 z m -1.19922,-1.67969 c 0,0.48047 0,0.48047 -0.12109,0.71875 -0.23828,0.35937 -0.60156,0.60156 -0.96094,0.60156 -0.59765,0 -1.07812,-0.71875 -1.07812,-1.55859 0,-0.83985 0.35937,-1.32031 1.07812,-1.32031 0.24219,0 0.60156,0.11718 0.83985,0.23828 0.12109,0.12109 0.24218,0.24218 0.24218,0.35937 z m 0,0"
     id="path443" />
  <path
     fill-rule="nonzero"
     fill="#000000"
     fill-opacity="1"
     d="m 20.160151,3.359374 c 0,-0.83984 -0.48046,-1.44141 -1.32031,-1.44141 -0.36328,0 -0.60156,0.1211 -0.96094,0.24219 -0.60156,0.35938 -0.83984,0.83985 -0.83984,1.67969 0,0.48047 0.12109,0.83984 0.35938,1.07812 0.23828,0.48047 0.71875,0.72266 1.32031,0.72266 0.23828,0 0.48047,-0.12109 0.83984,-0.24219 0.23828,-0.11718 0.35938,-0.23828 0.35938,-0.23828 l 0.12109,-0.24219 v -0.11718 c -0.48047,0.35937 -0.72266,0.35937 -0.96094,0.35937 -0.48047,0 -0.96093,-0.24219 -1.19922,-0.60156 -0.12109,-0.23828 -0.12109,-0.35938 -0.12109,-0.83984 h 1.08203 c 0.47656,0 0.83985,0 1.32031,-0.11719 0,-0.1211 0,-0.1211 0,-0.24219 z m -0.60156,0.12109 h -0.83984 c -0.35938,0 -0.60156,0 -0.96094,0 0,-0.35937 0,-0.60156 0.12109,-0.71875 0.1211,-0.36328 0.48047,-0.60156 0.83985,-0.60156 0.23828,0 0.48047,0.1211 0.59765,0.35938 0.1211,0.24218 0.24219,0.48047 0.24219,0.96093 z m 0,0"
     id="path445" />
  <path
     fill-rule="nonzero"
     fill="#000000"
     fill-opacity="1"
     d="m 28.316401,2.281254 v -0.24219 c -0.23828,0 -0.47656,0 -0.71875,0 -0.23828,0 -0.48046,0 -0.71875,0 v 0.24219 h 0.23829 c 0.24218,0 0.35937,0.11718 0.24218,0.48046 l -0.35937,1.07813 -0.36328,0.83984 -0.83985,-2.16015 c -0.11718,-0.23828 -0.23828,-0.35938 -0.23828,-0.60157 h -0.24219 l -1.19921,2.76172 -0.59766,-2.03906 c 0,-0.24219 0,-0.35937 0.23828,-0.35937 h 0.35938 v -0.24219 c -0.35938,0 -0.59766,0 -0.95704,0 -0.24218,0 -0.48046,0 -0.84375,0 v 0.24219 h 0.24219 c 0.23828,0 0.23828,0.11718 0.48047,0.71875 l 0.71875,2.51953 h 0.35938 l 0.72265,-1.80078 c 0.11719,-0.23829 0.47656,-0.83985 0.47656,-0.83985 l 0.96094,2.64063 h 0.35938 l 0.96093,-2.64063 c 0.24219,-0.48047 0.35938,-0.59765 0.48047,-0.59765 z m 0,0"
     id="path447" />
  <path
     fill-rule="nonzero"
     fill="#000000"
     fill-opacity="1"
     d="m 30.476561,5.519534 v -0.23828 l -0.23828,-0.1211 c -0.35938,0 -0.35938,0 -0.35938,-0.48047 v -2.76172 c -0.35937,0.1211 -0.83984,0.24219 -1.19921,0.36329 v 0.11718 h 0.23828 c 0.35937,0 0.35937,0.1211 0.35937,0.60157 v 1.67968 c 0,0.48047 0,0.48047 -0.23828,0.48047 l -0.35937,0.1211 v 0.23828 c 0.35937,-0.1211 0.59765,-0.1211 0.95703,-0.1211 0.24218,0 0.60156,0 0.83984,0.1211 z m -0.47656,-4.80078 c 0,-0.23829 -0.1211,-0.35938 -0.36328,-0.35938 -0.23828,0 -0.35938,0.12109 -0.35938,0.35938 0,0.24218 0.1211,0.35937 0.35938,0.35937 0.24218,0 0.36328,-0.11719 0.36328,-0.35937 z m 0,0"
     id="path449" />
  <path
     fill-rule="nonzero"
     fill="#000000"
     fill-opacity="1"
     d="m 33.117191,2.160154 -1.07813,0.1211 v -0.36329 c 0,-0.23828 0,-0.59765 0.12109,-1.07812 h -0.12109 c -0.24219,0.12109 -0.35937,0.12109 -0.60156,0.23828 0,0.24219 0,0.36328 0,0.60156 v 0.48047 l -0.59766,0.35938 v 0.12109 h 0.59766 v 2.16016 c 0,0.48047 0.24219,0.71875 0.83984,0.71875 0.1211,0 0.35938,0 0.35938,-0.1211 l 0.36328,-0.35937 -0.1211,-0.1211 c -0.12109,0.1211 -0.24218,0.1211 -0.48046,0.1211 -0.23829,0 -0.35938,-0.1211 -0.35938,-0.48047 v -1.91797 h 0.96094 z m 0,0"
     id="path451" />
  <path
     fill-rule="nonzero"
     fill="#000000"
     fill-opacity="1"
     d="m 37.558591,5.519534 v -0.23828 l -0.35937,-0.1211 c -0.24219,0 -0.24219,0 -0.24219,-0.48047 v -1.4414 c 0,-0.83985 -0.48047,-1.32032 -1.32031,-1.32032 -0.23828,0 -0.35938,0.1211 -0.59766,0.24219 l -0.48047,0.48047 V 0.121094 L 34.437501,4.0000001e-6 C 34.078121,0.121094 33.839841,0.238284 33.238281,0.238284 v 0.24218 h 0.48047 c 0.12109,0 0.12109,0.1211 0.12109,0.35938 v 3.83984 c 0,0.48047 0,0.48047 -0.24219,0.48047 l -0.35937,0.1211 v 0.23828 c 0.35937,-0.1211 0.60156,-0.1211 0.96094,-0.1211 0.35937,0 0.59765,0 0.96093,0.1211 v -0.23828 l -0.36328,-0.1211 c -0.23828,0 -0.23828,0 -0.23828,-0.48047 v -1.55859 c 0,-0.35938 0.48047,-0.72266 0.96094,-0.72266 0.48047,0 0.71875,0.36328 0.71875,0.96094 v 2.16016 c 0.23828,-0.1211 0.48047,-0.1211 0.60156,-0.1211 0.23828,0 0.47656,0 0.71875,0.1211 z m 0,0"
     id="path453" />
  <path
     fill-rule="nonzero"
     fill="#000000"
     fill-opacity="1"
     d="m 41.519531,5.519534 v -0.23828 l -0.35938,-0.1211 c -0.24218,0 -0.36328,0 -0.36328,-0.48047 V 4e-6 c -0.35937,0.12109 -0.59765,0.23828 -1.19922,0.23828 v 0.24218 h 0.48047 c 0.1211,0 0.1211,0.1211 0.1211,0.35938 v 3.83984 c 0,0.48047 0,0.48047 -0.24219,0.48047 l -0.35938,0.1211 v 0.23828 c 0.35938,-0.1211 0.60157,-0.1211 0.96094,-0.1211 0.23828,0 0.60156,0 0.96094,0.1211 z m 0,0"
     id="path455" />
  <path
     fill-rule="nonzero"
     fill="#000000"
     fill-opacity="1"
     d="m 45.476561,3.718754 c 0,-1.07813 -0.71875,-1.80079 -1.79687,-1.80079 -1.08204,0 -1.80079,0.84375 -1.80079,1.92188 0,1.07812 0.59766,1.80078 1.5586,1.80078 1.19922,0 2.03906,-0.83984 2.03906,-1.92187 z m -0.71875,0.24218 c 0,0.83985 -0.35937,1.4375 -0.96094,1.4375 -0.71875,0 -1.19922,-0.71875 -1.19922,-1.79687 0,-0.96094 0.35938,-1.44141 0.96094,-1.44141 0.71875,0 1.19922,0.71875 1.19922,1.80078 z m 0,0"
     id="path457" />
  <path
     fill-rule="nonzero"
     fill="#000000"
     fill-opacity="1"
     d="m 49.558591,3.718754 c 0,-1.07813 -0.71875,-1.80079 -1.80078,-1.80079 -1.07812,0 -1.80078,0.84375 -1.80078,1.92188 0,1.07812 0.60156,1.80078 1.5625,1.80078 1.19922,0 2.03906,-0.83984 2.03906,-1.92187 z m -0.71875,0.24218 c 0,0.83985 -0.36328,1.4375 -0.96094,1.4375 -0.71875,0 -1.19921,-0.71875 -1.19921,-1.79687 0,-0.96094 0.35937,-1.44141 0.95703,-1.44141 0.72265,0 1.20312,0.71875 1.20312,1.80078 z m 0,0"
     id="path459" />
  <path
     fill-rule="nonzero"
     fill="#000000"
     fill-opacity="1"
     d="m 53.878901,3.359374 c 0,-0.71875 -0.60156,-1.44141 -1.5625,-1.44141 -0.23828,0 -0.47656,0.1211 -0.59765,0.24219 l -0.60156,0.48047 v -0.72266 h -0.11719 c -0.36328,0.1211 -0.72266,0.24219 -1.20313,0.36329 v 0.11718 h 0.36328 c 0.23829,0 0.35938,0.1211 0.35938,0.60157 v 3.71875 c 0,0.48046 -0.12109,0.60156 -0.35938,0.60156 h -0.36328 v 0.23828 c 0.36328,0 0.72266,0 0.96094,0 0.35938,0 0.60156,0 0.96094,0 v -0.23828 h -0.35938 c -0.24218,0 -0.24218,-0.1211 -0.24218,-0.60156 v -1.32032 c 0.24218,0.1211 0.48046,0.1211 0.72265,0.1211 0.23828,0 0.47656,0 0.59766,-0.1211 l 0.83984,-0.48047 c 0.24219,-0.23828 0.60156,-1.07812 0.60156,-1.55859 z m -0.60156,0.35938 c 0,0.83984 -0.48047,1.4414 -1.19922,1.4414 -0.35937,0 -0.71875,-0.12109 -0.96093,-0.48047 v -1.55859 c 0,-0.12109 0,-0.12109 0.12109,-0.24219 0.23828,-0.35937 0.48047,-0.48047 0.83984,-0.48047 0.71875,0 1.19922,0.48047 1.19922,1.32032 z m 0,0"
     id="path461" />
  <path
     fill-rule="nonzero"
     fill="#b3d5ed"
     fill-opacity="1"
     d="m 12.000001,57.121094 h -8.88281 c -1.67969,0 -3,1.32031 -3,3 v 8.87891 c 0,1.67968 1.32031,3 3,3 h 8.88281 c 1.67969,0 3,-1.32032 3,-3 v -8.87891 c 0,-1.67969 -1.32031,-3 -3,-3 z m 0,0"
     id="path463" />
  <g
     clip-path="url(#clip-6)"
     id="g467"
     transform="translate(-401.76172,-479.16016)">
    <path
       fill="none"
       stroke-width="2"
       stroke-linecap="butt"
       stroke-linejoin="miter"
       stroke="#000000"
       stroke-opacity="1"
       stroke-miterlimit="10"
       d="m 3448.0143,4469.0104 h -74.0234 c -13.9974,0 -25,11.0026 -25,25 v 73.9909 c 0,13.9974 11.0026,25 25,25 h 74.0234 c 13.9974,0 25,-11.0026 25,-25 v -73.9909 c 0,-13.9974 -11.0026,-25 -25,-25 z m 0,0"
       transform="scale(0.12)"
       id="path465" />
  </g>
  <path
     fill-rule="nonzero"
     fill="#000000"
     fill-opacity="1"
     d="m 7.558591,62.878904 c 0,-0.35937 -0.12109,-0.71875 -0.35937,-0.71875 -0.1211,0 -0.24219,0 -0.24219,0.1211 l -0.48047,0.35937 0.12109,0.12109 c 0.1211,-0.12109 0.1211,-0.12109 0.24219,-0.12109 0.11719,0 0.23828,0.23828 0.23828,0.48047 0,1.07812 -0.71875,2.39844 -1.32031,2.39844 -0.35937,0 -0.59766,-0.35938 -0.59766,-0.83985 0,-0.83984 0.23829,-1.4414 1.07813,-2.39843 l -0.12109,-0.1211 c -0.11719,0.1211 -0.23829,0.1211 -0.48047,0.1211 -0.23828,0 -0.59766,-0.1211 -0.95703,-0.1211 0,0 -0.1211,0 -0.24219,0.1211 0,0.11718 -0.1211,0.48046 -0.23828,0.83984 h 0.11718 l 0.24219,-0.35938 c 0,-0.12109 0.1211,-0.12109 0.35938,-0.12109 0.12109,0 0.24218,0 0.35937,0 0.1211,0 0.24219,0 0.48047,0 -0.83984,0.83984 -1.19922,1.4375 -1.19922,2.16016 0,0.59765 0.35938,1.07812 0.83985,1.07812 0.35937,0 0.60156,-0.11719 0.96093,-0.48047 0.35938,-0.35937 0.71875,-0.83984 0.95703,-1.32031 0.1211,-0.35937 0.24219,-0.83984 0.24219,-1.19922 z m 0,0"
     id="path469" />
  <path
     fill-rule="nonzero"
     fill="#000000"
     fill-opacity="1"
     d="m 10.316401,66.839844 v -0.12109 h -0.35937 c -0.23828,0 -0.35938,-0.11719 -0.35938,-0.35938 v -3.23828 c -0.35937,0.11719 -0.71875,0.35937 -1.32031,0.48047 l 0.1211,0.23828 0.71875,-0.35938 c 0.12109,0 0.12109,0.1211 0.12109,0.23829 v 2.64062 c 0,0.24219 -0.12109,0.35938 -0.35938,0.35938 h -0.35937 v 0.12109 c 0.35937,0 0.59766,0 0.95703,0 0.24219,0 0.48047,0 0.83984,0 z m 0,0"
     id="path471" />
  <path
     fill-rule="nonzero"
     fill="#b3d5ed"
     fill-opacity="1"
     d="m 39.957031,57.121094 h -8.87891 c -1.67968,0 -3,1.32031 -3,3 v 8.87891 c 0,1.67968 1.32032,3 3,3 h 8.87891 c 1.5625,0 3,-1.32032 3,-3 v -8.87891 c 0,-1.67969 -1.4375,-3 -3,-3 z m 0,0"
     id="path473" />
  <g
     clip-path="url(#clip-7)"
     id="g477"
     transform="translate(-401.76172,-479.16016)">
    <path
       fill="none"
       stroke-width="2"
       stroke-linecap="butt"
       stroke-linejoin="miter"
       stroke="#000000"
       stroke-opacity="1"
       stroke-miterlimit="10"
       d="m 3680.9896,4469.0104 h -73.9909 c -13.9974,0 -25,11.0026 -25,25 v 73.9909 c 0,13.9974 11.0026,25 25,25 h 73.9909 c 13.0208,0 25,-11.0026 25,-25 v -73.9909 c 0,-13.9974 -11.9792,-25 -25,-25 z m 0,0"
       transform="scale(0.12)"
       id="path475" />
  </g>
  <path
     fill-rule="nonzero"
     fill="#000000"
     fill-opacity="1"
     d="m 35.519531,62.878904 c 0,-0.35937 -0.12109,-0.71875 -0.48047,-0.71875 0,0 -0.12109,0 -0.24219,0.1211 l -0.35937,0.35937 0.12109,0.12109 c 0,-0.12109 0.1211,-0.12109 0.23828,-0.12109 0.1211,0 0.24219,0.23828 0.24219,0.48047 0,1.07812 -0.72266,2.39844 -1.32031,2.39844 -0.35938,0 -0.60156,-0.35938 -0.60156,-0.83985 0,-0.83984 0.24218,-1.4414 0.96093,-2.39843 v -0.1211 c -0.23828,0.1211 -0.23828,0.1211 -0.48047,0.1211 -0.35937,0 -0.59765,-0.1211 -0.96093,-0.1211 -0.11719,0 -0.11719,0 -0.23828,0.1211 -0.1211,0.11718 -0.1211,0.48046 -0.23829,0.83984 h 0.11719 l 0.1211,-0.35938 c 0.12109,-0.12109 0.23828,-0.12109 0.35937,-0.12109 0.24219,0 0.35938,0 0.48047,0 0.12109,0 0.23828,0 0.48047,0 -0.83985,0.83984 -1.19922,1.4375 -1.19922,2.16016 0,0.59765 0.35937,1.07812 0.83984,1.07812 0.35938,0 0.59766,-0.11719 0.95703,-0.48047 0.36329,-0.35937 0.72266,-0.83984 0.96094,-1.32031 0.1211,-0.35937 0.24219,-0.83984 0.24219,-1.19922 z m 0,0"
     id="path479" />
  <path
     fill-rule="nonzero"
     fill="#000000"
     fill-opacity="1"
     d="m 38.519531,66.839844 c 0,0 0,-0.12109 0,-0.23828 0,0 0,-0.1211 0,-0.24219 l -1.92188,0.12109 0.96094,-1.08203 c 0.60156,-0.59765 0.71875,-0.83984 0.71875,-1.32031 0,-0.59766 -0.35937,-0.95703 -1.07812,-0.95703 -0.35938,0 -0.72266,0.11719 -0.96094,0.35937 l -0.12109,0.71875 h 0.24218 v -0.23828 c 0.11719,-0.24218 0.35938,-0.35937 0.71875,-0.35937 0.48047,0 0.71875,0.23828 0.71875,0.71875 0,0.35937 -0.23828,0.83984 -0.83984,1.4414 l -0.95703,0.95704 v 0.12109 c 0.47656,0 0.83984,0 1.19922,0 0.48047,0 0.83984,0 1.32031,0 z m 0,0"
     id="path481" />
  <path
     fill-rule="nonzero"
     fill="#e0e0e0"
     fill-opacity="1"
     d="m 67.917971,57.121094 h -9 c -1.5586,0 -3,1.32031 -3,3 v 8.87891 c 0,1.67968 1.4414,3 3,3 h 9 c 1.55859,0 2.8789,-1.32032 2.8789,-3 v -8.87891 c 0,-1.67969 -1.32031,-3 -2.8789,-3 z m 0,0"
     id="path483" />
  <g
     clip-path="url(#clip-8)"
     id="g487"
     transform="translate(-401.76172,-479.16016)">
    <path
       fill="none"
       stroke-width="2"
       stroke-linecap="butt"
       stroke-linejoin="miter"
       stroke="#000000"
       stroke-opacity="1"
       stroke-miterlimit="10"
       d="m 3913.9974,4469.0104 h -75 c -12.9883,0 -25,11.0026 -25,25 v 73.9909 c 0,13.9974 12.0117,25 25,25 h 75 c 12.9883,0 23.9909,-11.0026 23.9909,-25 v -73.9909 c 0,-13.9974 -11.0026,-25 -23.9909,-25 z m 0,0"
       transform="scale(0.12)"
       id="path485" />
  </g>
  <path
     fill-rule="nonzero"
     fill="#000000"
     fill-opacity="1"
     d="m 60.476561,64.558594 c 0,-0.23828 -0.23828,-0.48047 -0.47656,-0.48047 -0.24219,0 -0.36328,0.24219 -0.36328,0.48047 0,0.24219 0.12109,0.48047 0.36328,0.48047 0.23828,0 0.47656,-0.23828 0.47656,-0.48047 z m 0,0"
     id="path489" />
  <path
     fill-rule="nonzero"
     fill="#000000"
     fill-opacity="1"
     d="m 63.839841,64.558594 c 0,-0.23828 -0.24219,-0.48047 -0.48047,-0.48047 -0.24218,0 -0.35937,0.24219 -0.35937,0.48047 0,0.24219 0.11719,0.48047 0.35937,0.48047 0.23828,0 0.48047,-0.23828 0.48047,-0.48047 z m 0,0"
     id="path491" />
  <path
     fill-rule="nonzero"
     fill="#000000"
     fill-opacity="1"
     d="m 67.199221,64.558594 c 0,-0.23828 -0.24219,-0.48047 -0.48047,-0.48047 -0.24219,0 -0.35938,0.24219 -0.35938,0.48047 0,0.24219 0.11719,0.48047 0.35938,0.48047 0.23828,0 0.48047,-0.23828 0.48047,-0.48047 z m 0,0"
     id="path493" />
  <path
     fill-rule="nonzero"
     fill="#b3d5ed"
     fill-opacity="1"
     d="m 95.757811,57.121094 h -8.87891 c -1.67968,0 -3,1.32031 -3,3 v 8.87891 c 0,1.67968 1.32032,3 3,3 h 8.87891 c 1.67969,0 3,-1.32032 3,-3 v -8.87891 c 0,-1.67969 -1.32031,-3 -3,-3 z m 0,0"
     id="path495" />
  <g
     clip-path="url(#clip-9)"
     id="g499"
     transform="translate(-401.76172,-479.16016)">
    <path
       fill="none"
       stroke-width="2"
       stroke-linecap="butt"
       stroke-linejoin="miter"
       stroke="#000000"
       stroke-opacity="1"
       stroke-miterlimit="10"
       d="m 4145.9961,4469.0104 h -73.9909 c -13.9974,0 -25,11.0026 -25,25 v 73.9909 c 0,13.9974 11.0026,25 25,25 h 73.9909 c 13.9974,0 25,-11.0026 25,-25 v -73.9909 c 0,-13.9974 -11.0026,-25 -25,-25 z m 0,0"
       transform="scale(0.12)"
       id="path497" />
  </g>
  <path
     fill-rule="nonzero"
     fill="#000000"
     fill-opacity="1"
     d="m 91.437501,62.878904 c 0,-0.48047 -0.23828,-0.71875 -0.48047,-0.71875 -0.11719,0 -0.23828,0 -0.23828,0 l -0.35938,0.35938 v 0.12109 c 0.11719,0 0.23828,0 0.23828,0 0.24219,0 0.35938,0.12109 0.35938,0.48047 0,1.07812 -0.71875,2.27734 -1.4375,2.27734 -0.35938,0 -0.60156,-0.23828 -0.60156,-0.71875 0,-0.83984 0.35937,-1.55859 1.08203,-2.39843 l -0.1211,-0.1211 c -0.12109,0 -0.24218,0 -0.48046,0 -0.23829,0 -0.60157,0 -0.83985,0 -0.12109,0 -0.24219,0 -0.24219,0 -0.11718,0.23828 -0.23828,0.48047 -0.35937,0.96094 h 0.24219 l 0.11718,-0.35938 c 0,-0.12109 0.24219,-0.24218 0.36329,-0.24218 0.11718,0 0.23828,0 0.35937,0 0.23828,0 0.35938,0 0.48047,0 -0.83984,0.96093 -1.08203,1.55859 -1.08203,2.28125 0,0.59765 0.35937,0.96093 0.83984,0.96093 0.24219,0 0.60156,-0.12109 0.96094,-0.36328 0.23828,-0.35937 0.60156,-0.83984 0.83984,-1.4375 0.23828,-0.35937 0.35938,-0.83984 0.35938,-1.08203 z m 0,0"
     id="path501" />
  <path
     fill-rule="nonzero"
     fill="#000000"
     fill-opacity="1"
     d="m 94.316401,64.558594 c 0,-0.95703 -0.47656,-1.4375 -1.19921,-1.4375 -0.71875,0 -1.19922,0.48047 -1.19922,1.19922 0,0.59765 0.35937,1.07812 0.96093,1.07812 0.23829,0 0.35938,0 0.48047,-0.11718 l 0.35938,-0.36329 c 0,0.96094 -0.60156,1.6836 -1.5586,1.92188 l 0.11719,0.12109 c 0.72266,-0.24218 0.96094,-0.35937 1.19922,-0.60156 0.60156,-0.48047 0.83984,-1.07812 0.83984,-1.80078 z m -0.47656,-0.23828 c 0,0.48047 -0.36328,0.83984 -0.72265,0.83984 -0.48047,0 -0.71875,-0.48047 -0.71875,-0.96094 0,-0.59765 0.23828,-0.96093 0.71875,-0.96093 0.24218,0 0.48046,0.12109 0.60156,0.36328 0,0.11719 0.12109,0.35937 0.12109,0.71875 z m 0,0"
     id="path503" />
  <path
     fill-rule="nonzero"
     fill="#b3d5ed"
     fill-opacity="1"
     d="m 123.71875,57.121094 h -8.87891 c -1.67969,0 -3,1.32031 -3,3 v 8.87891 c 0,1.67968 1.32031,3 3,3 h 8.87891 c 1.67969,0 3,-1.32032 3,-3 v -8.87891 c 0,-1.67969 -1.32031,-3 -3,-3 z m 0,0"
     id="path505" />
  <g
     clip-path="url(#clip-10)"
     id="g509"
     transform="translate(-401.76172,-479.16016)">
    <path
       fill="none"
       stroke-width="2"
       stroke-linecap="butt"
       stroke-linejoin="miter"
       stroke="#000000"
       stroke-opacity="1"
       stroke-miterlimit="10"
       d="m 4379.0039,4469.0104 h -73.9909 c -13.9974,0 -25,11.0026 -25,25 v 73.9909 c 0,13.9974 11.0026,25 25,25 h 73.9909 c 13.9974,0 25,-11.0026 25,-25 v -73.9909 c 0,-13.9974 -11.0026,-25 -25,-25 z m 0,0"
       transform="scale(0.12)"
       id="path507" />
  </g>
  <path
     fill-rule="nonzero"
     fill="#000000"
     fill-opacity="1"
     d="m 117.95703,62.878904 c 0,-0.48047 -0.11719,-0.71875 -0.48047,-0.71875 0,0 -0.11719,0 -0.23828,0 l -0.35938,0.35938 0.1211,0.12109 c 0,0 0.11719,0 0.23828,0 0.12109,0 0.23828,0.12109 0.23828,0.48047 0,1.07812 -0.71875,2.27734 -1.31641,2.27734 -0.36328,0 -0.60156,-0.23828 -0.60156,-0.71875 0,-0.83984 0.23828,-1.55859 0.96094,-2.39843 v -0.1211 c -0.24219,0 -0.24219,0 -0.48047,0 -0.35937,0 -0.60156,0 -0.96094,0 -0.12109,0 -0.12109,0 -0.23828,0 -0.12109,0.23828 -0.12109,0.48047 -0.24219,0.96094 h 0.1211 l 0.12109,-0.35938 c 0.11719,-0.12109 0.23828,-0.24218 0.35938,-0.24218 0.23828,0 0.35937,0 0.48047,0 0.11718,0 0.23828,0 0.48046,0 -0.84375,0.96093 -1.20312,1.55859 -1.20312,2.28125 0,0.59765 0.35937,0.96093 0.83984,0.96093 0.36328,0 0.60157,-0.12109 0.96094,-0.36328 0.35938,-0.35937 0.71875,-0.83984 0.96094,-1.4375 0.12109,-0.35937 0.23828,-0.83984 0.23828,-1.08203 z m 0,0"
     id="path511" />
  <path
     fill-rule="nonzero"
     fill="#000000"
     fill-opacity="1"
     d="m 120.59765,66.839844 v -0.12109 h -0.23828 C 120.11719,66.601564 120,66.601564 120,66.359374 v -3.35937 c -0.36328,0.23828 -0.83985,0.35937 -1.32031,0.60156 l 0.11718,0.23828 0.72266,-0.35938 c 0,0 0,0 0,0.23829 v 2.64062 c 0,0.24219 0,0.24219 -0.35938,0.35938 h -0.24218 v 0.12109 c 0.24218,0 0.60156,0 0.83984,0 0.35938,0 0.60156,0 0.83984,0 z m 0,0"
     id="path513" />
  <path
     fill-rule="nonzero"
     fill="#000000"
     fill-opacity="1"
     d="m 123.59765,64.800784 c 0,-1.19922 -0.35937,-1.67969 -1.07812,-1.67969 -0.83984,0 -1.20313,0.59766 -1.20313,1.91797 0,0.72265 0,1.19922 0.24219,1.4414 0.23828,0.35938 0.48047,0.48047 0.83985,0.48047 0.83984,0 1.19921,-0.72265 1.19921,-2.16015 z m -0.35937,0.35937 c 0,1.07813 -0.23828,1.5586 -0.71875,1.5586 -0.60156,0 -0.83984,-0.48047 -0.83984,-1.80079 0,-1.19921 0.23828,-1.67968 0.71875,-1.67968 0.60156,0 0.83984,0.60156 0.83984,1.92187 z m 0,0"
     id="path515" />
  <path
     fill="none"
     stroke-width="0.24"
     stroke-linecap="butt"
     stroke-linejoin="miter"
     stroke="#000000"
     stroke-opacity="1"
     stroke-miterlimit="10"
     d="m 15.117189,64.558596 h 9.359376"
     id="path517" />
  <path
     fill-rule="nonzero"
     fill="#000000"
     fill-opacity="1"
     stroke-width="0.24"
     stroke-linecap="butt"
     stroke-linejoin="miter"
     stroke="#000000"
     stroke-opacity="1"
     stroke-miterlimit="10"
     d="m 27.238281,64.558596 c -0.359376,-0.117192 -1.80078,-0.59766 -2.761716,-1.078128 v 2.160156 c 0.960936,-0.480468 2.40234,-0.960936 2.761716,-1.082028 z m 0,0"
     id="path519" />
  <path
     fill="none"
     stroke-width="0.24"
     stroke-linecap="butt"
     stroke-linejoin="miter"
     stroke="#000000"
     stroke-opacity="1"
     stroke-miterlimit="10"
     d="m 43.078125,64.558596 h 9.359376"
     id="path521" />
  <path
     fill-rule="nonzero"
     fill="#000000"
     fill-opacity="1"
     stroke-width="0.24"
     stroke-linecap="butt"
     stroke-linejoin="miter"
     stroke="#000000"
     stroke-opacity="1"
     stroke-miterlimit="10"
     d="m 55.199217,64.558596 c -0.359376,-0.117192 -1.921872,-0.59766 -2.761716,-1.078128 v 2.160156 c 0.839844,-0.480468 2.40234,-0.960936 2.761716,-1.082028 z m 0,0"
     id="path523" />
  <path
     fill="none"
     stroke-width="0.24"
     stroke-linecap="butt"
     stroke-linejoin="miter"
     stroke="#000000"
     stroke-opacity="1"
     stroke-miterlimit="10"
     d="m 71.039061,64.558596 h 9.238284"
     id="path525" />
  <path
     fill-rule="nonzero"
     fill="#000000"
     fill-opacity="1"
     stroke-width="0.24"
     stroke-linecap="butt"
     stroke-linejoin="miter"
     stroke="#000000"
     stroke-opacity="1"
     stroke-miterlimit="10"
     d="m 83.160153,64.558596 c -0.363276,-0.117192 -1.921872,-0.59766 -2.882808,-1.078128 v 2.160156 c 0.960936,-0.480468 2.519532,-0.960936 2.882808,-1.082028 z m 0,0"
     id="path527" />
  <path
     fill="none"
     stroke-width="0.24"
     stroke-linecap="butt"
     stroke-linejoin="miter"
     stroke="#000000"
     stroke-opacity="1"
     stroke-miterlimit="10"
     d="m 98.878905,64.558596 h 9.359375"
     id="path529" />
  <path
     fill-rule="nonzero"
     fill="#000000"
     fill-opacity="1"
     stroke-width="0.24"
     stroke-linecap="butt"
     stroke-linejoin="miter"
     stroke="#000000"
     stroke-opacity="1"
     stroke-miterlimit="10"
     d="m 111.11719,64.558596 c -0.35938,-0.117192 -1.91797,-0.59766 -2.87891,-1.078128 v 2.160156 c 0.96094,-0.480468 2.51953,-0.960936 2.87891,-1.082028 z m 0,0"
     id="path531" />
  <path
     fill-rule="nonzero"
     fill="#000000"
     fill-opacity="1"
     d="m 8.519531,47.281254 v -0.24219 c -0.24219,0 -0.60156,0 -0.83984,0 -0.36329,0 -0.60157,0 -0.83985,0 v 0.24219 h 0.23828 c 0.35938,0 0.48047,0.11718 0.48047,0.71875 v 2.39843 c 0,0.96094 -0.60156,1.44141 -1.67969,1.44141 -0.96093,0 -1.4414,-0.35938 -1.4414,-1.32031 v -2.51953 c 0,-0.60157 0,-0.71875 0.35937,-0.71875 h 0.36328 v -0.24219 c -0.36328,0 -0.72265,0 -1.08203,0 -0.35937,0 -0.71875,0 -1.07812,0 v 0.24219 h 0.35937 c 0.35938,0 0.35938,0.11718 0.35938,0.71875 v 2.64062 c 0,0.59766 0.12109,0.96094 0.48047,1.19922 0.23828,0.35937 0.71875,0.48047 1.55859,0.48047 0.71875,0 1.19922,-0.1211 1.55859,-0.48047 0.36329,-0.35938 0.48047,-0.83984 0.48047,-1.67969 v -2.16015 c 0,-0.60157 0.1211,-0.71875 0.48047,-0.71875 z m 0,0"
     id="path533" />
  <path
     fill-rule="nonzero"
     fill="#000000"
     fill-opacity="1"
     d="m 12.718751,52.199214 v -0.23828 h -0.35938 c -0.24218,0 -0.24218,0 -0.24218,-0.48047 v -1.4414 c 0,-0.96094 -0.35938,-1.32031 -1.19922,-1.32031 -0.35938,0 -0.48047,0 -0.60157,0.12109 l -0.59765,0.60156 v -0.72265 c -0.48047,0.12109 -0.83985,0.24218 -1.19922,0.24218 v 0.23828 h 0.23828 c 0.35938,0 0.35938,0.1211 0.35938,0.60157 v 1.67968 c 0,0.48047 0,0.48047 -0.23829,0.48047 h -0.35937 v 0.23828 c 0.23828,0 0.59766,0 0.83984,0 0.35938,0 0.71875,0 0.95703,0 v -0.23828 h -0.35937 c -0.23828,0 -0.23828,0 -0.23828,-0.48047 v -1.5625 c 0,-0.35937 0.48047,-0.71875 0.96094,-0.71875 0.48046,0 0.83984,0.35938 0.83984,0.96094 v 2.03906 c 0.23828,0 0.35937,0 0.59766,0 0.24218,0 0.35937,0 0.60156,0 z m 0,0"
     id="path535" />
  <path
     fill-rule="nonzero"
     fill="#000000"
     fill-opacity="1"
     d="m 15.597651,48.839844 c -0.12109,-0.12109 -0.23828,-0.12109 -0.35937,-0.12109 -0.23828,0 -0.48047,0.12109 -0.60156,0.24218 l -0.47657,0.59766 v -0.83984 c -0.36328,0.12109 -0.84375,0.24218 -1.20312,0.24218 v 0.23828 h 0.24219 c 0.35937,0 0.35937,0.1211 0.35937,0.60157 v 1.67968 c 0,0.48047 0,0.48047 -0.24219,0.48047 h -0.35937 v 0.23828 c 0.24219,0 0.60156,0 0.96094,0 0.35937,0 0.60156,0 0.96093,0 v -0.23828 h -0.35937 c -0.35938,0 -0.35938,0 -0.35938,-0.48047 v -1.32031 c 0,-0.48047 0.35938,-0.83984 0.71875,-0.83984 0.23829,0 0.35938,0.12109 0.48047,0.35937 h 0.11719 z m 0,0"
     id="path537" />
  <path
     fill-rule="nonzero"
     fill="#000000"
     fill-opacity="1"
     d="m 19.558591,50.398434 c 0,-0.95703 -0.71875,-1.67968 -1.67969,-1.67968 -1.19921,0 -1.92187,0.72265 -1.92187,1.92187 0,0.96094 0.72266,1.67969 1.67969,1.67969 1.08203,0 1.92187,-0.71875 1.92187,-1.92188 z m -0.71875,0.36328 c 0,0.83985 -0.36328,1.31641 -0.96094,1.31641 -0.71875,0 -1.19921,-0.71875 -1.19921,-1.79687 0,-0.83985 0.35937,-1.32032 0.95703,-1.32032 0.72265,0 1.20312,0.71875 1.20312,1.80078 z m 0,0"
     id="path539" />
  <path
     fill-rule="nonzero"
     fill="#000000"
     fill-opacity="1"
     d="m 21.839841,52.199214 v -0.23828 h -0.36328 c -0.23828,0 -0.23828,0 -0.23828,-0.48047 v -4.67968 h -0.12109 c -0.23829,0.11718 -0.48047,0.11718 -1.07813,0.23828 v 0.24219 h 0.35938 c 0.12109,0 0.23828,0.11718 0.23828,0.35937 v 3.83984 c 0,0.48047 -0.11719,0.48047 -0.35938,0.48047 h -0.35937 v 0.23828 c 0.35937,0 0.71875,0 0.96093,0 0.35938,0 0.59766,0 0.96094,0 z m 0,0"
     id="path541" />
  <path
     fill-rule="nonzero"
     fill="#000000"
     fill-opacity="1"
     d="m 24.000001,52.199214 v -0.23828 h -0.36328 c -0.23828,0 -0.23828,0 -0.23828,-0.48047 v -4.67968 h -0.1211 c -0.23828,0.11718 -0.48047,0.11718 -1.07812,0.23828 v 0.24219 h 0.35937 c 0.1211,0 0.23828,0.11718 0.23828,0.35937 v 3.83984 c 0,0.48047 0,0.48047 -0.35937,0.48047 h -0.23828 v 0.23828 c 0.23828,0 0.59765,0 0.83984,0 0.35938,0 0.71875,0 0.96094,0 z m 0,0"
     id="path543" />
  <path
     fill-rule="nonzero"
     fill="#000000"
     fill-opacity="1"
     d="m 27.476561,50.160154 c 0,-0.83984 -0.47656,-1.4414 -1.31641,-1.4414 -0.36328,0 -0.60156,0.12109 -0.96093,0.24218 -0.60157,0.35938 -0.83985,0.83985 -0.83985,1.5586 0,0.48047 0.11719,0.96093 0.35938,1.19922 0.23828,0.35937 0.71875,0.60156 1.32031,0.60156 0.23828,0 0.59766,0 0.83984,-0.1211 0.23829,-0.12109 0.35938,-0.23828 0.35938,-0.23828 l 0.23828,-0.24218 -0.11719,-0.11719 c -0.48047,0.23828 -0.72265,0.35937 -0.96093,0.35937 -0.48047,0 -0.96094,-0.24218 -1.08204,-0.60156 -0.23828,-0.23828 -0.23828,-0.48047 -0.23828,-0.83984 h 1.08203 c 0.47657,0 0.83985,0 1.31641,-0.1211 0,-0.11718 0,-0.23828 0,-0.23828 z m -0.59766,0 -0.83984,0.1211 c -0.35937,0 -0.60156,0 -0.96094,-0.1211 0,-0.35937 0,-0.48047 0.1211,-0.71875 0.11718,-0.24219 0.48047,-0.48047 0.83984,-0.48047 0.23828,0 0.48047,0.11719 0.59766,0.23828 0.12109,0.35938 0.24218,0.48047 0.24218,0.96094 z m 0,0"
     id="path545" />
  <path
     fill-rule="nonzero"
     fill="#000000"
     fill-opacity="1"
     d="m 32.039061,52.199214 v -0.23828 h -0.35937 c -0.24219,0 -0.24219,0 -0.24219,-0.48047 v -4.67968 c -0.35938,0.11718 -0.59766,0.11718 -1.19922,0.23828 v 0.24219 h 0.35937 c 0.1211,0 0.24219,0.11718 0.24219,0.35937 v 1.32031 c -0.48047,-0.24218 -0.60156,-0.24218 -0.96094,-0.24218 -0.12109,0 -0.35937,0 -0.48046,0.12109 l -0.71875,0.35937 c -0.36329,0.24219 -0.72266,0.71875 -0.72266,1.44141 0,0.59766 0.24219,1.07813 0.60156,1.32031 0.23828,0.23828 0.60156,0.35938 1.07813,0.35938 0.12109,0 0.36328,0 0.36328,-0.1211 l 0.83984,-0.59765 v 0.59765 c 0.11719,0 0.35938,0 0.59766,0 0.12109,0 0.35937,0 0.60156,0 z m -1.19922,-1.67968 c 0,0.48047 0,0.60156 -0.12109,0.71875 -0.24219,0.36328 -0.60156,0.60156 -0.96094,0.60156 -0.59766,0 -1.07812,-0.60156 -1.07812,-1.44141 0,-0.83984 0.35937,-1.32031 1.07812,-1.32031 0.24219,0 0.60156,0.12109 0.83984,0.24219 0.1211,0.12109 0.24219,0.23828 0.24219,0.23828 z m 0,0"
     id="path547" />
  <path
     fill-rule="nonzero"
     fill="#000000"
     fill-opacity="1"
     d="m 36.238281,52.199214 v -0.23828 h -0.35938 c -0.24218,0 -0.24218,0 -0.24218,-0.48047 v -4.67968 h -0.11719 c -0.35938,0.11718 -0.60156,0.11718 -1.20313,0.23828 v 0.24219 h 0.48047 c 0.1211,0 0.1211,0.11718 0.1211,0.35937 v 3.83984 c 0,0.48047 0,0.48047 -0.23828,0.48047 h -0.36329 v 0.23828 c 0.36329,0 0.60157,0 0.96094,0 0.35938,0 0.60156,0 0.96094,0 z m 0,0"
     id="path549" />
  <path
     fill-rule="nonzero"
     fill="#000000"
     fill-opacity="1"
     d="m 40.199221,50.398434 c 0,-0.95703 -0.72266,-1.67968 -1.80078,-1.67968 -1.08204,0 -1.80079,0.72265 -1.80079,1.92187 0,0.96094 0.71875,1.67969 1.67969,1.67969 1.08203,0 1.92188,-0.71875 1.92188,-1.92188 z m -0.72266,0.36328 c 0,0.83985 -0.35937,1.31641 -0.95703,1.31641 -0.72266,0 -1.20313,-0.71875 -1.20313,-1.79687 0,-0.83985 0.36329,-1.32032 0.96094,-1.32032 0.72266,0 1.19922,0.71875 1.19922,1.80078 z m 0,0"
     id="path551" />
  <path
     fill-rule="nonzero"
     fill="#000000"
     fill-opacity="1"
     d="m 44.277341,50.398434 c 0,-0.95703 -0.71875,-1.67968 -1.80078,-1.67968 -1.07812,0 -1.79687,0.72265 -1.79687,1.92187 0,0.96094 0.59765,1.67969 1.67968,1.67969 1.07813,0 1.91797,-0.71875 1.91797,-1.92188 z m -0.71875,0.36328 c 0,0.83985 -0.35937,1.31641 -0.96094,1.31641 -0.71875,0 -1.19921,-0.71875 -1.19921,-1.79687 0,-0.83985 0.35937,-1.32032 0.96093,-1.32032 0.71875,0 1.19922,0.71875 1.19922,1.80078 z m 0,0"
     id="path553" />
  <path
     fill-rule="nonzero"
     fill="#000000"
     fill-opacity="1"
     d="m 48.597651,50.160154 c 0,-0.83984 -0.59765,-1.4414 -1.55859,-1.4414 -0.24219,0 -0.48047,0.12109 -0.60156,0.12109 l -0.59766,0.60156 v -0.72265 h -0.12109 c -0.35938,0.12109 -0.71875,0.24218 -1.08203,0.24218 v 0.23828 h 0.24218 c 0.23829,0 0.35938,0.1211 0.35938,0.60157 v 3.71875 c 0,0.48047 -0.12109,0.48047 -0.35938,0.60156 h -0.35937 v 0.23828 c 0.35937,-0.12109 0.71875,-0.12109 0.95703,-0.12109 0.36328,0 0.60156,0 0.96094,0.12109 v -0.23828 h -0.35938 c -0.23828,-0.12109 -0.23828,-0.12109 -0.23828,-0.60156 v -1.44141 c 0.23828,0.12109 0.47656,0.24219 0.83985,0.24219 0.11718,0 0.35937,-0.1211 0.48046,-0.1211 l 0.83985,-0.59765 c 0.35937,-0.1211 0.59765,-0.96094 0.59765,-1.44141 z m -0.59765,0.35938 c 0,0.83984 -0.48047,1.4414 -1.20313,1.4414 -0.35937,0 -0.71875,-0.12109 -0.95703,-0.48047 v -1.5625 c 0,-0.11718 0,-0.11718 0.11719,-0.35937 0.24219,-0.23828 0.48047,-0.35938 0.83984,-0.35938 0.72266,0 1.20313,0.48047 1.20313,1.32032 z m 0,0"
     id="path555" />
</svg>
